<?xml version="1.0" encoding="iso-8859-1"?>
<!-- Generator: Adobe Illustrator 19.0.0, SVG Export Plug-In . SVG Version: 6.00 Build 0)  -->
<svg version="1.1" id="Capa_1" xmlns="http://www.w3.org/2000/svg" xmlns:xlink="http://www.w3.org/1999/xlink" x="0px" y="0px"
	 viewBox="0 0 496 496" style="enable-background:new 0 0 496 496;" xml:space="preserve">
<g>
	<g>
		<g>
			<path d="M395.776,64c-8.832,0-17.656,0.776-26.376,2.248c5.952-12,12.432-28.944,14.152-48.408
				c0.408-4.568-1.144-9.136-4.24-12.52c-3.088-3.384-7.48-5.32-12.04-5.32c-7.44,0-13.816,5.048-15.864,12.552
				c-2.992,10.976-17.472,17.336-24.144,19.32C316.16,12.848,295.576,0,272,0h-48c-23.576,0-44.16,12.848-55.264,31.872
				c-6.672-1.984-21.152-8.344-24.144-19.32C142.544,5.048,136.168,0,128.728,0c-4.568,0-8.96,1.936-12.048,5.312
				c-3.104,3.392-4.648,7.952-4.24,12.512c1.728,19.464,8.2,36.416,14.16,48.416c-8.72-1.464-17.544-2.24-26.376-2.24h-16.04
				l14.968,37.408c4.152,10.392,11.264,19.16,20.568,25.352c5.216,3.48,10.96,5.896,16.944,7.416
				c-5.456,6.888-8.664,15.536-8.664,24.808c0,8.688,2.904,17.104,8.144,24c-5.24,6.896-8.144,15.312-8.144,24
				c0,5.96,1.4,11.568,3.752,16.656C119.288,235.248,112,251.488,112,268.84V336c0,17.648,14.352,32,32,32
				c5.856,0,11.272-1.696,16-4.448V496h78.416L248,452.872L257.584,496H336V363.552c4.728,2.752,10.144,4.448,16,4.448
				c17.648,0,32-14.352,32-32v-67.16c0-17.352-7.288-33.6-19.752-45.2c2.352-5.088,3.752-10.696,3.752-16.656
				c0-8.688-2.904-17.104-8.144-24c5.24-6.896,8.144-15.312,8.144-24c0-9.272-3.208-17.92-8.656-24.808
				c5.984-1.528,11.72-3.936,16.944-7.416c9.296-6.2,16.408-14.96,20.568-25.352L411.816,64H395.776z M366.84,16.76
				c0.136-0.496,0.384-0.776,0.776-0.336c-2.256,25.432-14.104,46.552-19.424,54.904c-4.128,1.288-8.192,2.752-12.2,4.368V64
				c0-6.016-0.896-11.816-2.448-17.336C341.832,43.864,361.784,35.336,366.84,16.76z M336,144v-7.568
				c9.496,3.368,16,12.312,16,22.552c0,6.912-2.952,13.296-8.304,17.976l-6.888,6.024l6.888,6.024
				c5.352,4.68,8.304,11.064,8.304,17.976c0,13.232-10.768,24-24,24c-11.712,0-21.464-8.448-23.552-19.56
				C323.712,195.264,336,171.048,336,144z M176,64c0-26.472,21.528-48,48-48h48c26.472,0,48,21.528,48,48v8
				c0,17.648-14.352,32-32,32s-32-14.352-32-32h-16c0,17.648-14.352,32-32,32s-32-14.352-32-32V64z M176,107.68
				c8.504,7.632,19.696,12.32,32,12.32c16.688,0,31.392-8.568,40-21.52c8.608,12.96,23.312,21.52,40,21.52
				c12.304,0,23.496-4.688,32-12.32V144c0,20.296-8.48,38.624-22.032,51.728l-14.448-24.08C279.208,164.464,271.328,160,262.944,160
				h-29.88c-8.384,0-16.272,4.464-20.576,11.648l-14.448,24.08C184.48,182.624,176,164.296,176,144V107.68z M285.184,205.528
				C274.32,212.128,261.616,216,248,216c-13.616,0-26.32-3.872-37.192-10.464L226.2,179.88c1.44-2.4,4.064-3.88,6.856-3.88h29.88
				c2.792,0,5.424,1.488,6.856,3.88L285.184,205.528z M191.552,211.424c-2.088,11.12-11.84,19.56-23.552,19.56
				c-13.232,0-24-10.768-24-24c0-6.912,2.952-13.296,8.304-17.976l6.888-6.024l-6.888-6.024c-5.352-4.68-8.304-11.064-8.304-17.976
				c0-10.232,6.504-19.184,16-22.552V144C160,171.048,172.288,195.264,191.552,211.424z M129.16,16.76
				c5.064,18.576,25.016,27.104,33.296,29.904C160.896,52.184,160,57.984,160,64v11.696c-4-1.616-8.064-3.08-12.192-4.368
				c-5.296-8.36-17.104-29.568-19.104-55.336C128.76,16.016,129.016,16.24,129.16,16.76z M128.592,113.448
				c-6.6-4.4-11.64-10.616-14.592-17.976l-6.104-15.256c17.984,0.976,35.736,5.512,52.104,13.016V120h-9.76
				C142.512,120,135.024,117.736,128.592,113.448z M368,268.848V336c0,8.824-7.176,16-16,16c-8.824,0-16-7.176-16-16v-8v-64h-16v56
				h-16v16h16v144h-49.584L248,379.128L225.584,480H176V336h112v-16H176v-56h-16v64v8c0,8.824-7.176,16-16,16
				c-8.824,0-16-7.176-16-16v-67.16c0-12.256,4.912-23.752,13.352-32.248c7.088,6.392,16.376,10.392,26.648,10.392
				c17.136,0,31.672-10.888,37.352-26.064C218,227.96,232.528,232,248,232s30-4.04,42.648-11.08
				c5.688,15.176,20.216,26.064,37.352,26.064c10.272,0,19.56-4,26.648-10.392C363.088,245.096,368,256.592,368,268.848z
				 M382,95.464c-2.952,7.368-7.992,13.584-14.592,17.984c-6.432,4.288-13.92,6.552-21.648,6.552H336V93.224
				c16.368-7.496,34.112-12.04,52.104-13.016L382,95.464z"/>
			<rect x="280" y="128" width="16" height="16"/>
			<rect x="200" y="128" width="16" height="16"/>
			<rect x="240" y="192" width="16" height="16"/>
			<rect x="288" y="272" width="16" height="16"/>
			<rect x="192" y="272" width="16" height="16"/>
			<rect x="192" y="352" width="16" height="24"/>
			<rect x="208" y="392" width="16" height="24"/>
			<rect x="192" y="432" width="16" height="24"/>
			<rect x="288" y="352" width="16" height="24"/>
			<rect x="272" y="392" width="16" height="24"/>
			<rect x="288" y="432" width="16" height="24"/>
			<rect x="240" y="352" width="16" height="16"/>
		</g>
	</g>
</g>
<g>
</g>
<g>
</g>
<g>
</g>
<g>
</g>
<g>
</g>
<g>
</g>
<g>
</g>
<g>
</g>
<g>
</g>
<g>
</g>
<g>
</g>
<g>
</g>
<g>
</g>
<g>
</g>
<g>
</g>
</svg>
