<?xml version="1.0" encoding="iso-8859-1"?>
<!-- Generator: Adobe Illustrator 19.0.0, SVG Export Plug-In . SVG Version: 6.00 Build 0)  -->
<svg version="1.1" id="Capa_1" xmlns="http://www.w3.org/2000/svg" xmlns:xlink="http://www.w3.org/1999/xlink" x="0px" y="0px"
	 viewBox="0 0 496 496" style="enable-background:new 0 0 496 496;" xml:space="preserve">
<g>
	<g>
		<g>
			<path d="M403.312,96l-5.656-5.656c-12.52-12.52-28.096-20.864-45.04-24.4C362.4,53.392,368,37.872,368,21.48
				C368,9.632,358.368,0,346.52,0c-9.872,0-18.448,6.688-20.832,16.272C324.464,21.168,322.432,25.8,320,30.2V19.312
				C320,8.664,311.336,0,300.688,0c-3.904,0-7.728,1.232-10.92,3.416l0.104-0.432C281.736,1,273.36,0,264.968,0
				c-13.088,0-25.384,5.096-34.624,14.344c-2.736,2.736-5.064,5.768-7.048,8.984c-2.88-5.032-6.392-9.744-10.608-13.952
				l-3.712-3.712C205.384,2.064,200.408,0,195.312,0C184.664,0,176,8.664,176,19.312V30.2c-2.432-4.408-4.464-9.032-5.688-13.936
				C167.92,6.688,159.352,0,149.48,0C137.632,0,128,9.632,128,21.48c0,16.392,5.6,31.912,15.384,44.472
				c-16.944,3.536-32.52,11.872-45.04,24.4L92.688,96l5.656,5.656c15.36,15.368,35.32,24.408,56.768,26.008l-35.304,26.472
				l41.952,16.784l-25.992,25.992l39.024,7.808c-4.192,1.568-8.208,3.568-12.08,5.928C159.48,209.008,155.872,208,152,208
				c-13.232,0-24,10.768-24,24c0,5.736,1.64,11.056,4.296,15.712C129.504,255.488,128,263.624,128,272v88c0,17.648,14.352,32,32,32
				c5.856,0,11.272-1.696,16-4.448V496h144V387.552c4.728,2.752,10.144,4.448,16,4.448c17.648,0,32-14.352,32-32v-88
				c0-8.368-1.488-16.52-4.288-24.296C366.36,243.04,368,237.736,368,232c0-13.232-10.768-24-24-24c-3.872,0-7.48,1.008-10.72,2.64
				c-3.864-2.352-7.888-4.352-12.08-5.928l39.032-7.808l-25.992-25.992l41.952-16.784l-35.304-26.472
				c21.448-1.6,41.408-10.648,56.768-26.008L403.312,96z M315.456,60.288c12.68-10.152,21.816-24.4,25.744-40.136
				C341.824,17.704,344,16,346.52,16c3.024,0,5.48,2.456,5.48,5.48c0,18.936-9.408,36.512-25.168,47.016l-11.504,7.672
				c-2.592-3.232-5.384-6.272-8.384-9.072L315.456,60.288z M294.624,20.68l3.728-3.712c1.88-1.896,5.648-0.36,5.648,2.344v29.64
				l-10.152,8.12c-4.28-2.648-8.784-4.936-13.536-6.736C281.568,39.136,286.536,28.768,294.624,20.68z M241.656,25.656
				C247.88,19.432,256.16,16,264.968,16c4.008,0,8.008,0.336,11.976,0.872C268.584,28.144,264,41.704,264,56v6.032l5.8,1.664
				c5.68,1.624,11.048,4.12,16.024,7.296c-6.2,3.528-11.632,8.232-15.96,13.968l-22.872-15.248l-11.144,11.136
				C233.288,70.424,232,59.744,232,48.968C232,40.296,235.52,31.8,241.656,25.656z M223.696,96.384l4.816,14.424l20.504-20.512
				l25.2,16.8l7.128-10.688c4.264-6.4,10.32-11.232,17.504-13.984l-0.408-1.064C311.744,95.264,320,115.016,320,136
				c0,18.52-10.624,43.92-24.2,62.056c-0.848-13.832-10.44-25.224-23.36-28.784c0.424-5.824,1.208-11.624,2.696-17.272H292
				c11.032,0,20-8.976,20-20s-8.968-20-20.224-20c-10.312,0-19.584,5.728-24.192,14.96c-6.52,13.04-10.216,27.448-11.168,42.016
				c-2.936,0.736-5.776,1.848-8.416,3.392c-2.632-1.544-5.472-2.656-8.416-3.392c-0.952-14.568-4.648-28.976-11.168-42.008
				C223.816,117.728,214.536,112,204,112c-11.032,0-20,8.976-20,20s8.968,20,20,20h16.856c1.496,5.648,2.272,11.448,2.696,17.272
				c-12.92,3.56-22.512,14.952-23.36,28.776C186.624,179.912,176,154.52,176,136c0-28.208,16.488-53.568,41.656-65.272
				C218.928,79.416,220.896,88,223.696,96.384z M264,216c-3.88,0-7.656-1.48-10.648-4.168L248,207.008l-5.352,4.824
				C239.656,214.52,235.88,216,232,216c-8.824,0-16-7.176-16-16c0-8.824,7.176-16,16-16c3.88,0,7.656,1.48,10.648,4.168l5.352,4.824
				l5.352-4.824C256.344,185.48,260.12,184,264,184c8.824,0,16,7.176,16,16C280,208.824,272.824,216,264,216z M265.92,231.808
				C261.52,236.792,255.152,240,248,240c-7.152,0-13.52-3.208-17.92-8.192c0.648,0.04,1.264,0.192,1.92,0.192
				c5.64,0,11.152-1.52,16-4.36c4.848,2.84,10.36,4.36,16,4.36C264.656,232,265.272,231.848,265.92,231.808z M280.968,136
				c0.304-0.632,0.608-1.264,0.92-1.888C283.776,130.336,287.56,128,292,128c2.2,0,4,1.792,4,4s-1.8,4-4,4H280.968z M215.032,136
				H204c-2.2,0-4-1.792-4-4s1.8-4,4.224-4c4.208,0,8,2.336,9.88,6.112C214.424,134.736,214.728,135.368,215.032,136z M192,19.312
				c0-2.704,3.752-4.256,5.656-2.344l3.72,3.72c8.984,8.984,14.064,20.792,14.536,33.424c-3.808,1.496-7.48,3.216-10.984,5.184
				L192,48.952V19.312z M149.48,16c2.52,0,4.696,1.704,5.32,4.144c3.928,15.744,13.072,29.992,25.744,40.136l10.68,8.544
				c-3.128,2.648-6.04,5.504-8.752,8.544l-13.296-8.872C153.408,57.992,144,40.416,144,21.48C144,18.456,146.456,16,149.48,16z
				 M152.192,149.856l8.28-6.216c0.36,3.32,0.944,6.736,1.72,10.216L152.192,149.856z M161.936,112c-16.888,0-32.92-5.632-45.944-16
				c12.04-9.584,26.656-15.056,42.128-15.84c0.736,0.536,1.408,1.136,2.168,1.648L172.88,90.2c-4.12,6.752-7.288,14.096-9.48,21.8
				H161.936z M168.232,187.088l4.24-4.24c0.92,1.912,1.904,3.8,2.904,5.672L168.232,187.088z M152,224c4.416,0,8,3.592,8,8h16
				c0-3.392-0.728-6.616-2-9.544c6.44-3.392,13.464-5.376,20.76-6.048c0.48,0.52,0.952,1.048,1.432,1.552l-16.448,20.552
				C174.92,244.544,167.728,248,160,248c-8.824,0-16-7.176-16-16C144,227.592,147.584,224,152,224z M176,360c0,8.824-7.176,16-16,16
				c-8.824,0-16-7.176-16-16v-14.56l32,5.336V360z M240,480h-48v-16h48V480z M304,480h-48v-16h48V480z M352,360
				c0,8.824-7.176,16-16,16c-8.824,0-16-7.176-16-16v-9.224l32-5.336V360z M352,329.224l-32,5.336V280h-16v64v8h-16v16h16v80h-48
				v-56h-16v56h-48v-80h80v-16h-80v-8v-64h-16v54.56l-32-5.336V272c0-4,0.44-7.928,1.264-11.768C149.696,262.56,154.656,264,160,264
				c12.616,0,24.368-5.648,32.24-15.496l16.016-20.024c0.808,0.56,1.616,1.088,2.424,1.584C216.408,245.176,230.912,256,248,256
				s31.592-10.824,37.312-25.928c0.808-0.504,1.624-1.024,2.432-1.584l16.016,20.016C311.632,258.352,323.384,264,336,264
				c5.336,0,10.296-1.44,14.728-3.76C351.544,264.08,352,268,352,272V329.224z M322,222.464c-1.272,2.92-2,6.144-2,9.536h16
				c0-4.408,3.584-8,8-8c4.416,0,8,3.592,8,8c0,8.824-7.176,16-16,16c-7.728,0-14.92-3.456-19.744-9.488l-16.44-20.552
				c0.48-0.504,0.96-1.032,1.432-1.552C308.544,217.088,315.56,219.064,322,222.464z M320.632,188.512
				c1-1.872,1.976-3.76,2.904-5.672l4.24,4.24L320.632,188.512z M343.808,149.856l-10,4c0.776-3.48,1.36-6.896,1.712-10.216
				L343.808,149.856z M334.064,112h-1.072c-2-7.968-4.936-15.56-8.752-22.544l11.48-7.656c0.76-0.504,1.432-1.112,2.168-1.648
				c15.48,0.784,30.096,6.256,42.128,15.84C366.984,106.368,350.952,112,334.064,112z"/>
			<rect x="208" y="272" width="16" height="16"/>
			<rect x="272" y="272" width="16" height="16"/>
		</g>
	</g>
</g>
<g>
</g>
<g>
</g>
<g>
</g>
<g>
</g>
<g>
</g>
<g>
</g>
<g>
</g>
<g>
</g>
<g>
</g>
<g>
</g>
<g>
</g>
<g>
</g>
<g>
</g>
<g>
</g>
<g>
</g>
</svg>
