<?xml version="1.0" encoding="iso-8859-1"?>
<!-- Generator: Adobe Illustrator 19.0.0, SVG Export Plug-In . SVG Version: 6.00 Build 0)  -->
<svg version="1.1" id="Capa_1" xmlns="http://www.w3.org/2000/svg" xmlns:xlink="http://www.w3.org/1999/xlink" x="0px" y="0px"
	 viewBox="0 0 496 496" style="enable-background:new 0 0 496 496;" xml:space="preserve">
<g>
	<path style="fill:#FFA64D;" d="M392,328c0-88-16-144-80-144l-8,8v72l-32-8c41.92,73.352,56,160,168,208C440,464,392,416,392,328z"
		/>
	<path style="fill:#FFA64D;" d="M104,328c0-88,16-144,80-144l8,8v72l32-8c-41.92,73.352-56,160-168,208C56,464,104,416,104,328z"/>
</g>
<g>
	<rect x="280" y="104" style="fill:#333333;" width="16" height="16"/>
	<rect x="200" y="104" style="fill:#333333;" width="16" height="16"/>
	<polygon style="fill:#333333;" points="208,176 216,176 216,184 232,184 232,176 264,176 264,184 280,184 280,176 288,176 288,160 
		208,160 	"/>
	<path style="fill:#333333;" d="M452.896,465.584l-7.24-7.24C445.2,457.88,400,411.72,400,328
		c0-50.792-4.856-102.264-31.888-130.352c0.592-22.768,9.656-44.104,25.824-60.272l8.408-8.408
		c3.592-3.592,5.656-8.568,5.656-13.656C408,104.664,399.336,96,388.688,96h-11.072l21.344-32H384
		c-17.376,0-33.704,6.704-46.096,18.832l17.736-59.12c1.688-5.632,0.648-11.56-2.856-16.28c-4.92-6.624-14.048-9.136-21.608-6.12
		l-33.768,13.504C290.144,9.488,273.632,0,248,0s-42.144,9.488-49.408,14.824L164.832,1.32c-7.584-3.056-16.696-0.512-21.616,6.112
		c-3.504,4.72-4.544,10.648-2.856,16.272l17.736,59.128C145.704,70.696,129.376,64,112,64H97.048l21.336,32h-11.072
		C96.664,96,88,104.664,88,115.312c0,5.088,2.064,10.064,5.656,13.656l8.408,8.408c16.168,16.168,25.232,37.504,25.824,60.272
		C100.856,225.736,96,277.208,96,328c0,83.336-45.208,129.888-45.656,130.344l-7.24,7.24l8.784,5.272
		c1.656,0.992,40.56,23.608,124.12,25.008V496h72h72v-0.136c83.56-1.4,122.456-24.016,124.12-25.008L452.896,465.584z
		 M414.048,442.08c-61.368-35.72-84.64-85.632-109.096-138.088c-6.232-13.36-12.648-27.064-19.72-40.448
		c8.832,3.56,14.224,7.04,14.328,7.112l12.44,8.288v-82.736c1.248-1.32,2.504-2.64,3.664-4.032C364.704,194.016,384,232.536,384,328
		C384,380.064,400.056,418.472,414.048,442.08z M264,272h-32v-14.584c5-0.872,10.36-1.416,16-1.416c5.624,0,10.992,0.552,16,1.432
		V272z M240,232c0-4.416,3.584-8,8-8c4.416,0,8,3.584,8,8s-3.584,8-8,8S240,236.416,240,232z M269.64,242.2
		c1.472-3.104,2.36-6.536,2.36-10.2c0-3.872-1.008-7.488-2.648-10.728c9.6-2.408,18.584-6.336,26.648-11.608v41.04
		C289.336,247.688,280.288,244.336,269.64,242.2z M320,136c0,39.704-32.296,72-72,72s-72-32.296-72-72V98.984
		C176,79.696,191.696,64,210.984,64c6.92,0,13.632,2.032,19.408,5.872L248,81.616l17.608-11.744
		c5.776-3.84,12.488-5.872,19.408-5.872C304.304,64,320,79.696,320,98.984V136z M200,209.664
		c8.064,5.272,17.048,9.208,26.648,11.608c-1.64,3.24-2.648,6.856-2.648,10.728c0,3.664,0.888,7.096,2.36,10.2
		c-10.648,2.136-19.696,5.488-26.36,8.504V209.664z M232,288h32v16c0,8.824-7.176,16-16,16s-16-7.176-16-16V288z M392,115.312
		c0,0.872-0.352,1.728-0.968,2.344l-8.408,8.408c-16.408,16.408-26.576,37.328-29.584,59.936c-7.784-4.448-16.68-7.688-27.184-9.104
		C332.304,164.664,336,150.768,336,136v-8h2.664c12.48,0,23.8-6.16,30.712-16h19.312C390.512,112,392,113.488,392,115.312z
		 M367.112,82.912l-3.576,5.36c-1.848,2.8-3.328,5.808-4.368,8.952c-2.96,8.84-11.192,14.776-20.504,14.776H336v-4.688
		l12.688-12.688C353.984,89.328,360.256,85.368,367.112,82.912z M156.064,16.976c0.344-0.48,1.552-1.312,2.832-0.808l38.144,15.256
		l4.856,1.88l3.72-3.608C206.184,29.144,220.072,16,248,16s41.816,13.144,42.344,13.656l3.728,3.736l43.048-17.224
		c1.24-0.472,2.48,0.344,2.824,0.816c0.272,0.36,0.68,1.12,0.376,2.136l-14.736,49.12C316.256,55.968,301.568,48,285.016,48
		c-10.096,0-19.864,2.96-28.28,8.56L248,62.384l-8.736-5.824c-8.416-5.6-18.184-8.56-28.28-8.56c-16.552,0-31.24,7.968-40.56,20.224
		l-14.736-49.128C155.384,18.096,155.792,17.336,156.064,16.976z M147.312,94.624L160,107.312V112h-2.664
		c-9.312,0-17.544-5.936-20.496-14.768c-1.048-3.16-2.52-6.168-4.384-8.968l-3.568-5.352
		C135.744,85.368,142.016,89.328,147.312,94.624z M104.968,117.656c-0.616-0.616-0.968-1.472-0.968-2.344
		c0-1.824,1.488-3.312,3.312-3.312h19.312c6.912,9.832,18.232,16,30.712,16H160v8c0,14.768,3.696,28.664,10.144,40.896
		c-10.504,1.416-19.4,4.656-27.184,9.104c-3.016-22.616-13.184-43.536-29.584-59.936L104.968,117.656z M112,328
		c0-95.464,19.296-133.984,68.336-135.824c1.16,1.4,2.424,2.712,3.664,4.032v82.736l12.44-8.288
		c0.104-0.072,5.488-3.592,14.352-7.16c-7.08,13.4-13.504,27.12-19.744,40.496C166.6,356.448,143.32,406.36,81.952,442.08
		C95.944,418.472,112,380.064,112,328z M75.4,463.792c50.272-25.28,79.216-58.92,100.6-94.928v111.032
		C126.088,479.032,93,470.208,75.4,463.792z M192,368h48v112h-48V368z M256,480V368h16v-16h-80v-12.832
		c4.688-9.456,9.144-18.952,13.552-28.408c3.392-7.28,6.88-14.664,10.448-22.016V304c0,17.648,14.352,32,32,32s32-14.352,32-32
		v-15.256c3.56,7.352,7.056,14.744,10.448,22.016c4.408,9.456,8.872,18.952,13.552,28.408V352h-16v16h16v112H256z M320,368.872
		c21.376,36.008,50.328,69.648,100.6,94.928c-17.592,6.416-50.688,15.232-100.6,16.112V368.872z"/>
</g>
<g>
</g>
<g>
</g>
<g>
</g>
<g>
</g>
<g>
</g>
<g>
</g>
<g>
</g>
<g>
</g>
<g>
</g>
<g>
</g>
<g>
</g>
<g>
</g>
<g>
</g>
<g>
</g>
<g>
</g>
</svg>
