<?xml version="1.0" encoding="iso-8859-1"?>
<!-- Generator: Adobe Illustrator 19.0.0, SVG Export Plug-In . SVG Version: 6.00 Build 0)  -->
<svg version="1.1" id="Capa_1" xmlns="http://www.w3.org/2000/svg" xmlns:xlink="http://www.w3.org/1999/xlink" x="0px" y="0px"
	 viewBox="0 0 502.928 502.928" style="enable-background:new 0 0 502.928 502.928;" xml:space="preserve">
<g>
	<g>
		<g>
			<path d="M433.712,312.064V262.72c9.656-7.312,16-18.784,16-31.792c0-22.056-17.944-40-40-40c-22.056,0-40,17.944-40,40
				c0,13.016,6.344,24.488,16,31.792v28.84c-26.824-10.224-51.592-24.704-73.752-43.168l-4.616-3.848
				c9.032-12.952,14.368-28.664,14.368-45.616h9.304c16.776,0,32.536-6.528,44.4-18.392c6.048-6.048,10.728-13.144,13.904-21.08
				l16.208-40.528h-19.816c-5.36,0-10.696,0.448-16,1.128v-8.048c0-7.992-3.112-15.504-8.768-21.16
				c-3.752-3.752-5.04-9.208-3.36-14.248l7.224-21.672h-11.096c-15.376,0-29.952,5.224-41.688,14.84
				c-2.224-11.104-6.592-21.696-12.968-31.248l-8.104-12.152l-23.448,23.448c-11.208-17.872-27.312-32.592-46.216-42.04L205.728,0
				l4.216,16.872c3.976,15.88,3.024,32.552-2.592,47.792c-3.664-5.152-5.64-11.288-5.64-17.736V27.616L186.688,42.64
				c-12.408,12.4-20.512,27.96-23.592,44.856c-5.984-6.664-9.384-15.376-9.384-24.568V43.616l-13.656,13.656
				c-16.792,16.792-26.096,39.064-26.304,62.784c-5.32-0.68-10.664-1.128-16.04-1.128H77.896l16.208,40.528
				c3.168,7.936,7.848,15.032,13.904,21.08c11.864,11.864,27.624,18.392,44.4,18.392h9.304c0,16.144,4.84,31.16,13.096,43.744
				L155.8,250.28c-9.968,3.992-18.536,10.712-24.776,19.448c-20.728,29.008-45.12,55.288-72.496,78.112l-13.312,11.088
				l18.496,15.424c21.528,17.928,47.976,28.912,75.664,31.768c-5.096,15.232-11.456,30.048-19.168,44.192l-18.312,33.56l9.616,2.752
				c2.336,0.664,57.912,16.304,130.2,16.304s127.864-15.64,130.2-16.304l9.616-2.752l-18.312-33.56
				c-17.552-32.176-28.48-67.728-32.136-104.12c15.208,19.304,33.872,35.92,54.632,49.016v83.72c0,13.232,10.768,24,24,24
				s24-10.768,24-24V373.792c13.76-3.576,24-15.992,24-30.864S447.472,315.64,433.712,312.064z M381.872,135l-7.416,18.52
				c-2.36,5.912-5.848,11.192-10.352,15.704c-8.84,8.84-20.584,13.704-33.088,13.704h-9.304V155.12
				C339.336,142.856,360.408,135.752,381.872,135z M161.72,182.928h-9.312c-12.496,0-24.248-4.864-33.088-13.704
				c-4.504-4.512-7.992-9.792-10.352-15.712l-7.408-18.52c21.464,0.752,42.528,7.856,60.16,20.12V182.928z M169.504,141.08
				c-12.144-8.216-25.632-14.328-39.792-18v-2.208c0-14.168,3.96-27.72,11.344-39.408c3.832,10.24,10.808,19.176,20.184,25.432
				l16.472,10.984v-14.952c0-13.808,4.016-27,11.488-38.24c2.312,5.624,5.736,10.784,10.168,15.208l12.528,12.528l6.216-12.416
				c7.68-15.36,11.104-32.4,10.072-49.344c12.76,9.328,23.28,21.664,30.36,35.84l4.968,9.928l24.824-24.824
				c6.152,10.752,9.376,22.856,9.376,35.32v19.312L318.4,85.552c6.656-6.648,14.848-11.192,23.784-13.296
				c-3.256,10.624-0.432,22.016,7.456,29.904c2.632,2.632,4.08,6.128,4.08,9.84v11.08c-14.16,3.672-27.648,9.784-39.792,18
				l-31.712-23.784L241.712,141.6l-40.496-24.304L169.504,141.08z M241.712,262.928c-35.288,0-64-28.712-64-64v-44l24.496-18.368
				l39.504,23.696l39.504-23.696l24.496,18.368v44C305.712,234.216,277,262.928,241.712,262.928z M265.264,275.384
				c-2.096,11.104-11.84,19.544-23.552,19.544c-11.712,0-21.456-8.44-23.552-19.544c7.448,2.296,15.36,3.544,23.552,3.544
				S257.816,277.68,265.264,275.384z M385.712,376.088c-20.064-14.152-37.624-32.024-51.216-52.408l-20.784-31.176v26.424
				c0,48.44,12.256,96.512,35.456,139.04l8.576,15.72c-17.952,4.184-58.864,12.336-108.032,13.16v-143.92h-16v143.92
				c-49.168-0.824-90.08-8.968-108.024-13.16l8.576-15.72c23.192-42.528,35.448-90.6,35.448-139.04h-16
				c0,24.2-3.328,48.288-9.624,71.576c-25.656-2-50.256-11.896-70.128-28.456l-3.752-3.12c27.848-23.416,52.688-50.288,73.84-79.904
				c4.456-6.232,10.576-11.04,17.696-13.888l23.648-9.456c4.856,4.824,10.36,8.976,16.32,12.432v2.816
				c0,19.312,13.768,35.472,32,39.192v16.808h16V310.12c18.232-3.72,32-19.872,32-39.192v-2.824
				c5.52-3.208,10.624-7.04,15.208-11.424l4.8,4c25.072,20.896,53.328,36.936,83.992,47.864V376.088z M417.712,478.928
				c0,4.416-3.592,8-8,8c-4.408,0-8-3.584-8-8V270.12c2.584,0.528,5.264,0.808,8,0.808c2.736,0,5.416-0.28,8-0.808V478.928z
				 M409.712,254.928c-13.232,0-24-10.768-24-24s10.768-24,24-24s24,10.768,24,24S422.944,254.928,409.712,254.928z
				 M433.712,356.704v-27.552c4.76,2.776,8,7.88,8,13.776S438.472,353.928,433.712,356.704z"/>
			<rect x="193.712" y="166.928" width="16" height="16"/>
			<rect x="273.712" y="166.928" width="16" height="16"/>
			<path d="M274.656,203.16c-0.28,0.48-7.032,11.768-32.944,11.768s-32.664-11.288-32.944-11.768l-14.216,7.344
				c0.432,0.864,2.464,4.48,7.16,8.44v19.984h16v-11.44c6.32,2.04,14.168,3.44,24,3.44c9.832,0,17.68-1.4,24-3.44v11.44h16v-19.984
				c4.696-3.952,6.728-7.576,7.16-8.44L274.656,203.16z"/>
		</g>
	</g>
</g>
<g>
</g>
<g>
</g>
<g>
</g>
<g>
</g>
<g>
</g>
<g>
</g>
<g>
</g>
<g>
</g>
<g>
</g>
<g>
</g>
<g>
</g>
<g>
</g>
<g>
</g>
<g>
</g>
<g>
</g>
</svg>
