<?xml version="1.0" encoding="iso-8859-1"?>
<!-- Generator: Adobe Illustrator 19.0.0, SVG Export Plug-In . SVG Version: 6.00 Build 0)  -->
<svg version="1.1" id="Capa_1" xmlns="http://www.w3.org/2000/svg" xmlns:xlink="http://www.w3.org/1999/xlink" x="0px" y="0px"
	 viewBox="0 0 496 496" style="enable-background:new 0 0 496 496;" xml:space="preserve">
<g>
	<g>
		<path d="M473.312,336.112C434.248,329.6,405.736,286.96,400,277.768V272c0-26.8-16.576-49.768-40-59.288V88
			c0-48.52-39.48-88-88-88h-48c-48.52,0-88,39.48-88,88v124.712C112.576,222.232,96,245.2,96,272v5.776
			c-5.712,9.192-34.128,51.808-73.312,58.336l-11.184,1.864l5.504,9.904c1.664,2.992,40.16,70.656,103.696,75.632
			c-0.424,8.816-0.704,17.632-0.704,26.456V496h256v-46.032c0-8.824-0.28-17.64-0.704-26.448
			c63.536-4.976,102.032-72.64,103.696-75.632l5.504-9.904L473.312,336.112z M303.192,416c-3.72,18.232-19.872,32-39.192,32h-32
			c-19.312,0-35.472-13.768-39.192-32H272v-16h-88c-4.416,0-8-3.584-8-8c0-4.416,3.584-8,8-8h128c4.416,0,8,3.584,8,8
			c0,4.416-3.584,8-8,8h-24v16H303.192z M296,368h-96v-16c0-8.528,2.344-16.712,6.576-24H224c9.608,0,18.128-4.336,24-11.056
			c5.872,6.72,14.392,11.056,24,11.056h17.424c4.232,7.288,6.576,15.472,6.576,24V368z M272,312c-8.824,0-16-7.176-16-16
			c0-8.824,7.176-16,16-16h112v2.128V304c0,4.416-3.584,8-8,8H272z M224,16h48c39.704,0,72,32.304,72,72v120.552
			c-0.16-0.024-0.32-0.056-0.48-0.072c-0.848-11.336-6.528-21.744-15.64-28.568l-6.24-4.656c4.088-9.608,6.36-20.168,6.36-31.256
			V84.16l-48-38.4l-5,4C250.624,69.256,220,80,188.776,80H168v64c0,11.312,2.392,22.056,6.64,31.816l-6.528,4.096
			c-9.104,6.824-14.784,17.232-15.624,28.56c-0.16,0.016-0.32,0.056-0.48,0.072V88H152C152,48.304,184.296,16,224,16z
			 M264.144,222.36c20.504-4.216,38.152-16.336,49.672-32.992l4.48,3.344c5.416,4.064,8.8,10.264,9.272,17.016
			c0.488,6.752-1.984,13.368-6.776,18.152c-3.152,3.152-7.104,5.32-11.44,6.288l-37.616,8.36c0.096-0.84,0.264-1.664,0.264-2.528
			C272,233,268.936,226.752,264.144,222.36z M248,208c-35.288,0-64-28.712-64-64V96h4.776c32.696,0,64.808-10.56,91.12-29.84
			L312,91.84V144C312,179.288,283.288,208,248,208z M256,240c0,3.064-1.784,5.648-4.32,6.992l-3.68,0.816l-3.68-0.816
			c-2.536-1.344-4.32-3.928-4.32-6.992c0-4.408,3.584-8,8-8S256,235.592,256,240z M224.256,242.528l-37.616-8.36
			c-4.336-0.968-8.288-3.136-11.44-6.28c-4.792-4.784-7.256-11.4-6.776-18.16c0.48-6.752,3.856-12.952,8.72-16.632l5.344-3.328
			c11.528,16.448,29.032,28.408,49.368,32.592C227.064,226.752,224,233,224,240C224,240.864,224.168,241.688,224.256,242.528z
			 M154.592,224.328c1.928,5.536,5.056,10.64,9.296,14.88c5.304,5.296,11.968,8.96,19.28,10.584l55.64,12.368
			c2.84,1.176,5.936,1.84,9.192,1.84c3.256,0,6.36-0.664,9.192-1.848l55.64-12.368c7.312-1.624,13.976-5.288,19.28-10.584
			c4.24-4.24,7.368-9.344,9.296-14.88c21.28,2.4,38.336,18.76,41.872,39.672H272c-9.608,0-18.128,4.336-24,11.056
			C242.128,268.336,233.608,264,224,264H112.72C116.256,243.08,133.312,226.728,154.592,224.328z M112,282.128V280h112
			c8.824,0,16,7.176,16,16c0,8.824-7.176,16-16,16H120c-4.416,0-8-3.584-8-8V282.128z M121.72,407.656
			c-42.088-3.488-72.784-40.936-84.952-58.536c26.096-8.288,46.552-28.376,59.336-44.104C96.648,317.768,107.112,328,120,328h13.92
			C127.888,354.216,123.808,380.848,121.72,407.656z M360,480H136v-30.032c0-41.032,4.864-82.024,14.344-121.968h38.504
			c-3.08,7.584-4.848,15.656-4.848,24v16c-13.232,0-24,10.768-24,24c0,10.576,6.92,19.472,16.432,22.664
			C179.744,442.4,203.384,464,232,464h32c28.616,0,52.256-21.6,55.568-49.336C329.08,411.472,336,402.576,336,392
			c0-13.232-10.768-24-24-24v-16c0-8.344-1.768-16.416-4.848-24h38.504C355.136,367.944,360,408.936,360,449.968V480z
			 M374.288,407.656c-2.096-26.808-6.168-53.44-12.208-79.656H376c12.888,0,23.352-10.232,23.896-22.984
			c12.792,15.72,33.248,35.816,59.352,44.112C447.112,366.728,416.48,404.176,374.288,407.656z"/>
	</g>
</g>
<g>
</g>
<g>
</g>
<g>
</g>
<g>
</g>
<g>
</g>
<g>
</g>
<g>
</g>
<g>
</g>
<g>
</g>
<g>
</g>
<g>
</g>
<g>
</g>
<g>
</g>
<g>
</g>
<g>
</g>
</svg>
