<?xml version="1.0" encoding="iso-8859-1"?>
<!-- Generator: Adobe Illustrator 19.0.0, SVG Export Plug-In . SVG Version: 6.00 Build 0)  -->
<svg version="1.1" id="Capa_1" xmlns="http://www.w3.org/2000/svg" xmlns:xlink="http://www.w3.org/1999/xlink" x="0px" y="0px"
	 viewBox="0 0 496 496" style="enable-background:new 0 0 496 496;" xml:space="preserve">
<path style="fill:#FFA64D;" d="M152,104c0,8.304,1.168,16.312,3.144,24h185.704c1.984-7.688,3.152-15.696,3.152-24
	s-1.168-16.312-3.144-24H155.144C153.168,87.688,152,95.696,152,104z"/>
<g>
	<rect x="288" y="96" style="fill:#333333;" width="16" height="16"/>
	<rect x="192" y="96" style="fill:#333333;" width="16" height="16"/>
	<path style="fill:#333333;" d="M369.464,164.12l-31.656-7.912c2.296-3.928,4.4-7.968,6.176-12.208H344v-0.064
		c5.136-12.304,8-25.792,8-39.936s-2.864-27.632-8-39.936V64h-0.024C328.272,26.456,291.176,0,248,0s-80.272,26.456-95.976,64H152
		v0.064c-5.136,12.304-8,25.792-8,39.936s2.864,27.632,8,39.936V144h0.024c1.536,3.664,3.296,7.2,5.224,10.64l-32.184,8.776
		C93.824,171.936,72,200.504,72,232.88V352h64v144h96V384c0-8.824,7.176-16,16-16s16,7.176,16,16v112h96V352h64V233.968
		C424,200.872,401.568,172.152,369.464,164.12z M326.288,64h-18.976l-32-32l8.368-8.368C302.08,31.832,317.128,46.144,326.288,64z
		 M264,43.312L284.688,64h-41.376L264,43.312z M266.656,18.032L240,44.688l-22.96-22.96C226.688,18.088,237.096,16,248,16
		C254.408,16,260.632,16.728,266.656,18.032z M201.88,29.192L228.688,56l-8,8h-50.976C177.072,49.664,188.24,37.64,201.88,29.192z
		 M163.408,128c-2.168-7.64-3.408-15.672-3.408-24s1.24-16.36,3.408-24h169.176C334.76,87.64,336,95.672,336,104
		s-1.24,16.36-3.408,24H224v16h102.288c-14.6,28.448-44.168,48-78.288,48s-63.688-19.552-78.288-48H208v-16H163.408z M88,275.312
		L112.688,300L88,324.688V275.312z M99.312,336L124,311.312l12,12V336H99.312z M152,339.312L176.688,364L152,388.688V344V339.312z
		 M187.312,480l9.728-9.728l-11.312-11.312L164.688,480H152v-68.688l36-36l28,28v25.376L196.488,448.2l11.312,11.312l8.2-8.2V480
		H187.312z M248,352c-16.616,0-30.152,12.776-31.696,28.992L152,316.688V248h-16v52.688l-48-48V232.88
		c0-16.576,7.448-31.76,19.4-42.168l24.008,24.008l11.312-11.312l-21.584-21.584c2.608-1.168,5.312-2.192,8.136-2.968l37.416-10.208
		c9.624,12.08,21.888,21.92,35.904,28.76l-0.24,0.24l109.84,109.84l11.312-11.312L295.312,268l58.512-58.512l-11.312-11.312
		L284,256.688l-49.696-49.696C238.8,207.584,243.344,208,248,208c32.184,0,60.992-14.704,80.088-37.736l33.872,8.464l-8.136,8.136
		l11.312,11.312l13.352-13.352c17.816,9.584,29.52,28.152,29.52,49.136v2.72l-48,48V248h-16v68.688L333.68,306.36l-11.312,11.312
		L344,339.312V344v60.688l-190.48-190.48l-11.312,11.312L320.688,404L280,444.688V384C280,366.352,265.648,352,248,352z M280,480
		v-12.688l52-52l12,12V480H280z M360,336v-28.688l48-48V336H360z"/>
</g>
<g>
</g>
<g>
</g>
<g>
</g>
<g>
</g>
<g>
</g>
<g>
</g>
<g>
</g>
<g>
</g>
<g>
</g>
<g>
</g>
<g>
</g>
<g>
</g>
<g>
</g>
<g>
</g>
<g>
</g>
</svg>
