<?xml version="1.0" encoding="iso-8859-1"?>
<!-- Generator: Adobe Illustrator 19.0.0, SVG Export Plug-In . SVG Version: 6.00 Build 0)  -->
<svg version="1.1" id="Layer_1" xmlns="http://www.w3.org/2000/svg" xmlns:xlink="http://www.w3.org/1999/xlink" x="0px" y="0px"
	 viewBox="0 0 512 512" style="enable-background:new 0 0 512 512;" xml:space="preserve">
<g>
	<g>
		<path d="M466.511,170.819c-0.762-4.376-4.926-7.3-9.301-6.541c-29.32,5.108-58.731,9.093-88.193,11.957
			c-9.004-39.971-6.404-77.049-2.562-101.339c0.693-4.385-2.299-8.504-6.685-9.198c-4.377-0.693-8.503,2.299-9.198,6.685
			c-2.47,15.614-3.718,31.038-3.786,46.213H313.59c-2.701-12.888-14.148-22.597-27.822-22.597H226.24
			c-13.68,0-25.132,9.709-27.834,22.597h-33.269c-0.151-31.893-5.494-64.663-15.894-96.376c70.895-8.189,142.615-8.188,213.511,0
			c-2.855,8.684-5.345,17.464-7.43,26.207c-1.03,4.319,1.636,8.655,5.955,9.685c4.32,1.033,8.655-1.636,9.685-5.956
			c2.711-11.365,6.141-22.799,10.199-33.982c0.833-2.297,0.576-4.849-0.698-6.934s-3.427-3.478-5.852-3.784
			c-78.705-9.943-158.52-9.943-237.224,0c-2.425,0.307-4.578,1.698-5.852,3.784c-1.275,2.085-1.531,4.636-0.698,6.934
			c19.031,52.473,23.306,108.473,12.138,158.058c-29.46-2.864-58.869-6.849-88.187-11.957c-4.373-0.768-8.538,2.167-9.301,6.541
			c-0.762,4.375,2.167,8.538,6.541,9.301c25.984,4.527,52.039,8.176,78.137,10.965l-30.349,75.112
			c-1.001,2.478-0.705,5.292,0.789,7.507c1.494,2.215,3.993,3.544,6.666,3.544h17.984l-14.682,96.879
			c-0.374,2.47,0.421,4.974,2.153,6.776c1.731,1.801,4.2,2.695,6.685,2.419l17.447-1.939l4.413,14.783
			c1.041,3.487,4.239,5.742,7.701,5.742c0.761,0,1.536-0.109,2.303-0.338c4.255-1.27,6.674-5.749,5.404-10.004l-6.333-21.216
			c-1.112-3.724-4.725-6.124-8.592-5.691l-13.713,1.524l14.51-95.77c0.351-2.317-0.326-4.67-1.853-6.447
			c-1.528-1.776-3.753-2.798-6.096-2.798h-15.414l27.649-68.43c4.706,0.436,9.413,0.844,14.121,1.223
			c-1.769,8.114-4.216,20.717-5.859,34.785c-3.854,32.985-1.334,57.032,7.49,71.474c5.057,8.276,12.094,13.466,20.918,15.427
			c9.016,2.003,17.397,2.812,25.058,2.812c15.373,0,27.835-3.257,36.631-6.642c6.968-2.681,14.641-2.681,21.606,0
			c13.18,5.072,34.58,9.855,61.688,3.83c8.824-1.961,15.861-7.151,20.918-15.427c8.823-14.442,11.345-38.489,7.491-71.474
			c-1.643-14.068-4.091-26.671-5.859-34.785c4.708-0.379,9.415-0.787,14.121-1.223l27.649,68.43h-15.414
			c-2.343,0-4.569,1.022-6.096,2.798c-1.528,1.776-2.205,4.13-1.853,6.447l14.509,95.77l-13.713-1.524
			c-3.865-0.431-7.48,1.967-8.592,5.691l-19.726,66.08h-32.599c-2.285,0-4.462,0.972-5.987,2.674l-47.34,52.814l-47.34-52.814
			c-1.525-1.701-3.703-2.674-5.987-2.674h-32.599l-6.403-21.447c-1.27-4.255-5.75-6.677-10.004-5.405
			c-4.255,1.27-6.675,5.749-5.405,10.004l8.116,27.188c1.016,3.407,4.15,5.74,7.704,5.74h34.999l50.93,56.818
			c1.525,1.701,3.703,2.674,5.987,2.674c2.285,0,4.462-0.972,5.987-2.674l50.931-56.818h34.998c3.554,0,6.687-2.334,7.704-5.739
			l19.52-65.388l17.447,1.939c2.477,0.276,4.953-0.619,6.684-2.419c1.731-1.802,2.527-4.306,2.153-6.776l-14.678-96.878h17.984
			c2.672,0,5.17-1.328,6.666-3.544c1.495-2.216,1.79-5.03,0.789-7.507l-30.349-75.112c26.098-2.789,52.152-6.438,78.136-10.965
			C464.345,179.358,467.273,175.193,466.511,170.819z M213.879,124.441L213.879,124.441c0-6.816,5.544-12.36,12.36-12.36h59.527
			c6.809,0,12.349,5.544,12.349,12.36v47.725c0,3.404-1.416,6.615-3.839,8.927c-25.513,0.838-51.039,0.838-76.553,0
			c-2.427-2.311-3.845-5.523-3.845-8.927V124.441z M159.132,177.68c3.014-13.943,4.886-28.342,5.634-43.003H197.8v37.487
			c0,2.796,0.419,5.535,1.202,8.148C185.705,179.662,172.415,178.786,159.132,177.68z M335.684,291.841
			c-2.768,4.528-6.163,7.104-10.682,8.109c-23.191,5.153-41.309,1.137-52.424-3.141c-10.691-4.114-22.467-4.114-33.157,0
			c-11.114,4.278-29.231,8.294-52.425,3.141c-4.52-1.005-7.913-3.582-10.681-8.109c-12.811-20.958-4.821-71.927,0.823-96.68
			c26.269,1.755,52.566,2.643,78.862,2.643c26.297,0,52.593-0.888,78.862-2.643C340.504,219.914,348.496,270.883,335.684,291.841z
			 M312.995,180.313c0.783-2.614,1.202-5.352,1.202-8.148v-37.487h32.961c0.764,14.623,2.675,28.977,5.72,43.002
			C339.591,178.786,326.295,179.662,312.995,180.313z"/>
	</g>
</g>
<g>
	<g>
		<path d="M206.153,230.618c-4.44,0-8.04,3.6-8.04,8.04V267.6c0,4.44,3.6,8.04,8.04,8.04s8.04-3.6,8.04-8.04v-28.943
			C214.193,234.218,210.593,230.618,206.153,230.618z"/>
	</g>
</g>
<g>
	<g>
		<path d="M305.843,230.618c-4.441,0-8.04,3.6-8.04,8.04V267.6c0,4.44,3.6,8.04,8.04,8.04c4.441,0,8.04-3.6,8.04-8.04v-28.943
			C313.883,234.218,310.284,230.618,305.843,230.618z"/>
	</g>
</g>
<g>
	<g>
		<path d="M292.951,332.619c-3.141-3.14-8.231-3.14-11.371,0c-14.104,14.105-37.057,14.106-51.163,0c-3.14-3.14-8.231-3.14-11.37,0
			c-3.14,3.14-3.14,8.231,0,11.369c10.187,10.187,23.57,15.281,36.951,15.281c13.382,0,26.763-5.093,36.951-15.281
			C296.091,340.849,296.091,335.758,292.951,332.619z"/>
	</g>
</g>
<g>
	<g>
		<path d="M277.176,123.789h-42.354c-4.44,0-8.04,3.6-8.04,8.04v32.95c0,4.44,3.6,8.04,8.04,8.04h42.354c4.441,0,8.04-3.6,8.04-8.04
			v-32.95C285.215,127.389,281.617,123.789,277.176,123.789z M269.136,156.739h-26.274v-16.87h26.274V156.739z"/>
	</g>
</g>
<g>
</g>
<g>
</g>
<g>
</g>
<g>
</g>
<g>
</g>
<g>
</g>
<g>
</g>
<g>
</g>
<g>
</g>
<g>
</g>
<g>
</g>
<g>
</g>
<g>
</g>
<g>
</g>
<g>
</g>
</svg>
