<?xml version="1.0" encoding="iso-8859-1"?>
<!-- Generator: Adobe Illustrator 19.0.0, SVG Export Plug-In . SVG Version: 6.00 Build 0)  -->
<svg version="1.1" id="Capa_1" xmlns="http://www.w3.org/2000/svg" xmlns:xlink="http://www.w3.org/1999/xlink" x="0px" y="0px"
	 viewBox="0 0 496 496" style="enable-background:new 0 0 496 496;" xml:space="preserve">
<g>
	<g>
		<g>
			<path d="M448.388,56c0-11.24-4.776-22.032-13.096-29.6c-8.312-7.56-19.608-11.304-30.808-10.216
				c-20.24,1.936-36.096,20.024-36.096,41.192V112c0,7.088,1.88,13.896,5.488,20c-3.608,6.104-5.488,12.912-5.488,20
				c0,8.528,2.824,16.864,8,23.792v17.704c-8.848-6.848-19.28-11.488-30.568-13.368l-18.128-3.024
				c0.416-2.992,0.696-6.024,0.696-9.104v-4.944L310.268,154c0.208-0.888,0.432-1.768,0.608-2.664
				c14.544-3.008,25.512-15.912,25.512-31.336v-16c0-57.344-46.656-104-104-104s-104,46.656-104,104v24
				c0,15.736,11.44,28.784,26.424,31.44l-18.424,12.28V176c0,0.408,0.048,0.808,0.056,1.216l-17.488,2.912
				c-17.44,2.904-32.888,12.296-43.504,26.44c-7.016,9.352-11.536,20.424-13.088,32.016L47.612,349.256l64.872,24.328
				c-3.744,26.096-8.736,52.016-15.136,77.616L86.14,496h292.496l-11.208-44.808c-6.4-25.592-11.392-51.512-15.136-77.616
				l24.096-9.032V464c0,17.648,14.352,32,32,32s32-14.352,32-32V175.792c5.176-6.928,8-15.264,8-23.792
				c0-7.088-1.88-13.896-5.488-20c3.608-6.104,5.488-12.912,5.488-20V56z M323.62,192.648l19.576,3.264
				c4.8,0.8,9.384,2.264,13.688,4.28l-16.496,16.496l-19.056-19.056C322.156,196,322.94,194.344,323.62,192.648z M329.076,228
				l-12.688,12.688L299.7,224l9.376-9.376c1.112-1.112,2.128-2.296,3.152-3.472L329.076,228z M305.076,252l-12.688,12.688L275.7,248
				l12.688-12.688L305.076,252z M312.388,133.776v-27.544c4.76,2.776,8,7.88,8,13.776S317.148,131,312.388,133.776z M144.388,128
				c0-5.896,3.24-11,8-13.776V136c0,2.008,0.152,3.968,0.304,5.936C147.764,139.208,144.388,134.016,144.388,128z M152.388,84.84
				v12.288c-2.776,0.72-5.384,1.816-7.816,3.216C146.508,53.528,185.1,16,232.388,16c44.424,0,81.168,33.12,87.072,75.944
				c-2.224-1.2-4.576-2.16-7.072-2.816V84.84c0-24.72-20.12-44.84-44.84-44.84c-8.88,0-17.488,2.608-24.872,7.528l-10.288,6.856
				l-10.28-6.856c-7.392-4.92-15.992-7.528-24.88-7.528C172.508,40,152.388,60.12,152.388,84.84z M258.972,136h-53.168
				c-6.584,0-12.416,3.952-15.032,10.552l-9.184,28.216c-8.248-10.776-13.2-24.192-13.2-38.768V84.84
				c0-15.904,12.936-28.84,28.84-28.84c5.712,0,11.24,1.672,16,4.84l19.16,12.776l19.16-12.768c4.752-3.176,10.288-4.848,16-4.848
				c15.904,0,28.84,12.936,28.84,28.84V136c0,14.584-4.96,28-13.2,38.768l-9.36-28.712C271.388,139.952,265.556,136,258.972,136z
				 M270.452,187.328c-10.656,7.92-23.8,12.672-38.064,12.672c-14.264,0-27.416-4.752-38.064-12.672L205.804,152l52.984-0.496
				L270.452,187.328z M161.964,173.904C175.492,198.944,201.98,216,232.388,216c32.232,0,60-19.2,72.656-46.728l7.112,3.552
				c-1.104,11.52-6.12,22.2-14.4,30.488l-57.368,57.376c-4.28,4.264-11.72,4.264-16,0l-63.032-63.032
				c-4.808-4.808-7.824-10.928-8.696-17.552L161.964,173.904z M189.076,248l-16.688,16.688L159.7,252l16.688-16.688L189.076,248z
				 M165.076,224l-16.688,16.688L135.7,228l16.688-16.688L165.076,224z M121.58,195.912l17.992-3
				c0.784,2.008,1.696,3.952,2.752,5.832l-17.936,17.944l-16.496-16.496C112.196,198.176,116.788,196.712,121.58,195.912z
				 M192.388,480h-85.752l6.232-24.928c15.608-62.432,23.52-126.72,23.52-191.072h-16c0,31.192-1.912,62.376-5.68,93.32
				l-49.544-18.584l13.072-98.04c1.184-8.88,4.648-17.368,10.024-24.528c1.864-2.48,3.936-4.744,6.16-6.832l97.968,97.976V480z
				 M183.7,276l16.688-16.688L213.076,272l-16.688,16.688L183.7,276z M256.388,480h-33.576l6.016-4.008l-8.88-13.312l-11.56,7.704
				v-59.072l35.448,35.448l-14.416,9.608l8.872,13.312l18.096-12.064V480z M256.388,436.688L220.94,401.24l35.448-23.632V436.688z
				 M256.388,356.688l-16.624-16.624l-11.312,11.312l15.384,15.384l-35.448,23.632V331.32l10.328,10.328l11.312-11.312l-2.616-2.616
				c1.648,0.168,3.312,0.28,4.976,0.28c8.472,0,16.784-2.416,24-6.736V356.688z M254.044,303.032
				c-5.704,5.704-13.592,8.968-21.656,8.968c-8.064,0-15.952-3.264-21.656-8.968L207.7,300l20.416-20.416
				c1.408,0.216,2.824,0.416,4.272,0.416s2.864-0.2,4.272-0.416L257.076,300L254.044,303.032z M251.7,272l12.688-12.688L281.076,276
				l-12.688,12.688L251.7,272z M376.388,347.448l-26.32,9.872c-3.768-30.944-5.68-62.128-5.68-93.32h-16
				c0,64.352,7.912,128.64,23.52,191.072L358.14,480h-85.752V307.312l97.976-97.976c2.176,2.04,4.2,4.248,6.024,6.664V347.448z
				 M424.388,464c0,8.824-7.176,16-16,16c-8.824,0-16-7.176-16-16V212.128l0.496-0.304c-0.152-0.248-0.344-0.488-0.496-0.736V184h32
				V464z M426.364,167.696L426.1,168h-35.424l-0.264-0.304c-2.752-3.136-6.024-8.416-6.024-15.696c0-5.4,1.872-10.576,5.432-14.976
				l0.824-1.024h35.48l0.832,1.024c3.56,4.4,5.432,9.576,5.432,14.976C432.388,159.28,429.116,164.56,426.364,167.696z M432.388,112
				c0,2.752-0.496,5.44-1.448,8h-45.112c-0.944-2.56-1.44-5.248-1.44-8V57.376c0-13.008,9.504-24.104,21.616-25.264
				c0.808-0.08,1.6-0.112,2.4-0.112c6,0,11.656,2.168,16.128,6.24c4.992,4.536,7.856,11.016,7.856,17.76V112z"/>
			<rect x="216.388" y="168" width="32" height="16"/>
			<rect x="184.388" y="96" width="16" height="16"/>
			<rect x="264.388" y="96" width="16" height="16"/>
		</g>
	</g>
</g>
<g>
</g>
<g>
</g>
<g>
</g>
<g>
</g>
<g>
</g>
<g>
</g>
<g>
</g>
<g>
</g>
<g>
</g>
<g>
</g>
<g>
</g>
<g>
</g>
<g>
</g>
<g>
</g>
<g>
</g>
</svg>
