<?xml version="1.0" encoding="iso-8859-1"?>
<!-- Generator: Adobe Illustrator 19.0.0, SVG Export Plug-In . SVG Version: 6.00 Build 0)  -->
<svg version="1.1" id="Capa_1" xmlns="http://www.w3.org/2000/svg" xmlns:xlink="http://www.w3.org/1999/xlink" x="0px" y="0px"
	 viewBox="0 0 496 496" style="enable-background:new 0 0 496 496;" xml:space="preserve">
<path style="fill:#FFA64D;" d="M369.64,198.48c-7.424-5.296-15.992-8.928-25.144-10.456L320.384,184h-2.368
	c-2.672,9.344-7.608,17.976-14.608,24.968l-57.376,57.376c-3.616,3.624-8.528,5.656-13.648,5.656s-10.032-2.032-13.656-5.656
	l-63.032-63.032c-5.328-5.328-8.896-12.056-10.432-19.312h-0.88l-24.112,4.016c-9.208,1.536-17.816,5.2-25.272,10.544
	c0.472,0.48,0.896,0.944,1.384,1.44l104,104v184h64V304l104-104C368.84,199.464,369.2,199,369.64,198.48z"/>
<g>
	<path style="fill:#333333;" d="M448.384,56c0-11.24-4.776-22.032-13.096-29.6s-19.536-11.28-30.816-10.216
		c-20.232,1.936-36.088,20.024-36.088,41.192V112c0,7.08,1.88,13.896,5.488,20c-3.608,6.104-5.488,12.92-5.488,20
		c0,8.52,2.824,16.856,8,23.784v17.712c-8.848-6.848-19.28-11.48-30.568-13.368l-18.128-3.024c0.408-2.992,0.696-6.024,0.696-9.104
		v-4.944L310.264,154c0.208-0.888,0.432-1.768,0.608-2.664c14.544-3.008,25.512-15.912,25.512-31.336v-16
		c0-57.344-46.656-104-104-104s-104,46.656-104,104v24c0,15.736,11.44,28.784,26.424,31.44l-18.424,12.28V176
		c0,0.408,0.048,0.808,0.056,1.216l-17.488,2.912c-17.44,2.904-32.888,12.296-43.496,26.44c-7.016,9.36-11.544,20.432-13.088,32.016
		L47.616,349.256l64.864,24.328c-3.744,26.096-8.744,52.024-15.136,77.608L86.136,496h292.496l-11.2-44.808
		c-6.4-25.592-11.4-51.512-15.136-77.608l24.088-9.04V464c0,17.648,14.352,32,32,32s32-14.352,32-32V175.784
		c5.176-6.928,8-15.264,8-23.784c0-7.088-1.88-13.896-5.488-20c3.608-6.104,5.488-12.912,5.488-20V56z M343.184,195.912
		c4.8,0.8,9.392,2.264,13.696,4.288l-16.496,16.488l-19.056-19.056c0.824-1.632,1.608-3.288,2.288-4.976L343.184,195.912z
		 M152.384,211.312L165.072,224l-16.688,16.688L135.696,228L152.384,211.312z M176.384,235.312L189.072,248l-16.688,16.688
		L159.696,252L176.384,235.312z M200.384,259.312L213.072,272l-16.688,16.688L183.696,276L200.384,259.312z M236.656,279.584
		L257.072,300l-3.032,3.032c-11.568,11.568-31.744,11.568-43.312,0L207.696,300l20.416-20.416c1.408,0.216,2.824,0.416,4.272,0.416
		S235.248,279.8,236.656,279.584z M256.384,436.68l-35.44-35.44l35.44-23.624V436.68z M243.824,366.76l-35.44,23.624v-59.072
		l10.328,10.328l11.312-11.312l-2.6-2.6c1.64,0.168,3.288,0.272,4.96,0.272c8.6,0,16.824-2.36,24-6.696v35.384l-16.624-16.624
		l-11.312,11.312L243.824,366.76z M219.944,462.672l-11.56,7.712v-59.072l35.44,35.44l-14.416,9.608l8.872,13.312l18.104-12.056V480
		h-33.576l6.016-4.008L219.944,462.672z M268.384,288.688L251.696,272l12.688-12.688L281.072,276L268.384,288.688z M292.384,264.688
		L275.696,248l12.688-12.688L305.072,252L292.384,264.688z M316.384,240.688L299.696,224l9.376-9.376
		c1.112-1.112,2.128-2.296,3.152-3.472L329.072,228L316.384,240.688z M312.384,133.776v-27.552c4.76,2.776,8,7.88,8,13.776
		C320.384,125.896,317.144,131,312.384,133.776z M232.384,16c44.424,0,81.168,33.12,87.072,75.952
		c-2.224-1.2-4.576-2.16-7.072-2.816V84.84c0-24.72-20.12-44.84-44.84-44.84c-8.888,0-17.488,2.608-24.872,7.528l-10.288,6.856
		l-10.28-6.856C214.72,42.608,206.112,40,197.224,40c-24.72,0-44.84,20.12-44.84,44.84v12.296c-2.776,0.72-5.384,1.816-7.816,3.216
		C146.504,53.528,185.096,16,232.384,16z M283.184,174.776l-9.36-28.72c-2.44-6.112-8.272-10.056-14.856-10.056H205.8
		c-6.584,0-12.416,3.944-15.032,10.552l-9.184,28.216c-8.24-10.776-13.2-24.184-13.2-38.768V84.84
		c0-15.904,12.936-28.84,28.84-28.84c5.712,0,11.248,1.672,16,4.84l19.16,12.776l19.16-12.768c4.752-3.176,10.28-4.848,16-4.848
		c15.904,0,28.84,12.936,28.84,28.84V136C296.384,150.584,291.424,164,283.184,174.776z M270.448,187.328
		C259.8,195.248,246.648,200,232.384,200s-27.416-4.752-38.072-12.672L205.8,152l52.992-0.496L270.448,187.328z M144.384,128
		c0-5.896,3.24-11,8-13.776V136c0,2.008,0.152,3.968,0.304,5.936C147.76,139.208,144.384,134.016,144.384,128z M161.952,173.896
		C175.488,198.944,201.976,216,232.384,216c32.232,0,60-19.2,72.656-46.728l7.112,3.552c-1.096,11.512-6.112,22.2-14.392,30.488
		l-57.376,57.376c-4.208,4.208-11.792,4.208-16,0l-63.032-63.032c-4.808-4.808-7.816-10.928-8.696-17.552L161.952,173.896z
		 M121.584,195.912l17.984-3c0.776,2.008,1.696,3.952,2.752,5.832l-17.936,17.944l-16.496-16.496
		C112.192,198.176,116.784,196.712,121.584,195.912z M112.864,455.072c15.608-62.432,23.52-126.72,23.52-191.072h-16
		c0,31.192-1.912,62.376-5.68,93.32L65.16,338.744l13.072-98.04c1.184-8.88,4.656-17.36,10.024-24.528
		c1.864-2.48,3.936-4.744,6.16-6.832l97.968,97.968V480h-85.752L112.864,455.072z M350.064,357.32
		c-3.768-30.944-5.68-62.128-5.68-93.32h-16c0,64.352,7.912,128.64,23.52,191.072L358.136,480h-85.752V307.312l97.968-97.968
		c2.176,2.04,4.2,4.256,6.032,6.672v131.432L350.064,357.32z M408.384,480c-8.824,0-16-7.176-16-16V212.104l0.488-0.304
		c-0.152-0.248-0.336-0.472-0.488-0.72V184h32v280C424.384,472.824,417.208,480,408.384,480z M426.36,167.704L426.104,168h-35.432
		l-0.256-0.296c-2.752-3.152-6.032-8.424-6.032-15.704c0-5.4,1.88-10.576,5.432-14.976L390.64,136h35.488l0.832,1.024
		c3.552,4.4,5.424,9.576,5.424,14.976C432.384,159.28,429.104,164.552,426.36,167.704z M432.384,112c0,2.752-0.496,5.44-1.448,8
		h-45.112c-0.944-2.56-1.44-5.248-1.44-8V57.376c0-13.008,9.496-24.104,21.616-25.264c0.8-0.08,1.6-0.112,2.392-0.112
		c6,0,11.664,2.168,16.136,6.24c4.992,4.544,7.856,11.016,7.856,17.76V112z"/>
	<rect x="216.384" y="168" style="fill:#333333;" width="32" height="16"/>
	<rect x="184.384" y="96" style="fill:#333333;" width="16" height="16"/>
	<rect x="264.384" y="96" style="fill:#333333;" width="16" height="16"/>
</g>
<g>
</g>
<g>
</g>
<g>
</g>
<g>
</g>
<g>
</g>
<g>
</g>
<g>
</g>
<g>
</g>
<g>
</g>
<g>
</g>
<g>
</g>
<g>
</g>
<g>
</g>
<g>
</g>
<g>
</g>
</svg>
