<?xml version="1.0" encoding="iso-8859-1"?>
<!-- Generator: Adobe Illustrator 19.0.0, SVG Export Plug-In . SVG Version: 6.00 Build 0)  -->
<svg version="1.1" id="Capa_1" xmlns="http://www.w3.org/2000/svg" xmlns:xlink="http://www.w3.org/1999/xlink" x="0px" y="0px"
	 viewBox="0 0 496 496" style="enable-background:new 0 0 496 496;" xml:space="preserve">
<g>
	<g>
		<g>
			<rect x="280" y="160" width="16" height="16"/>
			<rect x="200" y="160" width="16" height="16"/>
			<rect x="240" y="192" width="16" height="16"/>
			<path d="M477.064,382.248l-9.096-5.192c-36.384-20.8-68.832-47.328-96.416-78.856l-1.136-1.296l0.896-0.904H392v-8
				c0-28.2-16.336-52.6-40.008-64.408C372.696,199.136,384,168.576,384,136c0-20.016-4.296-39.296-12.776-57.4L441.96,0H248
				c-74.992,0-136,61.008-136,136c0,32.576,11.296,63.136,32.008,87.592C120.336,235.4,104,259.8,104,288v8h20.688l0.896,0.896
				l-1.136,1.296c-27.584,31.528-60.032,58.064-96.416,78.856l-9.096,5.192l16.784,16.784c14.304,14.304,32.8,22.856,52.72,24.6
				c-0.272,3.52-0.44,7.048-0.44,10.576V496h320v-61.8c0-3.536-0.168-7.056-0.432-10.568c19.912-1.744,38.416-10.296,52.72-24.6
				L477.064,382.248z M375.432,280H288c-4.416,0-8-3.584-8-8v-29.6c7.44-2.64,14.48-6.104,20.952-10.4H320
				C348.168,232,371.536,252.896,375.432,280z M248,232c-44.112,0-80-35.888-80-80c0-2.632,0.144-5.28,0.44-8h21.624
				c21.448,0,41.744-7.456,57.936-21.144C264.192,136.544,284.496,144,305.936,144h21.624c0.296,2.72,0.44,5.368,0.44,8
				C328,196.112,292.112,232,248,232z M264,246.552V264h-40v-19.16c7.688,1.992,15.696,3.16,24,3.16
				C253.464,248,258.784,247.432,264,246.552z M222.528,280h42.952c3.312,9.288,12.112,16,22.528,16h12.688l-37.376,37.376
				c-1.272,1.272-2.36,2.704-3.328,4.208c-7.848-2.008-16.128-2.008-23.976,0c-0.96-1.512-2.048-2.936-3.328-4.208L195.312,296H200
				C210.416,296,219.216,289.288,222.528,280z M221.376,344.688c1.672,1.672,2.624,3.984,2.624,6.344
				c0,4.944-4.024,8.968-8.968,8.968c-2.36,0-4.672-0.952-6.344-2.624l-61.208-61.208l0.152-0.168h25.056L221.376,344.688z M216,392
				v-8c0-2.824,0.488-5.544,1.2-8.216c12.008-1.056,21.52-10.56,22.584-22.568c5.384-1.424,11.048-1.424,16.44,0
				c1.064,12.008,10.576,21.512,22.584,22.568c0.704,2.664,1.192,5.392,1.192,8.216v8H216z M280,408c0,17.648-14.352,32-32,32
				s-32-14.352-32-32H280z M272,351.032c0-2.36,0.952-4.672,2.624-6.344L323.312,296h25.056l0.152,0.168l-61.208,61.208
				c-1.672,1.672-3.984,2.624-6.344,2.624C276.024,360,272,355.976,272,351.032z M128,136c0-66.168,53.832-120,120-120h158.04
				l-54.032,60.032l2.544,4.912C363.48,98.192,368,116.712,368,136c0,30.792-11.52,59.488-32.36,81.76
				C330.6,216.64,325.376,216,320,216h-0.648C334.624,198.992,344,176.6,344,152c0-5.664-0.536-11.376-1.656-17.448l-1.2-6.552
				h-35.2c-19.752,0-38.312-7.688-52.28-21.656L248,100.688l-5.656,5.656C228.376,120.312,209.816,128,190.064,128h-35.2l-1.2,6.552
				C152.536,140.624,152,146.336,152,152c0,24.6,9.376,46.992,24.648,64H176c-5.376,0-10.6,0.64-15.64,1.76
				C139.512,195.496,128,166.792,128,136z M120.568,280c3.896-27.104,27.264-48,55.432-48h19.048c4.096,2.72,8.448,5.08,12.952,7.16
				V272c0,4.416-3.584,8-8,8H120.568z M90.616,407.744c-16.464-1.264-31.784-8.224-43.584-20.024l-2.072-2.072
				c34.304-20.832,65.056-46.664,91.528-76.92l0.432-0.488l11.224,11.224l-10.512,8.76c-21.368,17.816-36.696,41.352-44.328,68.08
				C92.224,400.08,91.368,403.904,90.616,407.744z M392,480L392,480H104v-45.8c0-11.344,1.576-22.616,4.696-33.504
				c6.744-23.624,20.296-44.44,39.184-60.176l11.632-9.688l37.864,37.864c1.272,1.272,2.696,2.36,4.2,3.32
				C200.568,375.904,200,379.904,200,384v8v8v8c0,26.472,21.528,48,48,48s48-21.528,48-48v-8v-8v-8
				c0-4.096-0.568-8.096-1.576-11.992c1.504-0.96,2.928-2.048,4.2-3.32l37.864-37.864l11.632,9.688
				c18.888,15.744,32.448,36.552,39.184,60.184c3.12,10.88,4.696,22.16,4.696,33.504V480z M448.968,387.72
				c-11.8,11.8-27.12,18.76-43.592,20.016c-0.752-3.84-1.608-7.664-2.688-11.432c-7.632-26.736-22.96-50.272-44.328-68.088
				l-10.512-8.76l11.224-11.224l0.432,0.488c26.48,30.256,57.224,56.096,91.528,76.92L448.968,387.72z"/>
			<rect x="304" y="32" width="16" height="16"/>
			<path d="M248,48h40V32h-40c-37.008,0-71.52,19.92-90.08,51.992l13.84,8.016C187.472,64.864,216.68,48,248,48z"/>
		</g>
	</g>
</g>
<g>
</g>
<g>
</g>
<g>
</g>
<g>
</g>
<g>
</g>
<g>
</g>
<g>
</g>
<g>
</g>
<g>
</g>
<g>
</g>
<g>
</g>
<g>
</g>
<g>
</g>
<g>
</g>
<g>
</g>
</svg>
