<?xml version="1.0" encoding="iso-8859-1"?>
<!-- Generator: Adobe Illustrator 19.0.0, SVG Export Plug-In . SVG Version: 6.00 Build 0)  -->
<svg version="1.1" id="Capa_1" xmlns="http://www.w3.org/2000/svg" xmlns:xlink="http://www.w3.org/1999/xlink" x="0px" y="0px"
	 viewBox="0 0 501.928 501.928" style="enable-background:new 0 0 501.928 501.928;" xml:space="preserve">
<g>
	<g>
		<g>
			<path d="M386.968,197.928c0-17.648-14.352-32-32-32v-32c0-36.848-17.944-70.696-48-91.688V0l-34.792,20.296L250.968,3.792
				L229.76,20.288L194.968,0v42.232c-30.064,20.992-48.008,54.84-48.008,91.696v32c-17.648,0-32,14.352-32,32
				c0,15.456,11.016,28.384,25.608,31.352c-6.24,9.792-9.6,21.024-9.6,32.648c0,12.048,3.536,23.72,10.216,33.752l5.784,8.672
				v49.576c0,15.44,12.56,28,28,28c4.312,0,8.352-1.064,12-2.808v18.808h8v104h48h16h48v-104h8V379.12
				c3.648,1.744,7.688,2.808,12,2.808c15.44,0,28-12.56,28-28v-49.576l5.784-8.672c6.68-10.032,10.216-21.704,10.216-33.752
				c0-11.624-3.36-22.864-9.592-32.648C375.96,226.304,386.968,213.376,386.968,197.928z M210.968,27.856L231.04,39.56
				l19.928-15.496l19.928,15.504l20.072-11.712v26.072h-80V27.856z M186.968,349.928v4c0,6.616-5.384,12-12,12
				c-6.616,0-12-5.384-12-12v-44h24V349.928z M242.968,485.928h-32v-88h32V485.928z M290.968,485.928h-32v-88h32V485.928z
				 M298.968,381.928h-40h-16h-40v-24h24h48h24V381.928z M202.968,341.928v-16h24v16H202.968z M242.968,341.928v-16h16v16H242.968z
				 M298.968,341.928h-24v-16h24V341.928z M338.968,353.928c0,6.616-5.384,12-12,12c-6.616,0-12-5.384-12-12v-4v-40h24V353.928z
				 M347.44,286.8l-4.752,7.128h-27.72v-16h-16v32h-24h-48h-24v-32h-16v16h-27.72l-4.752-7.128
				c-4.92-7.384-7.528-15.992-7.528-24.872s2.608-17.488,7.528-24.872l4.752-7.128h52.528c3.72,18.232,19.872,32,39.192,32
				s35.472-13.768,39.192-32h52.528l4.752,7.128c4.92,7.384,7.528,15.992,7.528,24.872S352.36,279.416,347.44,286.8z
				 M250.968,213.928c-30.88,0-56-25.12-56-56v-32h35.312l20.688-20.688l20.688,20.688h35.312v32
				C306.968,188.808,281.848,213.928,250.968,213.928z M274.568,225.872c-1.896,11.352-11.72,20.056-23.6,20.056
				c-11.88,0-21.704-8.704-23.6-20.056c7.408,2.584,15.328,4.056,23.6,4.056C259.24,229.928,267.16,228.456,274.568,225.872z
				 M354.968,213.928H296.12c16.352-13.208,26.848-33.392,26.848-56v-32c0-8.824-7.176-16-16-16H278.28l-27.312-27.312
				l-27.312,27.312h-28.688c-8.824,0-16,7.176-16,16v32c0,22.608,10.496,42.792,26.848,56H146.96c-8.824,0-16-7.176-16-16
				c0-8.824,7.176-16,16-16h16v-48c0-27.648,11.808-53.32,32.008-71.384v7.384h112v-7.376c20.192,18.064,32,43.728,32,71.376v48h16
				c8.824,0,16,7.176,16,16C370.968,206.752,363.792,213.928,354.968,213.928z"/>
			<rect x="298.968" y="245.928" width="16" height="16"/>
			<rect x="186.968" y="245.928" width="16" height="16"/>
			<rect x="274.968" y="141.928" width="16" height="16"/>
			<rect x="210.968" y="141.928" width="16" height="16"/>
			<rect x="242.968" y="181.928" width="16" height="16"/>
		</g>
	</g>
</g>
<g>
</g>
<g>
</g>
<g>
</g>
<g>
</g>
<g>
</g>
<g>
</g>
<g>
</g>
<g>
</g>
<g>
</g>
<g>
</g>
<g>
</g>
<g>
</g>
<g>
</g>
<g>
</g>
<g>
</g>
</svg>
