<?xml version="1.0" encoding="iso-8859-1"?>
<!-- Generator: Adobe Illustrator 19.0.0, SVG Export Plug-In . SVG Version: 6.00 Build 0)  -->
<svg version="1.1" id="Capa_1" xmlns="http://www.w3.org/2000/svg" xmlns:xlink="http://www.w3.org/1999/xlink" x="0px" y="0px"
	 viewBox="0 0 490.24 490.24" style="enable-background:new 0 0 490.24 490.24;" xml:space="preserve">
<g>
	<g>
		<g>
			<rect x="293.144" y="186.24" width="16" height="16"/>
			<rect x="181.144" y="186.24" width="16" height="16"/>
			<path d="M244.664,90.24c13.232,0,24-10.768,24-24s-10.768-24-24-24s-24,10.768-24,24S231.432,90.24,244.664,90.24z
				 M244.664,58.24c4.416,0,8,3.584,8,8s-3.584,8-8,8c-4.416,0-8-3.584-8-8S240.248,58.24,244.664,58.24z"/>
			<rect x="308.664" y="66.24" width="16" height="16"/>
			<rect x="172.664" y="66.24" width="16" height="16"/>
			<path d="M444.664,410.24c0-39.704-32.296-72-72-72c-6.096,0-12.184,0.792-18.144,2.336c-0.408-0.12-0.784-0.2-1.184-0.312
				c1.24-2.48,2.128-4.816,2.744-6.92c10.24-4.744,17.544-12.48,22.592-21.224c7.216,6.368,16.576,10.12,26.448,10.12
				c30.872,0,56-25.128,56-56c0-28.168-20.896-51.536-48-55.432v-27.752c0-41.68-18.192-80.808-49.848-107.792l11.4-68.376
				l-88.288,26.488L244.664,0l-41.72,33.376l-88.28-26.488l11.512,69.056c-31.16,26.952-49.056,65.848-49.056,107.12v27.752
				c-27.104,3.888-48,27.264-48,55.432c0,30.872,25.128,56,56,56c9.6,0,18.712-3.544,25.848-9.6
				c5.032,8.528,12.248,16.048,22.288,20.696c0.608,2.112,1.504,4.448,2.744,6.92c-0.4,0.112-0.784,0.192-1.184,0.312
				c-5.968-1.544-12.056-2.336-18.152-2.336c-39.704,0-72,32.296-72,72c0,13.248,3.6,26.08,10.456,37.336L41.784,490.24h405.76
				l-13.336-42.664C441.064,436.32,444.664,423.488,444.664,410.24z M356.656,114.88l3.456-20.752
				c23.592,23.496,37.008,55.264,37.008,88.936v43.176h8c22.056,0,40,17.944,40,40c0,22.056-17.944,40-40,40
				c-7.888,0-15.152-4.04-19.616-10.464c2.224-7.816,3.16-15.432,3.16-21.536c0-3.664-2.512-6.808-6.072-7.704
				c-3.592-0.864-7.296,0.8-9.032,4.024c-0.256,0.48-6.504,11.68-24.896,11.68c-2.088,0-4.016-0.432-5.864-1.28
				c5.376-9.664,9.24-20.184,11.496-31.248c19.592-2.576,34.816-19.2,34.816-39.48c0-19.472-14-35.696-32.456-39.24V114.88z
				 M356.664,226.24v-38.664c9.528,3.184,16.456,12.088,16.456,22.664c0,10.664-7.04,19.624-16.68,22.736
				C356.56,230.744,356.664,228.504,356.664,226.24z M206.384,51.104l38.28-30.624l38.28,30.624l71.72-21.512l-12.776,76.648H147.44
				l-12.776-76.648L206.384,51.104z M324.664,154.144c0-4.36,3.544-7.904,7.904-7.904c2.136,0,4.136,0.832,5.632,2.352
				c1.496,1.512,2.304,3.512,2.28,5.64c-0.096,8.832-7.36,16.008-16.184,16.008c-18.528,0-36.576-6.528-50.816-18.4l-28.816-24.016
				L215.84,151.84c-14.232,11.864-32.28,18.4-50.816,18.4c-8.824,0-16.088-7.176-16.184-16.008c-0.024-2.128,0.792-4.128,2.28-5.64
				c1.504-1.52,3.504-2.352,5.64-2.352c4.36,0,7.904,3.544,7.904,8l16-0.096c0-13.176-10.728-23.904-23.904-23.904
				c-2.816,0-5.52,0.568-8.096,1.488v-9.488h192v9.488c-2.568-0.92-5.28-1.488-8.096-1.488c-13.176,0-23.904,10.728-23.904,23.904
				v0.096L324.664,154.144z M340.664,181.592v44.648c0,15.536-3.488,30.368-10.048,43.488c-1.64-2.064-3.36-4.296-5.248-6.816
				c-14.144-18.848-33.504-44.672-80.704-44.672s-66.56,25.824-80.704,44.672c-1.704,2.272-3.256,4.288-4.752,6.184
				c-6.888-13.544-10.544-28.168-10.544-42.856v-44.648c4.824,2.888,10.384,4.648,16.368,4.648c22.272,0,43.952-7.848,61.064-22.104
				l18.568-15.48l18.568,15.488c17.112,14.248,38.792,22.096,61.064,22.096C330.28,186.24,335.84,184.48,340.664,181.592z
				 M132.904,232.696c-9.184-3.368-15.784-12.12-15.784-22.456c0-10.248,6.488-18.952,15.544-22.384v38.384
				C132.664,228.392,132.776,230.552,132.904,232.696z M115.824,270.664c-1.656-3.32-5.408-5.04-8.992-4.208
				c-3.616,0.856-6.168,4.072-6.168,7.784c0,6.328,1.008,14.272,3.408,22.384c-4.512,5.904-11.432,9.616-18.952,9.616
				c-22.056,0-40-17.944-40-40c0-22.056,17.944-40,40-40h8v-43.176c0-33.248,13.12-64.728,36.216-88.152l3.328,19.968v56.296
				c-18,3.896-31.544,19.912-31.544,39.064c0,20.048,14.872,36.544,34.144,39.408c2.384,10.688,6.408,21.096,11.928,30.936
				c-2.056,1.056-4.184,1.656-6.528,1.656C122.272,282.24,116.024,271.04,115.824,270.664z M120.104,294.184
				c5.416,2.384,12.2,4.056,20.56,4.056c16.8,0,26.168-12.496,36.096-25.728c13.448-17.936,28.704-38.272,67.904-38.272
				s54.456,20.336,67.904,38.272c9.928,13.232,19.296,25.728,36.096,25.728c8.36,0,15.136-1.672,20.552-4.056
				c-4.352,13.2-14.216,28.056-36.552,28.056c-22.4,0-23.92-13.424-24-16.112l-8,0.112h-8c0,11.072,8.36,32,40,32
				c1.144,0,2.168-0.144,3.272-0.2c-5.296,7.368-15.688,16.2-35.272,16.2c-25.192,0-31.968-24.912-32.24-25.936l-15.512,3.872
				c2.176,8.72,9.2,22.568,22.464,30.936c-3.248,5.344-11.752,15.128-30.712,15.128c-18.904,0-27.424-9.784-30.688-15.136
				c13.248-8.368,20.264-22.2,22.448-30.92l-15.504-3.912c-0.288,1.056-7.064,25.968-32.256,25.968
				c-19.608,0-29.992-8.824-35.28-16.2c1.104,0.056,2.136,0.2,3.28,0.2c31.64,0,40-20.928,40-32h-16c0,0.656-0.272,16-24,16
				C134.32,322.24,124.464,307.384,120.104,294.184z M205.952,378.792c-18.192,7.728-37,14.128-56.136,18.92l-12.04,3.008
				l2.816-45.096c1.952-0.544,3.856-1.008,5.704-1.392c8.96,8.744,22.632,16.008,42.368,16.008c3.704,0,7.168-0.384,10.4-1.064
				C200.448,371.792,202.664,375.248,205.952,378.792z M63.544,474.24l4.024-12.864l34.304,12.864H63.544z M117.84,463.136
				l-45.496-17.064l0.312-1.008l-2.192-3.2c-6.408-9.352-9.8-20.288-9.8-31.624c0-30.872,25.128-56,56-56
				c2.656,0,5.312,0.2,7.944,0.584L117.84,463.136z M195.176,474.24c48.12-15.096,93.504-37.184,135.208-66.16l-9.128-13.136
				c-50.144,34.832-105.696,59.576-165.112,73.544l-22.944,5.4l3.528-56.424l16.96-4.24c23.104-5.768,45.768-13.744,67.464-23.608
				c6.248,2.768,13.976,4.624,23.512,4.624c28.848,0,41.256-16.84,45.6-25.064c3.232,0.68,6.696,1.064,10.4,1.064
				c19.736,0,33.408-7.264,42.368-16.008c1.848,0.376,3.752,0.84,5.704,1.392l1.112,17.792c-6.04,4.888-12.248,9.744-18.576,14.384
				l9.472,12.904c3.512-2.576,6.864-5.328,10.312-7.992l5.096,81.528H195.176z M387.456,474.24l34.304-12.864l4.024,12.864H387.456z
				 M418.856,441.864l-2.192,3.2l0.312,1.008l-45.496,17.064l-6.768-108.312c2.64-0.384,5.296-0.584,7.952-0.584
				c30.872,0,56,25.128,56,56C428.664,421.576,425.272,432.512,418.856,441.864z"/>
			<path d="M244.664,298.24c37.336,0,47.184-28.264,47.584-29.472l-15.168-5.064c-0.064,0.192-6.48,18.536-32.416,18.536
				c-25.504,0-32.168-17.84-32.44-18.608l-15.152,5.144C197.48,269.976,207.328,298.24,244.664,298.24z"/>
		</g>
	</g>
</g>
<g>
</g>
<g>
</g>
<g>
</g>
<g>
</g>
<g>
</g>
<g>
</g>
<g>
</g>
<g>
</g>
<g>
</g>
<g>
</g>
<g>
</g>
<g>
</g>
<g>
</g>
<g>
</g>
<g>
</g>
</svg>
