<?xml version="1.0" encoding="iso-8859-1"?>
<!-- Generator: Adobe Illustrator 19.0.0, SVG Export Plug-In . SVG Version: 6.00 Build 0)  -->
<svg version="1.1" id="Capa_1" xmlns="http://www.w3.org/2000/svg" xmlns:xlink="http://www.w3.org/1999/xlink" x="0px" y="0px"
	 viewBox="0 0 496 496" style="enable-background:new 0 0 496 496;" xml:space="preserve">
<g>
	<g>
		<g>
			<path d="M414.648,80c-19.488,0-38.744,3.272-57.032,9.52C347.096,38.352,301.464,0,248,0c-53.848,0-99.056,37.36-109.624,89.52
				C120.088,83.272,100.84,80,81.352,80H64l29.376,39.168c2.392,3.184,4.344,6.664,5.816,10.336
				C108.536,152.888,130.848,168,156.04,168h10.072c3.976,10.128,9.768,19.32,16.984,27.224l-12.424,2.488
				c-9.176,1.832-17.976,5.776-25.456,11.384C129.432,220.928,120,239.784,120,259.512V296h8v44c0,11.24,6.696,20.88,16.272,25.336
				l-3.96,6.6l8.72,3.488c0.672,0.272,7.504,2.936,18.968,6.056V496h72V391.864c2.64,0.072,5.28,0.136,8,0.136
				c2.72,0,5.36-0.064,8-0.136V496h72V381.48c11.464-3.112,18.296-5.784,18.968-6.056l8.72-3.488l-3.96-6.6
				C361.304,360.88,368,351.24,368,340v-44h8v-36.488c0-19.736-9.432-38.584-25.208-50.424c-7.488-5.608-16.28-9.544-25.464-11.384
				l-12.424-2.488c7.216-7.904,13.016-17.096,16.984-27.224h10.072c25.184,0,47.504-15.112,56.848-38.496
				c1.472-3.68,3.424-7.16,5.816-10.336L432,80H414.648z M156.04,152c-18.608,0-35.088-11.16-41.992-28.44
				c-1.992-4.984-4.64-9.688-7.872-14l-9.632-12.84c22.28,2.12,43.896,8.936,63.464,19.952V136c0,5.472,0.568,10.8,1.528,16H156.04z
				 M168,336v4c0,6.616-5.384,12-12,12c-6.616,0-12-5.384-12-12v-44h24V336z M224,480h-40v-16h40V480z M224,448h-40v-62.672
				c11.208,2.36,24.752,4.512,40,5.696V448z M312,480h-40v-16h40V480z M312,448h-40v-56.968c15.248-1.192,28.792-3.336,40-5.696V448
				z M248,376c-34.992,0-63.672-6.488-79.552-11.056c9.176-4.6,15.552-14,15.552-24.944v-4h33.136c3.576,13.76,15.992,24,30.864,24
				s27.288-10.24,30.864-24H312v4c0,10.944,6.376,20.344,15.552,24.944C311.672,369.512,282.992,376,248,376z M232,328
				c0-8.824,7.176-16,16-16c8.824,0,16,7.176,16,16c0,8.824-7.176,16-16,16C239.176,344,232,336.824,232,328z M352,340
				c0,6.616-5.384,12-12,12c-6.616,0-12-5.384-12-12v-4v-40h24V340z M322.2,213.4c6.84,1.368,13.4,4.304,18.984,8.488
				C352.968,230.72,360,244.792,360,259.512V280h-32v-32h-16v40v32h-33.136c-3.576-13.76-15.992-24-30.864-24
				s-27.288,10.24-30.864,24H184v-32v-40h-16v32h-32v-20.488c0-14.728,7.032-28.792,18.824-37.632
				c5.576-4.184,12.144-7.12,18.992-8.496l24.432-4.888c3.112,2.144,6.376,4.04,9.76,5.776V216c0,22.056,17.944,40,40,40
				s40-17.944,40-40v-1.712c3.376-1.736,6.648-3.64,9.76-5.776L322.2,213.4z M224.48,220.712C231.976,222.8,239.84,224,248,224
				c8.16,0,16.024-1.2,23.52-3.288C269.328,231.696,259.624,240,248,240C236.376,240,226.672,231.696,224.48,220.712z M320,136
				c0,39.696-32.296,72-72,72c-39.704,0-72-32.304-72-72V98.248l3.768,3.008C201.32,118.504,228.4,128,256,128h8v-17.168
				c17.064,9.816,36.344,15.664,56,16.912V136z M320,88v23.704c-21.312-1.552-42.08-9.264-59.2-22.104L248,80v31.696
				c-21.168-1.624-41.592-9.616-58.232-22.928L178.808,80H160v18.56c-2.152-1.072-4.328-2.08-6.52-3.056
				C161.376,50.064,201.656,16,248,16c46.792,0,86.68,34.232,94.576,79.472c-2.208,0.992-4.408,2.008-6.576,3.088V88H320z
				 M389.832,109.568c-3.232,4.312-5.88,9.016-7.872,14c-6.912,17.272-23.392,28.432-42,28.432h-5.488
				c0.96-5.2,1.528-10.528,1.528-16v-19.328c19.568-11.016,41.184-17.832,63.464-19.952L389.832,109.568z"/>
			<rect x="280" y="136" width="16" height="16"/>
			<rect x="200" y="136" width="16" height="16"/>
			<rect x="240" y="176" width="16" height="16"/>
		</g>
	</g>
</g>
<g>
</g>
<g>
</g>
<g>
</g>
<g>
</g>
<g>
</g>
<g>
</g>
<g>
</g>
<g>
</g>
<g>
</g>
<g>
</g>
<g>
</g>
<g>
</g>
<g>
</g>
<g>
</g>
<g>
</g>
</svg>
