<?xml version="1.0" encoding="iso-8859-1"?>
<!-- Generator: Adobe Illustrator 19.0.0, SVG Export Plug-In . SVG Version: 6.00 Build 0)  -->
<svg version="1.1" id="Capa_1" xmlns="http://www.w3.org/2000/svg" xmlns:xlink="http://www.w3.org/1999/xlink" x="0px" y="0px"
	 viewBox="0 0 496 496" style="enable-background:new 0 0 496 496;" xml:space="preserve">
<g>
	<g>
		<g>
			<rect x="280.014" y="140.69" transform="matrix(0.7071 0.7071 -0.7071 0.7071 191.8388 -159.1367)" width="16" height="22.624"/>
			
				<rect x="196.687" y="144.002" transform="matrix(0.7071 0.7071 -0.7071 0.7071 168.4027 -102.5569)" width="22.624" height="16"/>
			<path d="M264,205.792V216h16v-16.552c8.32-4.6,13.272-9.408,13.656-9.792l-11.312-11.312C282.2,178.48,268.456,192,248,192
				c-20.208,0-34.224-13.544-34.368-13.68l-11.288,11.336c0.384,0.384,5.336,5.192,13.656,9.792V216h16v-10.208
				c4.888,1.288,10.184,2.208,16,2.208C253.816,208,259.112,207.08,264,205.792z"/>
			<path d="M480.528,157.624L494.944,136H480c-27.624,0-54.736,7.512-78.416,21.72c-31.064,18.64-56.992,45.12-74.976,76.584
				l-3.368,5.904c-1.392-0.12-2.792-0.208-4.208-0.208H296v-4.992c28.648-16.632,48-47.568,48-83.008
				c0-4.168-0.36-8.24-0.872-12.264l2.216-3.328C352.192,126.136,363.656,120,376,120h8v-8c0-14.472,3.424-28.952,9.888-41.888
				l12.28-24.584l-18.84,3.136c-13.904,2.32-27.184,6.616-39.648,12.552c5.752-16.064,5.768-33.912-0.752-50.2
				C344.248,4.328,337.848,0,330.648,0c-9.672,0-17.544,7.864-17.544,17.536c0,11.832-5.296,22.856-14.528,30.248l-17.68,14.144
				C270.608,58.16,259.568,56,248,56c-11.28,0-22.064,2.056-32.128,5.648l-17.328-13.864C189.296,40.392,184,29.368,184,17.536
				C184,7.864,176.136,0,166.464,0c-7.216,0-13.616,4.328-16.288,11.024c-6.592,16.488-6.496,34.592-0.52,50.816
				c-12.848-6.272-26.584-10.768-40.976-13.168l-18.84-3.136l12.28,24.584C108.576,83.048,112,97.528,112,112v8h8
				c12.344,0,23.808,6.136,30.656,16.408l2.216,3.328C152.36,143.76,152,147.832,152,152c0,35.44,19.352,66.384,48,83.008V240
				h-23.032c-1.416,0-2.816,0.088-4.208,0.208l-3.368-5.904c-17.984-31.464-43.912-57.952-74.976-76.584
				C70.736,143.512,43.624,136,16,136H1.056l14.416,21.624c14.008,21.016,14.664,48.6,1.672,70.256l-3.592,5.992l7.968,6.384
				C43.432,257.792,56,283.936,56,312v8h8c23.04,0,44.712,10.152,59.464,27.848l4.536,5.448V368c0,17.648,14.352,32,32,32
				c5.856,0,11.272-1.696,16-4.448v7.048c-10.6,4.144-37.408,13.864-66.072,18.648c1.24-4.296,2.072-8.696,2.072-13.248
				c0-17.648-14.352-32-32-32s-32,14.352-32,32s14.352,32,32,32c0.176,0,0.352-0.016,0.528-0.016
				C70.784,450.68,58.192,459.936,48,466.28V448H32v48h48v-16H56.152c13.2-8.168,33.592-22.8,45.752-41.432
				C131.688,435,160.68,425.448,176,419.744V496h64h8h72V395.552c4.728,2.752,10.144,4.448,16,4.448c17.648,0,32-14.352,32-32
				v-14.704l4.536-5.448C387.288,330.152,408.96,320,432,320h8v-8c0-28.064,12.568-54.208,34.488-71.744l7.968-6.384l-3.592-5.992
				C465.864,206.224,466.52,178.648,480.528,157.624z M80,424c-8.824,0-16-7.176-16-16c0-8.824,7.176-16,16-16s16,7.176,16,16
				C96,416.824,88.824,424,80,424z M377.608,67.104c-5.28,11.8-8.464,24.56-9.352,37.464c-11.4,1.68-21.872,7.072-29.92,15.272
				c-3.224-9.016-7.736-17.392-13.352-24.944c0.76-0.656,1.552-1.272,2.328-1.912l0.024,0.024l0.096-0.128
				C342.168,80.776,359.16,71.992,377.608,67.104z M308.568,60.28c13.048-10.44,20.528-26.016,20.528-42.736
				c0-1.48,2.432-1.944,2.976-0.568c7.32,18.304,4.216,39.232-8.104,54.632l-7.936,9.92c-0.536,0.448-1.08,0.88-1.608,1.336
				c-5.28-5.072-11.152-9.52-17.48-13.288L308.568,60.28z M248,72c29.096,0,54.544,15.664,68.544,38.96l-38.368-16.448L248,124.688
				l-30.168-30.176l-38.368,16.448C193.456,87.664,218.904,72,248,72z M165.032,16.96c0.552-1.36,2.968-0.896,2.968,0.576
				c0,16.72,7.488,32.296,20.536,42.736l11.136,8.912c-6.44,3.776-12.4,8.256-17.776,13.376L173.12,71.6
				C160.816,56.2,157.712,35.272,165.032,16.96z M127.744,104.568c-0.88-12.904-4.072-25.664-9.36-37.464
				c19.472,5.152,37.352,14.616,52.632,27.792c-5.616,7.552-10.136,15.928-13.352,24.944
				C149.616,111.64,139.144,106.248,127.744,104.568z M168,152c0-6.856,0.96-13.48,2.592-19.84l43.584-18.672L248,147.312
				l33.832-33.824l43.584,18.672C327.04,138.52,328,145.144,328,152c0,44.112-35.888,80-80,80S168,196.112,168,152z M86.176,171.44
				c13.608,8.168,26.112,18.008,37.312,29.152c-39.288,2.064-67.4,9.656-84.312,15.896c6-21.176,3.44-44.28-7.832-63.616
				C50.688,155.056,69.4,161.368,86.176,171.44z M128,288.968v40.496c-14.352-13.536-32.528-22.088-52.072-24.592l3.96-8.904
				c2.512-5.664,5.344-11.264,8.4-16.656l-13.92-7.888c-2.2,3.88-4.24,7.888-6.2,11.928c-5.136-18.752-15.376-35.728-29.696-49.336
				c13.616-5.632,40.688-14.456,80.976-17.168c-13.952,12-26.328,25.656-36.712,41.072L96,266.856
				c12.208-18.128,27.368-33.648,44.848-46.584c5.352,6.976,10.28,14.304,14.664,21.968l1.232,2.16
				c-5.28,2.4-10.168,5.712-14.392,9.936C133.096,263.6,128,275.896,128,288.968z M352,368c0,8.824-7.176,16-16,16
				c-8.824,0-16-7.176-16-16v-24v-56h-16v56v24v112h-48v-92.688l21.656-21.656l-11.312-11.312L248,372.688l-18.344-18.344
				l-11.312,11.312L240,387.312V480h-48V368v-24v-56h-16v56v24c0,8.824-7.176,16-16,16c-8.824,0-16-7.176-16-16v-79.032
				c0-8.672,3.52-17.168,9.656-23.312c6.224-6.224,14.504-9.656,23.312-9.656H216v-13.6c10.024,3.56,20.768,5.6,32,5.6
				s21.976-2.04,32-5.6V256h39.032c8.816,0,17.088,3.432,23.312,9.656c6.136,6.144,9.656,14.64,9.656,23.312V368z M368,329.464
				v-40.496c0-13.072-5.096-25.368-14.344-34.624c-4.224-4.224-9.104-7.536-14.392-9.936l1.232-2.16
				c4.408-7.704,9.352-15.056,14.744-22.064c26.464,19.6,47.448,45.584,60.872,75.792l3.96,8.904
				C400.528,307.376,382.352,315.928,368,329.464z M456.84,216.528c-3.664-1.352-7.768-2.76-12.472-4.168l-4.608,15.32
				c7.416,2.224,13.312,4.432,17.816,6.312c-14.376,13.632-24.632,30.664-29.76,49.472c-12.344-25.536-29.68-48.128-51.04-66.544
				c16.512,1.104,32.296,3.24,47.008,6.568l3.528-15.6c-17.112-3.88-35.464-6.32-54.76-7.336
				c11.192-11.128,23.672-20.952,37.272-29.112c16.784-10.072,35.496-16.376,54.832-18.568
				C453.376,172.224,450.824,195.336,456.84,216.528z"/>
		</g>
	</g>
</g>
<g>
</g>
<g>
</g>
<g>
</g>
<g>
</g>
<g>
</g>
<g>
</g>
<g>
</g>
<g>
</g>
<g>
</g>
<g>
</g>
<g>
</g>
<g>
</g>
<g>
</g>
<g>
</g>
<g>
</g>
</svg>
