<?xml version="1.0" encoding="iso-8859-1"?>
<!-- Generator: Adobe Illustrator 19.0.0, SVG Export Plug-In . SVG Version: 6.00 Build 0)  -->
<svg version="1.1" id="Layer_1" xmlns="http://www.w3.org/2000/svg" xmlns:xlink="http://www.w3.org/1999/xlink" x="0px" y="0px"
	 viewBox="0 0 496 496" style="enable-background:new 0 0 496 496;" xml:space="preserve">
<path style="fill:#FFA64D;" d="M357.232,356.288l-14.616-4.368c-6.992,8.024-19,16.08-39.072,16.08
	c-7.488,0-13.616-1.792-18.68-4.472l2.68,4.472c0,0-8,24-40,24c-9.864,0-17.432-2.288-23.2-5.44l-0.792,0.304
	c-22.096,10.256-45.16,18.432-68.92,24.368L135.544,416l-5.968,72l31.288-5.96c60.264-14.176,138.68-50.904,198.68-98.04
	L357.232,356.288z"/>
<g>
	<rect x="296.024" y="192" style="fill:#333333;" width="16" height="16"/>
	<rect x="184.024" y="192" style="fill:#333333;" width="16" height="16"/>
	<path style="fill:#333333;" d="M447.544,416c0-39.696-32.304-72-72-72c-6.088,0-12.176,0.784-18.144,2.336
		c-0.4-0.12-0.784-0.2-1.184-0.312c1.24-2.48,2.136-4.816,2.744-6.928c10.24-4.744,17.536-12.48,22.584-21.216
		C388.768,324.248,398.128,328,408,328c30.88,0,56-25.12,56-56c0-28.168-20.896-51.536-48-55.432v-27.752
		c0-42.352-18.704-82.136-51.312-109.144l-10.2,12.32C383.416,115.952,400,151.24,400,188.816V232h8c22.056,0,40,17.944,40,40
		s-17.944,40-40,40c-7.888,0-15.152-4.04-19.608-10.472c2.216-7.816,3.152-15.424,3.152-21.528c0-3.664-2.52-6.8-6.072-7.696
		c-3.552-0.888-7.296,0.792-9.032,4.016c-0.256,0.472-6.512,11.68-24.896,11.68c-2.088,0-4.008-0.432-5.864-1.28
		c5.368-9.664,9.24-20.184,11.496-31.248c19.592-2.576,34.816-19.2,34.816-39.48c0-19.472-14-35.696-32.456-39.24V120h-16v17.488
		c-2.56-0.928-5.264-1.488-8.08-1.488c-13.184,0-23.912,10.728-23.912,23.912V160l16-0.088c0-4.368,3.544-7.912,7.912-7.912
		c2.128,0,4.128,0.832,5.624,2.344c1.504,1.512,2.312,3.52,2.288,5.656c-0.096,8.824-7.352,16-16.176,16
		c-18.536,0-36.584-6.536-50.824-18.4l-28.824-24.016L218.728,157.6c-14.24,11.864-32.288,18.4-50.824,18.4
		c-8.824,0-16.08-7.176-16.176-16c-0.024-2.128,0.784-4.136,2.288-5.656c1.496-1.512,3.488-2.344,5.616-2.344
		c4.368,0,7.912,3.544,7.912,8l16-0.088c0-13.184-10.728-23.912-23.912-23.912c-2.816,0-5.52,0.56-8.088,1.488V120h-16v56.936
		C117.544,180.832,104,196.848,104,216c0,20.048,14.872,36.544,34.136,39.408c2.376,10.688,6.408,21.096,11.928,30.936
		c-2.056,1.056-4.176,1.656-6.52,1.656c-18.384,0-24.64-11.208-24.84-11.576c-1.664-3.32-5.352-5.056-9-4.208
		c-3.608,0.848-6.16,4.072-6.16,7.784c0,6.328,1.008,14.272,3.408,22.376C102.44,308.288,95.52,312,88,312
		c-22.056,0-40-17.944-40-40s17.944-40,40-40h8v-43.176c0-37.16,16.296-72.2,44.704-96.144l-10.312-12.232
		C98.368,107.432,80,146.936,80,188.824v27.752c-27.104,3.896-48,27.264-48,55.432c0,30.88,25.12,56,56,56
		c9.6,0,18.712-3.544,25.848-9.592c5.032,8.528,12.248,16.048,22.28,20.696c0.616,2.112,1.504,4.448,2.744,6.928
		c-0.4,0.112-0.784,0.192-1.184,0.312c-5.968-1.568-12.056-2.352-18.144-2.352c-39.696,0-72,32.304-72,72
		c0,13.256,3.6,26.088,10.448,37.336L44.664,496h405.76l-13.336-42.664C443.944,442.088,447.544,429.256,447.544,416z M431.544,416
		c0,11.344-3.392,22.28-9.8,31.624l-2.2,3.208l0.312,1.008l-45.496,17.064l-6.768-108.312c2.648-0.392,5.296-0.592,7.952-0.592
		C406.424,360,431.544,385.12,431.544,416z M143.472,361.384c1.944-0.544,3.848-1.008,5.704-1.384c8.96,8.744,22.632,16,42.368,16
		c3.704,0,7.168-0.384,10.4-1.064c4.352,8.232,16.752,25.064,45.6,25.064s41.248-16.832,45.6-25.064
		c3.232,0.68,6.696,1.064,10.4,1.064c19.736,0,33.408-7.264,42.368-16c1.856,0.376,3.76,0.848,5.704,1.384L359.032,480H136.056
		L143.472,361.384z M376,216c0,10.664-7.04,19.624-16.68,22.736c0.12-2.232,0.224-4.472,0.224-6.736v-38.664
		C369.072,196.52,376,205.416,376,216z M167.904,192c22.272,0,43.952-7.848,61.064-22.112l18.576-15.472l18.576,15.48
		C283.224,184.152,304.912,192,327.184,192c5.984,0,11.544-1.76,16.36-4.64V232c0,15.536-3.488,30.368-10.048,43.488
		c-1.64-2.056-3.36-4.296-5.248-6.816C314.112,249.824,294.744,224,247.544,224s-66.568,25.824-80.704,44.672
		c-1.704,2.264-3.248,4.288-4.744,6.184c-6.888-13.544-10.552-28.168-10.552-42.856v-44.64C156.36,190.24,161.92,192,167.904,192z
		 M120,216c0-10.248,6.488-18.952,15.544-22.384V232c0,2.16,0.112,4.312,0.24,6.456C126.6,235.088,120,226.336,120,216z
		 M183.544,312c0,0.656-0.272,16-24,16c-22.336,0-32.2-14.864-36.56-28.056c5.424,2.384,12.208,4.056,20.56,4.056
		c16.8,0,26.168-12.496,36.096-25.728C193.096,260.336,208.344,240,247.544,240s54.448,20.336,67.904,38.272
		C325.376,291.504,334.744,304,351.544,304c8.352,0,15.136-1.672,20.56-4.056c-4.36,13.2-14.224,28.056-36.56,28.056
		c-22.392,0-23.92-13.424-24-16.112l-8,0.112h-8c0,11.064,8.36,32,40,32c1.144,0,2.168-0.144,3.272-0.2
		c-5.296,7.368-15.688,16.2-35.272,16.2c-25.2,0-31.976-24.912-32.24-25.944l-15.52,3.88c2.184,8.72,9.2,22.56,22.464,30.928
		C275,374.216,266.504,384,247.544,384c-18.904,0-27.424-9.784-30.688-15.136c13.248-8.368,20.264-22.2,22.448-30.92l-15.512-3.92
		C223.52,335.088,216.744,360,191.544,360c-19.616,0-30-8.824-35.28-16.2c1.096,0.056,2.136,0.2,3.28,0.2c31.64,0,40-20.936,40-32
		H183.544z M119.544,360c2.656,0,5.304,0.2,7.944,0.584l-6.768,108.312l-45.496-17.064l0.312-1.008l-2.192-3.208
		c-6.408-9.336-9.8-20.272-9.8-31.616C63.544,385.12,88.664,360,119.544,360z M70.448,467.136L104.76,480H66.424L70.448,467.136z
		 M390.328,480l34.312-12.864L428.664,480H390.328z"/>
	<path style="fill:#333333;" d="M247.544,304c37.336,0,47.184-28.264,47.592-29.472l-15.176-5.064
		c-0.072,0.192-6.48,18.536-32.416,18.536c-25.504,0-32.168-17.848-32.44-18.608l-15.152,5.136
		C200.36,275.736,210.208,304,247.544,304z"/>
</g>
<polygon style="fill:#FFA64D;" points="135.544,120 359.544,120 375.544,8 295.544,48 247.544,0 199.544,48 119.544,8 "/>
<g>
	<path style="fill:#333333;" d="M247.544,96c13.232,0,24-10.768,24-24s-10.768-24-24-24s-24,10.768-24,24S234.312,96,247.544,96z
		 M247.544,64c4.408,0,8,3.592,8,8s-3.592,8-8,8s-8-3.592-8-8S243.136,64,247.544,64z"/>
	<rect x="311.544" y="72" style="fill:#333333;" width="16" height="16"/>
	<rect x="175.544" y="72" style="fill:#333333;" width="16" height="16"/>
</g>
<g>
</g>
<g>
</g>
<g>
</g>
<g>
</g>
<g>
</g>
<g>
</g>
<g>
</g>
<g>
</g>
<g>
</g>
<g>
</g>
<g>
</g>
<g>
</g>
<g>
</g>
<g>
</g>
<g>
</g>
</svg>
