<?xml version="1.0" encoding="iso-8859-1"?>
<!-- Generator: Adobe Illustrator 19.0.0, SVG Export Plug-In . SVG Version: 6.00 Build 0)  -->
<svg version="1.1" id="Capa_1" xmlns="http://www.w3.org/2000/svg" xmlns:xlink="http://www.w3.org/1999/xlink" x="0px" y="0px"
	 viewBox="0 0 496 496" style="enable-background:new 0 0 496 496;" xml:space="preserve">
<g>
	<g>
		<g>
			<rect x="192" y="32" width="16" height="16"/>
			<rect x="192" y="64" width="16" height="16"/>
			<path d="M120,296c-22.056,0-40,17.944-40,40c0,22.056,17.944,40,40,40c22.056,0,40-17.944,40-40C160,313.944,142.056,296,120,296
				z M120,360c-13.232,0-24-10.768-24-24s10.768-24,24-24s24,10.768,24,24S133.232,360,120,360z"/>
			<rect x="112" y="272" width="16" height="16"/>
			<rect x="72.396" y="288.398" transform="matrix(0.7071 0.7071 -0.7071 0.7071 233.1328 29.9645)" width="16" height="16"/>
			<rect x="56" y="328" width="16" height="16"/>
			<rect x="72.398" y="367.593" transform="matrix(-0.7071 -0.7071 0.7071 -0.7071 -128.3355 698.0271)" width="16" height="16"/>
			<rect x="112" y="384" width="16" height="16"/>
			<rect x="151.611" y="367.585" transform="matrix(0.7071 -0.7071 0.7071 0.7071 -218.8295 222.8683)" width="16" height="16"/>
			<rect x="168" y="328" width="16" height="16"/>
			<rect x="151.609" y="288.394" transform="matrix(0.7071 0.7071 -0.7071 0.7071 256.3303 -26.0487)" width="16" height="16"/>
			<rect x="224" y="120" width="16" height="16"/>
			<rect x="160" y="120" width="16" height="16"/>
			<path d="M200,184c-8.824,0-16-7.176-16-16h-16c0,17.648,14.352,32,32,32s32-14.352,32-32h-16C216,176.824,208.824,184,200,184z"
				/>
			<path d="M464,15.64l-87.048,67.704L338.768,228.44l-18.296-9.144C329.736,213.68,336,203.6,336,192c0-17.648-14.352-32-32-32v-56
				c0-12.056-2.168-23.584-5.96-34.36c19.28-7.28,33.512-24.208,36.952-44.864l0.768-4.592c0.84-5.032-0.56-10.16-3.856-14.048
				C328.6,2.232,323.784,0,318.672,0c-5.824,0-11.208,2.888-14.416,7.72C297.464,17.912,286.088,24,273.832,24h-7.472
				C248.336,9.024,225.208,0,200,0s-48.336,9.024-66.36,24h-5.792c-12.256,0-23.632-6.088-30.424-16.264
				C94.216,2.888,88.832,0,83.008,0c-5.112,0-9.928,2.232-13.224,6.136c-3.296,3.888-4.704,9.016-3.864,14.032l0.768,4.6
				c3.352,20.128,16.912,36.8,35.448,44.368C98.232,80.064,96,91.76,96,104v56c-17.648,0-32,14.352-32,32
				c0,15.2,10.672,27.904,24.912,31.144C83.424,229.992,80,238.56,80,248v9.712c-28.448,14.6-48,44.176-48,78.288
				c0,48.52,39.48,88,88,88c8.328,0,16.36-1.24,24-3.408V496h112v-85.184c33.992-7.064,58.152-18.952,59.576-19.664l7.48-3.736
				L280,309.928v-33.424l29.904,13.8l-9.856,19.712c-3.128,6.248-3.128,13.72,0,19.96l0.84,1.68
				c3.8,7.616,11.448,12.344,19.952,12.344c6.992,0,13.672-3.336,17.856-8.928l12.432-25.736l16.584,7.656
				c4.336,1.992,8.944,3.008,13.72,3.008h1.848c18.04,0,32.72-14.68,32.72-32.72c0-12.48-6.928-23.696-18.088-29.272l-16.384-8.192
				L464,122.36V15.64z M317.576,16.576c0.512-0.776,1.776-0.504,2.112-0.112c0.176,0.208,0.376,0.568,0.288,1.08l-0.768,4.6
				c-2.536,15.248-13.192,27.672-27.552,32.8c-2.96-5.504-6.432-10.68-10.296-15.544C296.024,37.296,309.208,29.128,317.576,16.576z
				 M82.472,22.152l-0.768-4.608c-0.088-0.496,0.112-0.856,0.288-1.072c0.336-0.4,1.576-0.68,2.12,0.128
				c8.08,12.112,20.672,20.096,34.736,22.536c-3.84,4.8-7.32,9.904-10.272,15.336C94.936,49.048,84.92,36.888,82.472,22.152z
				 M80,192c0-8.824,7.176-16,16-16h16v-72c0-37.224,23.272-69.048,56-81.888V88h-16c-13.232,0-24,10.768-24,24v48
				c0,18.448,7.032,35.248,18.488,48H120H96C87.176,208,80,200.824,80,192z M200,216c-30.872,0-56-25.128-56-56v-48
				c0-4.416,3.584-8,8-8h96c4.416,0,8,3.584,8,8v48C256,190.872,230.872,216,200,216z M214.584,230.512
				C212.08,236.088,206.496,240,200,240c-6.496,0-12.08-3.912-14.584-9.488C190.128,231.488,195.008,232,200,232
				S209.872,231.488,214.584,230.512z M96,248c0-8.816,4.832-16.456,11.936-20.624l8.328,20.816
				c-6.992,0.296-13.776,1.376-20.256,3.224V248H96z M120,408c-39.704,0-72-32.296-72-72c0-39.704,32.296-72,72-72s72,32.296,72,72
				C192,375.704,159.704,408,120,408z M192,480h-32v-32h32V480z M192,432h-32v-17.712c1.6-0.824,3.16-1.704,4.704-2.624
				c9.248,1.76,18.368,2.984,27.296,3.648V432z M240,480h-32v-32h32V480z M240,432h-32v-16c11.096,0,21.848-0.912,32-2.36V432z
				 M300.776,380.264C285.4,386.704,248.736,400,208,400c-8.384,0-17.048-0.624-25.872-1.736C198.096,382.32,208,360.296,208,336
				c0-5.472-0.568-10.8-1.528-16H232v-16h-30.112c-11.2-28.56-36.88-49.824-67.984-54.792L123.816,224h43.344
				c0.288,0.152,0.592,0.28,0.88,0.424C168.28,241.872,182.496,256,200,256c17.504,0,31.72-14.128,31.96-31.576
				c0.288-0.144,0.592-0.272,0.88-0.424h44.064L264,262.704V304h-16v16h19.296L300.776,380.264z M253.512,208
				C264.968,195.248,272,178.448,272,160v-48c0-13.232-10.768-24-24-24h-16V64h-16v24h-32V17.528c5.2-0.96,10.528-1.528,16-1.528
				s10.8,0.568,16,1.528V48h16V22.112c32.728,12.84,56,44.664,56,81.888v72h16c8.824,0,16,7.176,16,16c0,8.824-7.176,16-16,16
				h-19.328H280H253.512z M281.856,259.736L293.432,225c3.16,0.712,6.232,1.776,9.128,3.224l30.712,15.352l-16.208,32.408
				L281.856,259.736z M325.496,325.96c-2.784,3.016-8.424,2.288-10.288-1.456l-0.84-1.696c-0.888-1.76-0.888-3.864,0-5.632
				l33.216-66.448l11.344,5.672L325.496,325.96z M390.76,272.32c5.704,2.848,9.24,8.584,9.24,14.96c0,9.216-7.504,16.72-16.72,16.72
				h-1.848c-2.44,0-4.8-0.512-7.008-1.536l-16.328-7.544l15.144-31.36L390.76,272.32z M448,117.64l-79.216,122.424l64.944-140.712
				L419.2,92.648l-65.488,141.888l37.336-141.88l43.904-34.152l-10.216,22.144l14.528,6.704L448,68.424V117.64z"/>
		</g>
	</g>
</g>
<g>
</g>
<g>
</g>
<g>
</g>
<g>
</g>
<g>
</g>
<g>
</g>
<g>
</g>
<g>
</g>
<g>
</g>
<g>
</g>
<g>
</g>
<g>
</g>
<g>
</g>
<g>
</g>
<g>
</g>
</svg>
