<?xml version="1.0" encoding="iso-8859-1"?>
<!-- Generator: Adobe Illustrator 19.0.0, SVG Export Plug-In . SVG Version: 6.00 Build 0)  -->
<svg version="1.1" id="Capa_1" xmlns="http://www.w3.org/2000/svg" xmlns:xlink="http://www.w3.org/1999/xlink" x="0px" y="0px"
	 viewBox="0 0 496 496" style="enable-background:new 0 0 496 496;" xml:space="preserve">
<g>
	<g>
		<g>
			<rect x="192" y="120" width="16" height="16"/>
			<rect x="128" y="120" width="16" height="16"/>
			<path d="M396.848,282.288l-48.072-21.368l14.736-24.56L288,202.8V152h60.72c15.04,0,27.28-12.24,27.28-27.28
				c0-4.416-1.064-8.792-3.064-12.648C331.68,32.472,272.296,0,168,0c-0.032,0-0.064,0-0.096,0C101.792,0.008,48,53.84,48,120
				v84.048c-30.056,21.76-48,56.344-48,93.64V352h16v36c0,15.44,12.56,28,28,28c0.096,0,0.184-0.024,0.272-0.024
				c-8.184,20.464-18.128,40.28-29.784,59.216L1.68,496H168h166.32l-12.816-20.816c-30.976-50.328-49.888-106.84-55.624-165.296
				l41.16,20.584l9.232-15.384l51.016,25.504c4.464,2.232,9.456,3.408,14.44,3.408h2.032c17.784,0,32.24-14.464,32.24-32.24
				C416,299.024,408.488,287.464,396.848,282.288z M64,120c0-57.336,46.608-103.992,103.904-104c0.04,0,0.064,0,0.104,0
				c98.656,0,152.152,29.008,190.728,103.44c0.824,1.592,1.264,3.416,1.264,5.28c0,6.216-5.064,11.28-11.28,11.28H288V96h-16
				v108.688l-104,104l-104-104V120z M44,400c-6.616,0-12-5.384-12-12v-36h31.664c-3.248,15.392-7.472,30.552-12.56,45.432
				C49.032,398.984,46.624,400,44,400z M300.952,309.528l-36.416-18.208C264.216,284.896,264,278.456,264,272h-16
				c0,73.36,19.936,145.176,57.712,208H168H30.288c23.872-39.696,40.6-82.992,49.688-128H80v-0.104c5.28-26.176,8-52.928,8-79.896
				H72c0,21.544-1.824,42.936-5.352,64H16v-38.312c0-31.256,14.648-60.28,39.272-79.104L168,331.312l113.768-113.768l58.712,26.096
				L300.952,309.528z M383.76,328h-2.032c-2.504,0-5.024-0.592-7.264-1.72l-49.928-24.96l15.944-26.576l49.872,22.168
				c5.856,2.6,9.648,8.432,9.648,14.848C400,320.712,392.712,328,383.76,328z"/>
			<path d="M432,192v16c26.472,0,48,21.528,48,48s-21.528,48-48,48c-2.296,0-4.608-0.168-6.872-0.496l-2.264,15.84
				c3.008,0.44,6.08,0.656,9.136,0.656c35.288,0,64-28.712,64-64C496,220.712,467.288,192,432,192z"/>
			<path d="M440.12,72.824c0.848,12.88,6.272,24.88,15.496,34.104c5.408,5.408,8.384,12.6,8.384,20.256
				c0,11.784-7.072,22.224-18.008,26.608l-16.96,6.784l5.936,14.848l16.96-6.784C468.984,161.824,480,145.544,480,127.184
				c0-11.936-4.648-23.152-13.08-31.576C459.88,88.56,456,79.2,456,69.24V24l-24,32c-10.32,13.76-16,30.808-16,48h16
				C432,93.12,434.84,82.312,440.12,72.824z"/>
			<path d="M360,204v12h16v-12c0-10.016,4.792-19.584,12.808-25.6C400.824,169.376,408,155.024,408,140v-12l6.4,4.8
				c6.016,4.504,9.6,11.688,9.6,19.2h16c0-12.52-5.976-24.488-16-32l-32-24v44c0,10.016-4.792,19.584-12.808,25.6
				C367.176,174.624,360,188.976,360,204z"/>
			<path d="M432,288c17.648,0,32-14.352,32-32s-14.352-32-32-32s-32,14.352-32,32S414.352,288,432,288z M432,240
				c8.824,0,16,7.176,16,16c0,8.824-7.176,16-16,16c-8.824,0-16-7.176-16-16C416,247.176,423.176,240,432,240z"/>
			<path d="M425.288,192l1.232-0.408l-5.048-15.184l-1.24,0.416C403.344,182.448,392,198.192,392,216h16
				C408,205.096,414.952,195.448,425.288,192z"/>
			<path d="M196.272,228.8c5.464-4.096,9.264-10.008,10.872-16.536C227.44,199.032,240,176.36,240,152v-40c0-13.232-10.768-24-24-24
				h-96c-13.232,0-24,10.768-24,24v40c0,24.36,12.552,47.04,32.856,60.256c1.6,6.536,5.408,12.44,10.872,16.536L168,250
				L196.272,228.8z M130.552,193.48C118.952,182.968,112,167.952,112,152v-40c0-4.408,3.584-8,8-8h96c4.416,0,8,3.592,8,8v40
				c0,15.952-6.96,30.96-18.552,41.472C200.872,183.2,190.616,176,178.664,176h-21.328C145.384,176,135.12,183.208,130.552,193.48z
				 M144,205.336c0-7.352,5.984-13.336,13.336-13.336h21.328c7.352,0,13.336,5.984,13.336,13.336c0,4.176-1.992,8.16-5.328,10.664
				L168,230l-18.664-14C145.992,213.496,144,209.504,144,205.336z"/>
		</g>
	</g>
</g>
<g>
</g>
<g>
</g>
<g>
</g>
<g>
</g>
<g>
</g>
<g>
</g>
<g>
</g>
<g>
</g>
<g>
</g>
<g>
</g>
<g>
</g>
<g>
</g>
<g>
</g>
<g>
</g>
<g>
</g>
</svg>
