<?xml version="1.0" encoding="iso-8859-1"?>
<!-- Generator: Adobe Illustrator 19.0.0, SVG Export Plug-In . SVG Version: 6.00 Build 0)  -->
<svg version="1.1" id="Layer_1" xmlns="http://www.w3.org/2000/svg" xmlns:xlink="http://www.w3.org/1999/xlink" x="0px" y="0px"
	 viewBox="0 0 511.996 511.996" style="enable-background:new 0 0 511.996 511.996;" xml:space="preserve">
<g>
	<g>
		<path d="M479.996,410.656c-5.891,0-10.656,4.781-10.656,10.656c0,5.906,4.766,10.688,10.656,10.688s10.656-4.781,10.656-10.688
			C490.652,415.438,485.887,410.656,479.996,410.656z"/>
	</g>
</g>
<g>
	<g>
		<path d="M394.653,90.66c-5.875,0-10.655,4.773-10.655,10.664s4.78,10.672,10.655,10.672c5.906,0,10.688-4.781,10.688-10.672
			S400.56,90.66,394.653,90.66z"/>
	</g>
</g>
<g>
	<g>
		<path d="M74.663,282.659c-5.891,0-10.664,4.781-10.664,10.656c0,5.906,4.773,10.688,10.664,10.688
			c5.891,0,10.672-4.781,10.672-10.688C85.335,287.44,80.554,282.659,74.663,282.659z"/>
	</g>
</g>
<g>
	<g>
		<path d="M10.664,175.792C4.773,175.792,0,180.573,0,186.464s4.773,10.664,10.664,10.664s10.672-4.773,10.672-10.664
			C21.336,180.573,16.555,175.792,10.664,175.792z"/>
	</g>
</g>
<g>
	<g>
		<path d="M32,410.656c-5.891,0-10.664,4.781-10.664,10.656C21.336,427.219,26.109,432,32,432s10.664-4.781,10.664-10.688
			C42.664,415.438,37.891,410.656,32,410.656z"/>
	</g>
</g>
<g>
	<g>
		<path d="M483.09,26.661c-5.906,0-10.688,4.773-10.688,10.664c0,5.89,4.782,10.671,10.688,10.671
			c5.875,0,10.656-4.781,10.656-10.671C493.746,31.434,488.965,26.661,483.09,26.661z"/>
	</g>
</g>
<g>
	<g>
		<path d="M117.335,37.325V26.661c0-5.891-4.781-10.664-10.672-10.664S95.999,20.77,95.999,26.661v10.664
			c-5.891,0-10.664,4.781-10.664,10.671c0,5.891,4.773,10.664,10.664,10.664v10.664c0,5.891,4.773,10.672,10.664,10.672
			c5.891,0,10.672-4.781,10.672-10.672V58.66c5.891,0,10.664-4.773,10.664-10.664C127.999,42.106,123.226,37.325,117.335,37.325z"/>
	</g>
</g>
<g>
	<g>
		<path d="M501.34,186.66v-10.664c0-5.891-4.781-10.672-10.688-10.672c-5.875,0-10.656,4.781-10.656,10.672v10.664
			c-5.891,0-10.656,4.773-10.656,10.664c0,5.891,4.766,10.672,10.656,10.672v10.664c0,5.891,4.781,10.664,10.656,10.664
			c5.906,0,10.688-4.773,10.688-10.664v-10.664c5.875,0,10.656-4.781,10.656-10.672S507.215,186.66,501.34,186.66z"/>
	</g>
</g>
<g>
	<g>
		<path d="M479.246,300.471c-3.125-13.172-16.124-23.625-33.937-27.25c-13.781-2.82-31.781-1.391-40.969,11.062
			c-4.438,6.031-13.719,23.75-42.921,107.811c-0.188,0.547-0.391,1.094-0.578,1.641c-26.297-10.42-33.375-17.936-35.219-21.561
			c-0.078-0.141-0.125-0.281-0.188-0.422l-0.188-25.5c15.594-20.891,26.75-46.953,26.75-73.969c0-1.93-0.062-3.844-0.125-5.742
			c9.516-1.195,18.484-2.578,26.781-4.133c16.483-3.102,29.577-6.781,38.937-10.945c13.094-5.82,19.75-13.305,19.75-22.234
			c0-8.938-6.656-16.414-19.75-22.242c-9.359-4.156-22.453-7.836-38.937-10.938c-15.875-2.984-34.25-5.32-54.219-6.938
			c-3.359-16.078-8.031-37.289-13.281-58.367c-6.281-25.148-12.188-45.265-17.562-59.789c-7.469-20.188-14.906-33.632-26.93-33.632
			c-23.539,0-43.727,29.5-63.507,92.819c-6.734,21.539-12.086,42.875-15.781,58.984c-19.891,1.617-38.203,3.945-54.023,6.922
			c-16.492,3.102-29.586,6.781-38.938,10.938c-13.102,5.828-19.75,13.304-19.75,22.242c0,8.93,6.648,16.414,19.75,22.234
			c9.352,4.164,22.445,7.844,38.938,10.945c8.289,1.555,17.258,2.938,26.781,4.133c-0.078,1.898-0.141,3.812-0.141,5.742
			c0,27.016,11.156,53.078,26.758,73.969l-0.18,25.5c-0.062,0.141-0.117,0.281-0.188,0.422c-1.938,3.781-9.531,11.797-38.703,22.904
			c-8.227,3.125-14.477,7.891-32.945,12.859l-1.273,0.359c-16.812,5.562-28.125,21.156-28.125,38.766V496h169.985
			c0.227,0,0.453,0,0.68,0s0.453,0,0.68,0h84.586c0.016,0,0.047,0,0.078,0c0.016,0,0.031,0,0.062,0h85.249v-48.938
			c0-17.609-11.312-33.203-28.125-38.766l-1.266-0.359c-7.172-1.938-12.5-3.828-16.827-5.609
			c17.374-50.076,34.687-96.748,41.062-105.373c2.156-2.922,10.062-4.781,19.547-2.828c9,1.828,16.344,6.578,17.453,11.281
			c1.125,4.75-3.844,12.031-13.328,19.5c-1.078,0.844-1.422,0.688-2.094,0.281c-1.484-0.938-2.547-3.062-2.234-4.438
			c1.297-5.75-2.312-11.469-8.047-12.75c-5.75-1.312-11.453,2.297-12.766,8.047c-2.312,10.203,2.5,21.391,11.656,27.172
			c8.469,5.344,18.688,4.75,26.688-1.562C470.152,332.378,483.34,317.706,479.246,300.471z M223.514,136.51
			c7.516-24.062,15.188-43.117,22.781-56.625c8.617-15.312,14.953-19.648,18.273-20.812c3.172,4.297,12.367,21.133,27.602,83.781
			c3.984,16.43,7.578,32.594,10.391,45.898c-9.156,1.227-16.875,1.195-19.281,0.086c-4.453-3.602-11-3.055-14.773,1.297
			c-3.859,4.453-3.383,11.188,1.062,15.047c4.508,3.914,11.289,5.812,20.992,5.812c3.031,0,6.344-0.188,9.969-0.555
			c2.219-0.227,4.359-0.5,6.344-0.789c0.266,1.289,0.5,2.5,0.719,3.586c-7.359,2.515-23.344,5.421-51.594,5.421
			c-28.383,0-44.53-2.93-52.03-5.476C206.843,199.23,213.756,167.722,223.514,136.51z M144.765,242.761
			c-30.571-5.078-42.516-10.688-46.899-13.532c4.383-2.852,16.328-8.453,46.898-13.539c11.5-1.914,24.258-3.5,37.875-4.734
			c-0.672,3.351-1.055,5.375-1.125,5.734l-0.852,4.562l2.75,3.734c4.125,5.602,19.047,15.008,72.585,15.008
			c23.062,0,63.094-1.984,72.297-15.266l2.547-3.672l-0.843-4.381c-0.016-0.094-0.406-2.156-1.125-5.765
			c13.812,1.25,26.719,2.851,38.359,4.781c30.577,5.086,42.515,10.688,46.89,13.539c-4.375,2.844-16.312,8.453-46.89,13.531
			c-30.625,5.094-70.141,7.898-111.234,7.898C214.896,250.659,175.39,247.854,144.765,242.761z M181.327,272.284
			c0-1.156,0.016-2.312,0.055-3.461c23.039,2.07,48.397,3.172,74.616,3.172s51.578-1.102,74.625-3.172
			c0.031,1.148,0.047,2.305,0.047,3.461c0,19.969-7.969,41.609-22.141,60.719c-2.531-2.906-5.469-5.469-8.812-7.719
			c-10.641-7.156-24.938-10.625-43.719-10.625c-18.773,0-33.078,3.469-43.726,10.625c-3.344,2.25-6.281,4.812-8.812,7.719
			C189.296,313.893,181.327,292.253,181.327,272.284z M106.663,474.656v-27.593c0-8.297,5.289-15.656,13.18-18.406l0.625-0.172
			c14.461-3.891,22.766-7.875,28.836-10.781c2.352-1.125,4.211-2.016,5.969-2.688c18.086-6.891,30.906-13.516,39.445-20.547
			c2.844,15.672,7.648,33.188,13.547,48.531c4.953,12.906,10.241,23.438,15.858,31.656H106.663z M256.349,474.656h-0.351h-0.352
			c-6.383-0.438-17.227-12.625-27.469-39.297c-9.812-25.516-14.937-53.201-14.937-67.357c0-13.344,3.608-26.938,27.335-30.875
			c-3.5,1.75-5.914,5.344-5.914,9.531c0,5.891,4.781,10.656,10.672,10.656h21.328c5.898,0,10.68-4.766,10.68-10.656
			c0-4.188-2.422-7.781-5.922-9.531c23.734,3.938,27.344,17.531,27.344,30.875c0,14.156-5.141,41.842-14.953,67.357
			C273.576,462.031,262.732,474.219,256.349,474.656z M333.592,474.656h-45.719c5.625-8.219,10.906-18.75,15.859-31.656
			c5.891-15.344,10.703-32.859,13.547-48.531c8.094,6.656,20.031,12.953,36.625,19.468
			C344.966,440.156,337.31,463.313,333.592,474.656z M391.528,428.484l0.625,0.172c7.891,2.766,13.188,10.109,13.188,18.406v27.594
			h-49.312c5.312-16.156,11.297-34.062,17.469-52.125C378.217,424.438,384.044,426.47,391.528,428.484z"/>
	</g>
</g>
<g>
</g>
<g>
</g>
<g>
</g>
<g>
</g>
<g>
</g>
<g>
</g>
<g>
</g>
<g>
</g>
<g>
</g>
<g>
</g>
<g>
</g>
<g>
</g>
<g>
</g>
<g>
</g>
<g>
</g>
</svg>
