<?xml version="1.0" encoding="iso-8859-1"?>
<!-- Generator: Adobe Illustrator 19.0.0, SVG Export Plug-In . SVG Version: 6.00 Build 0)  -->
<svg version="1.1" id="Layer_1" xmlns="http://www.w3.org/2000/svg" xmlns:xlink="http://www.w3.org/1999/xlink" x="0px" y="0px"
	 viewBox="0 0 512.003 512.003" style="enable-background:new 0 0 512.003 512.003;" xml:space="preserve">
<g>
	<g>
		<g>
			<path d="M247.468,349.867c-4.719,0-8.533,3.823-8.533,8.533s3.814,8.533,8.533,8.533h17.067c4.719,0,8.533-3.823,8.533-8.533
				s-3.814-8.533-8.533-8.533H247.468z"/>
			<path d="M366.935,307.2v-68.267c0-4.71-3.814-8.533-8.533-8.533s-8.533,3.823-8.533,8.533V307.2
				c0,13.338-14.985,28.638-26.18,37.845c-4.659-8.883-11.656-16.785-22.323-20.343l-16.265-5.419l4.139-8.269
				c2.108-4.215,0.393-9.335-3.823-11.452c-4.216-2.108-9.327-0.393-11.452,3.823l-8.533,17.067
				c-0.008,0.034-0.008,0.068-0.017,0.094c-0.017,0.034-0.043,0.051-0.06,0.085c-0.205,0.375-2.193,3.635-9.353,3.635
				c-7.108,0-9.182-3.362-9.25-3.422c-0.034-0.068-0.094-0.119-0.128-0.179c-0.034-0.077-0.026-0.145-0.051-0.213l-8.533-17.067
				c-2.116-4.215-7.236-5.931-11.452-3.823c-4.216,2.116-5.931,7.236-3.823,11.452l4.139,8.269l-16.265,5.419
				c-10.667,3.558-17.664,11.46-22.323,20.343c-11.196-9.207-26.18-24.508-26.18-37.845v-68.267c0-4.71-3.814-8.533-8.533-8.533
				c-4.719,0-8.533,3.823-8.533,8.533V307.2c0,24.141,25.574,46.063,37.026,54.673c-2.807,11.477-2.893,21.239-2.893,22.127
				c0,4.71,3.814,8.533,8.533,8.533s8.533-3.823,8.533-8.533c0-0.367,0.538-36.693,19.763-43.102l19.994-6.673
				c4.122,3.755,10.641,7.108,19.977,7.108c9.404,0,15.915-3.337,20.019-7.091l19.951,6.656c16.12,5.376,19.729,32.947,19.763,43.11
				c0.017,4.71,3.831,8.516,8.533,8.516h0.017c4.71,0,8.516-3.814,8.516-8.525c0-0.887-0.085-10.65-2.893-22.127
				C341.361,353.263,366.935,331.341,366.935,307.2z"/>
			<path d="M136.535,162.133c0,3.49,2.125,6.622,5.367,7.927c1.801,0.717,44.979,17.673,114.099,17.673
				c24.388,0,62.643-2.295,78.524-5.572c4.617-0.964,7.586-5.47,6.63-10.086c-0.956-4.625-5.572-7.578-10.078-6.63
				c-13.218,2.731-48.998,5.222-75.076,5.222c-52.113,0-89.207-10.291-102.443-14.601c-0.751-53.521-11.076-105.122-15.411-124.535
				c16.666-4.506,60.049-14.464,117.854-14.464s101.188,9.958,117.862,14.464c-2.876,12.877-8.371,39.936-11.964,72.294
				c-14.413,3.721-63.957,15.642-105.899,15.642c-41.02,0-74.402-8.192-74.735-8.277c-4.582-1.152-9.207,1.638-10.342,6.212
				c-1.143,4.565,1.638,9.199,6.212,10.342c1.434,0.358,35.652,8.789,78.865,8.789c39.637,0,84.233-9.754,104.149-14.652
				c-1.05,13.039-1.715,26.615-1.715,40.252c0,4.71,3.814,8.533,8.533,8.533c4.719,0,8.533-3.823,8.533-8.533
				c0-66.372,16.606-133.794,16.785-134.468c1.075-4.326-1.357-8.755-5.589-10.163C384.556,16.794,333.305,0,256.002,0
				S127.447,16.794,125.305,17.502c-4.233,1.417-6.665,5.845-5.581,10.172C119.895,28.339,136.535,95.684,136.535,162.133z"/>
			<path d="M196.268,256h8.533c0,4.71,3.814,8.533,8.533,8.533c4.719,0,8.533-3.823,8.533-8.533h8.533
				c4.719,0,8.533-3.823,8.533-8.533s-3.814-8.533-8.533-8.533h-34.133c-4.719,0-8.533,3.823-8.533,8.533S191.549,256,196.268,256z"
				/>
			<path d="M256.002,221.867c110.251,0,221.867-20.514,221.867-59.733c0-32.085-42.948-43.537-75.255-49.365
				c-4.71-0.828-9.088,2.253-9.916,6.886c-0.836,4.642,2.244,9.079,6.878,9.916c27.938,5.026,61.227,14.763,61.227,32.563
				c0,14.891-70.34,42.667-204.8,42.667s-204.8-27.776-204.8-42.667c0-17.783,33.306-27.529,61.252-32.555
				c4.634-0.845,7.714-5.282,6.878-9.916c-0.828-4.642-5.205-7.731-9.916-6.886c-32.316,5.82-75.281,17.28-75.281,49.357
				C34.135,201.353,145.751,221.867,256.002,221.867z"/>
			<path d="M373.881,406.929c34.483-19.601,38.554-64.853,27.409-100.395c8.218-51.328-0.29-77.722-0.666-78.831
				c-1.476-4.446-6.229-6.861-10.744-5.393c-4.454,1.459-6.895,6.272-5.453,10.743c0.077,0.239,7.68,24.764-0.307,72.738
				c-0.239,1.382-0.12,2.79,0.324,4.105c10.035,30.097,7.637,69.035-21.308,83.422c-2.039,1.015-3.584,2.799-4.301,4.958
				c-7.697,23.177-22.673,38.187-45.798,45.892c-1.263,0.427-2.406,1.126-3.337,2.065c-16.623,16.623-31.684,23.1-53.7,23.1
				c-22.016,0-37.077-6.477-53.7-23.1c-0.93-0.939-2.074-1.638-3.337-2.065c-23.117-7.706-38.093-22.682-45.807-45.798
				c-0.708-2.15-2.244-3.925-4.275-4.941c-31.07-15.531-31.377-53.333-21.325-83.533c0.444-1.314,0.563-2.722,0.324-4.105
				c-7.936-47.65-0.478-72.166-0.307-72.73c1.468-4.463-0.947-9.267-5.41-10.761c-4.514-1.502-9.301,0.93-10.786,5.402
				c-0.375,1.109-8.875,27.503-0.666,78.831c-11.298,35.678-9.651,79.701,27.418,100.506c9.515,25.745,27.494,43.452,53.53,52.668
				c17.041,16.555,34.193,24.704,55.808,26.342v17.417c0,4.71,3.814,8.533,8.533,8.533s8.533-3.823,8.533-8.533V486.05
				c21.615-1.638,38.767-9.788,55.808-26.342C346.395,450.483,364.384,432.734,373.881,406.929z"/>
			<path d="M511.558,500.77l-8.533-25.6c-9.992-29.943-33.382-48.503-119.023-48.503c-2.739,0-5.316,1.314-6.929,3.55
				c-1.596,2.219-2.039,5.077-1.161,7.68c0.282,0.862,5.845,17.493,12.553,33.033c-23.697,5.811-43.656,25.523-44.629,26.505
				c-3.337,3.328-3.337,8.721-0.009,12.058c3.337,3.336,8.73,3.336,12.066,0.017c0.23-0.23,23.475-23.108,45.175-23.108
				c2.961,0,5.7-1.536,7.262-4.045c1.553-2.517,1.698-5.658,0.375-8.303c-4.651-9.31-9.378-21.436-12.587-30.182
				c72.738,1.698,84.813,19.004,90.726,36.693l8.533,25.6c1.186,3.576,4.514,5.837,8.09,5.837c0.888,0,1.801-0.137,2.697-0.435
				C510.636,510.071,513.051,505.242,511.558,500.77z"/>
			<path d="M167.255,496.64c-4.89-3.661-26.069-19.089-44.032-24.994c6.844-15.735,12.578-32.862,12.868-33.741
				c0.879-2.603,0.435-5.461-1.161-7.68c-1.613-2.227-4.19-3.55-6.929-3.55c-85.641,0-109.03,18.551-119.023,48.495l-8.533,25.6
				c-1.493,4.471,0.922,9.301,5.393,10.795C6.734,511.864,7.647,512,8.535,512c3.576,0,6.904-2.261,8.09-5.837l8.533-25.6
				c5.914-17.69,17.997-34.987,90.726-36.685c-3.209,8.747-7.936,20.864-12.587,30.174c-1.323,2.645-1.178,5.786,0.375,8.303
				c1.562,2.509,4.301,4.045,7.262,4.045c9.779,0,32.845,13.969,46.08,23.893c3.78,2.833,9.122,2.065,11.947-1.707
				C171.786,504.815,171.027,499.465,167.255,496.64z"/>
			<path d="M281.602,256h8.533c0,4.71,3.814,8.533,8.533,8.533s8.533-3.823,8.533-8.533h8.533c4.719,0,8.533-3.823,8.533-8.533
				s-3.814-8.533-8.533-8.533h-34.133c-4.719,0-8.533,3.823-8.533,8.533S276.883,256,281.602,256z"/>
		</g>
	</g>
</g>
<g>
</g>
<g>
</g>
<g>
</g>
<g>
</g>
<g>
</g>
<g>
</g>
<g>
</g>
<g>
</g>
<g>
</g>
<g>
</g>
<g>
</g>
<g>
</g>
<g>
</g>
<g>
</g>
<g>
</g>
</svg>
