<?xml version="1.0" encoding="iso-8859-1"?>
<!-- Generator: Adobe Illustrator 19.0.0, SVG Export Plug-In . SVG Version: 6.00 Build 0)  -->
<svg version="1.1" id="Layer_1" xmlns="http://www.w3.org/2000/svg" xmlns:xlink="http://www.w3.org/1999/xlink" x="0px" y="0px"
	 viewBox="0 0 512.005 512.005" style="enable-background:new 0 0 512.005 512.005;" xml:space="preserve">
<g>
	<g>
		<g>
			<path d="M318.658,391.998c-1.681,0-3.482,0.282-5.342,0.836c-0.324,0.094-0.631,0.205-0.939,0.341l-56.439,24.183l-56.303-24.124
				c-0.333-0.145-0.674-0.265-1.015-0.367c-2.048-0.58-3.891-0.87-5.623-0.87c-3.234,0-13.79,1.271-13.79,17.604v34.133
				c0,16.7,11.776,17.553,14.14,17.553c1.69,0,3.482-0.282,5.342-0.836c0.324-0.094,0.64-0.205,0.947-0.341l29.15-12.493
				l-6.852,54.793c-0.58,4.676,2.739,8.943,7.415,9.532c0.358,0.043,0.717,0.06,1.067,0.06c4.241,0,7.919-3.157,8.456-7.475
				l8.09-64.7l9.105-3.9l9.122,3.908l7.996,47.974c0.7,4.173,4.309,7.125,8.414,7.125c0.461,0,0.939-0.034,1.408-0.111
				c4.651-0.777,7.791-5.171,7.014-9.822l-6.195-37.188l28.553,12.245c0.333,0.137,0.666,0.256,1.015,0.358
				c2.048,0.58,3.883,0.87,5.615,0.87c3.234,0,13.798-1.271,13.798-17.604v-34.133C332.807,392.851,321.022,391.998,318.658,391.998
				z M196.273,442.942v-32.589l38.05,16.307L196.273,442.942z M315.74,442.934l-38.067-16.316l38.067-16.299V442.934z"/>
			<path d="M264.787,273.069c0-4.71-3.814-8.533-8.533-8.533h-0.077c-4.719,0-8.491,3.823-8.491,8.533
				c0,4.719,3.857,8.533,8.567,8.533C260.973,281.602,264.787,277.788,264.787,273.069z"/>
			<path d="M511.563,499.902l-8.533-25.6c-5.009-15.036-22.357-45.466-81.246-58.513c11.145-25.924,39.023-97.783,39.023-168.32
				c0-30.089-6.878-43.605-14.831-59.247c-6.34-12.459-13.517-26.573-19.507-53.53c-18.458-83.081-83.78-134.69-170.462-134.69
				c-86.69,0-152.004,51.61-170.462,134.69c-5.393,24.226-12.416,38.298-18.628,50.705c-8.431,16.87-15.71,31.437-15.71,62.071
				c0,70.537,27.87,142.396,39.014,168.32c-58.88,13.047-76.237,43.477-81.246,58.513l-8.533,25.6
				c-1.493,4.463,0.922,9.301,5.393,10.795c0.896,0.299,1.809,0.435,2.705,0.435c3.575,0,6.903-2.261,8.09-5.837l8.533-25.6
				c4.147-12.442,25.668-53.026,128.444-53.026c4.71,0,8.533-3.814,8.533-8.533c0-4.71-3.823-8.533-8.533-8.533
				c-17.34,0-32.631,1.109-46.114,3.038c-9.122-20.83-39.219-94.857-39.219-165.171c0-26.607,5.837-38.281,13.909-54.443
				c6.647-13.286,14.174-28.348,20.019-54.639c16.623-74.829,75.563-121.318,153.805-121.318s137.173,46.49,153.805,121.318
				c6.451,29.065,14.49,44.877,20.949,57.566c7.535,14.814,12.979,25.515,12.979,51.516c0,70.212-30.106,144.324-39.228,165.171
				c-13.491-1.929-28.774-3.038-46.106-3.038c-4.719,0-8.533,3.823-8.533,8.533c0,4.719,3.814,8.533,8.533,8.533
				c102.775,0,124.288,40.585,128.435,53.026l8.533,25.6c1.195,3.575,4.523,5.837,8.098,5.837c0.888,0,1.801-0.137,2.697-0.435
				C510.641,509.203,513.056,504.365,511.563,499.902z"/>
			<path d="M144.954,129.41c7.066-42.394,57.924-78.208,111.053-78.208c53.12,0,103.979,35.814,111.044,78.208
				c4.48,26.863,15.556,49.007,25.318,68.548c9.25,18.492,17.237,34.458,17.237,49.51c0,28.868-4.275,84.412-32.922,132.147
				c-2.423,4.036-1.118,9.284,2.927,11.708c1.374,0.828,2.884,1.212,4.386,1.212c2.901,0,5.726-1.468,7.322-4.139
				c30.763-51.26,35.354-110.293,35.354-140.928c0-19.072-9.25-37.564-19.038-57.148c-9.233-18.458-19.686-39.381-23.748-63.718
				c-8.499-50.987-65.869-92.467-127.881-92.467c-62.02,0-119.39,41.481-127.889,92.467c-4.053,24.337-14.515,45.261-23.748,63.718
				c-9.788,19.584-19.029,38.076-19.029,57.148c0,30.635,4.591,89.668,35.345,140.928c2.423,4.045,7.671,5.342,11.708,2.927
				c4.045-2.423,5.35-7.672,2.927-11.708c-28.638-47.735-32.913-103.279-32.913-132.147c0-15.053,7.987-31.019,17.229-49.51
				C129.406,178.417,140.482,156.273,144.954,129.41z"/>
			<path d="M307.207,229.532v-5.615c0.546,0.529,0.922,0.964,0.956,1.024c1.527,2.918,4.497,4.591,7.586,4.591
				c1.323,0,2.671-0.307,3.934-0.964c4.173-2.176,5.803-7.33,3.627-11.511c-2.534-4.873-10.581-13.124-24.636-13.124
				s-22.101,8.252-24.644,13.124c-2.116,4.087-0.546,8.969,3.465,11.23c4.002,2.278,9.165,0.811,11.554-3.123
				c0.085-0.128,0.495-0.631,1.092-1.195v5.564c0,4.71,3.814,8.533,8.533,8.533C303.384,238.065,307.207,234.242,307.207,229.532z"
				/>
			<path d="M256.007,375.469c68.369,0,119.467-94.601,119.467-179.2c0-4.71-3.823-8.533-8.533-8.533
				c-4.719,0-8.533,3.823-8.533,8.533c0,83.345-49.766,162.133-102.4,162.133c-51.354,0-99.968-74.991-102.315-156.041
				c23.834-8.149,100.77-35.473,132.258-58.752c14.694,35.738,51.951,43.614,53.709,43.964c4.625,0.913,9.122-2.074,10.044-6.69
				c0.93-4.625-2.074-9.122-6.69-10.044c-0.367-0.077-37.171-7.842-44.51-44.51c-0.674-3.379-3.328-6.025-6.707-6.699
				c-3.379-0.683-6.852,0.768-8.755,3.644c-11.247,16.862-92.254,48.759-140.672,64.905c-3.482,1.161-5.828,4.42-5.828,8.09
				C136.54,290.059,193.483,375.469,256.007,375.469z"/>
			<path d="M256.007,332.802c30.524,0,41.318-20.89,41.762-21.777c2.082-4.173,0.41-9.182-3.729-11.332
				c-4.122-2.133-9.259-0.521-11.477,3.584c-0.273,0.512-6.946,12.459-26.556,12.459c-19.618,0-26.283-11.947-26.505-12.348
				c-2.108-4.207-7.219-5.931-11.452-3.814c-4.215,2.108-5.922,7.236-3.814,11.452C214.68,311.913,225.483,332.802,256.007,332.802z
				"/>
			<path d="M213.34,238.065c4.71,0,8.533-3.823,8.533-8.533v-5.615c0.546,0.529,0.922,0.964,0.956,1.024
				c1.527,2.918,4.497,4.591,7.586,4.591c1.323,0,2.671-0.307,3.934-0.964c4.173-2.176,5.803-7.33,3.627-11.511
				c-2.534-4.873-10.581-13.124-24.636-13.124c-14.054,0-22.101,8.252-24.644,13.124c-2.116,4.087-0.546,8.969,3.465,11.23
				c4.002,2.278,9.156,0.811,11.554-3.123c0.085-0.128,0.495-0.631,1.092-1.195v5.564
				C204.807,234.242,208.621,238.065,213.34,238.065z"/>
		</g>
	</g>
</g>
<g>
</g>
<g>
</g>
<g>
</g>
<g>
</g>
<g>
</g>
<g>
</g>
<g>
</g>
<g>
</g>
<g>
</g>
<g>
</g>
<g>
</g>
<g>
</g>
<g>
</g>
<g>
</g>
<g>
</g>
</svg>
