<?xml version="1.0" encoding="iso-8859-1"?>
<!-- Generator: Adobe Illustrator 19.0.0, SVG Export Plug-In . SVG Version: 6.00 Build 0)  -->
<svg version="1.1" id="Layer_1" xmlns="http://www.w3.org/2000/svg" xmlns:xlink="http://www.w3.org/1999/xlink" x="0px" y="0px"
	 viewBox="0 0 512.009 512.009" style="enable-background:new 0 0 512.009 512.009;" xml:space="preserve">
<g>
	<g>
		<g>
			<path d="M307.203,418.142c0.009,4.71,3.831,8.525,8.533,8.525h0.009c4.71-0.008,8.525-3.823,8.525-8.533
				c0-1.007-0.085-25.071-7.868-49.519c-11.008-34.594-31.889-52.881-60.399-52.881c-28.501,0-49.391,18.287-60.399,52.881
				c-7.774,24.448-7.868,48.512-7.868,49.519c0,4.719,3.823,8.533,8.533,8.533c4.719,0,8.533-3.814,8.533-8.533
				c0-0.853,0.589-85.333,51.2-85.333C306.486,332.8,307.203,417.289,307.203,418.142z"/>
			<path d="M141.255,169.771c1.468,0.734,36.83,17.963,114.748,17.963c29.056,0,55.467-2.372,78.507-7.066
				c4.617-0.939,7.603-5.444,6.665-10.069c-0.939-4.617-5.436-7.578-10.061-6.656c-21.931,4.463-47.198,6.724-75.11,6.724
				c-55.919,0-88.678-9.318-101.214-13.807c6.025-28.681,33.715-139.793,101.214-139.793c6.204,0,12.169,0.111,17.911,0.316
				c2.014,0.06,3.857,0.213,5.828,0.307c3.618,0.171,7.305,0.324,10.743,0.58c2.082,0.154,3.994,0.384,6.007,0.563
				c3.123,0.273,6.298,0.529,9.242,0.87c2.031,0.23,3.866,0.546,5.803,0.802c2.748,0.375,5.564,0.717,8.166,1.143
				c1.963,0.324,3.738,0.708,5.606,1.058c2.389,0.444,4.847,0.862,7.108,1.357c1.826,0.393,3.499,0.853,5.239,1.28
				c2.108,0.512,4.292,1.007,6.281,1.562c1.656,0.461,3.149,0.981,4.727,1.468c1.886,0.589,3.84,1.143,5.606,1.766
				c1.502,0.521,2.833,1.092,4.25,1.638c1.664,0.649,3.388,1.28,4.949,1.954c1.331,0.572,2.517,1.195,3.772,1.801
				c1.459,0.691,2.978,1.374,4.326,2.099c1.178,0.631,2.202,1.297,3.302,1.937c1.254,0.751,2.577,1.476,3.729,2.244
				c1.016,0.666,1.886,1.365,2.833,2.048c1.067,0.785,2.193,1.57,3.183,2.372c0.845,0.7,1.579,1.434,2.364,2.15
				c0.887,0.819,1.835,1.63,2.637,2.466c0.708,0.742,1.306,1.493,1.937,2.244c0.725,0.845,1.485,1.681,2.116,2.543
				c0.563,0.759,1.016,1.545,1.519,2.313c0.546,0.862,1.143,1.715,1.604,2.577c0.427,0.794,0.751,1.596,1.118,2.398
				c0.393,0.862,0.811,1.724,1.126,2.586c0.29,0.811,0.486,1.63,0.717,2.432c0.188,0.708,0.41,1.417,0.555,2.125
				c-7.714,1.391-15.198,1.911-22.076,1.954c-10.957-0.444-22.886-1.809-32.367-3.422c-4.369-7.945-9.276-15.659-14.925-22.724
				c-2.953-3.678-8.311-4.284-12.006-1.331c-3.669,2.935-4.275,8.311-1.331,11.989c32.179,40.235,40.781,106.01,40.866,106.667
				c0.546,4.309,4.215,7.467,8.456,7.467c0.35,0,0.708-0.017,1.067-0.06c4.676-0.589,7.996-4.855,7.407-9.532
				c-0.256-2.048-4.898-37.35-20.284-73.412c5.828,0.776,13.158,1.417,21.393,1.451c14.029,0.623,28.706-0.162,37.205-4.83
				c0.111-0.06,0.196-0.162,0.307-0.23c0.247-0.154,0.469-0.333,0.7-0.512c0.469-0.35,0.887-0.734,1.271-1.178
				c0.196-0.222,0.375-0.452,0.546-0.691c0.341-0.486,0.614-1.007,0.845-1.553c0.111-0.247,0.239-0.486,0.316-0.742
				c0.265-0.819,0.435-1.681,0.435-2.577c0-18.014-11.691-76.8-162.133-76.8C164.5,0,137.748,154.172,136.656,160.734
				C136.041,164.429,137.902,168.098,141.255,169.771z"/>
			<path d="M204.803,256c0,4.719,3.823,8.533,8.533,8.533c4.719,0,8.533-3.814,8.533-8.533h8.533c4.719,0,8.533-3.814,8.533-8.533
				c0-4.71-3.814-8.533-8.533-8.533H196.27c-4.71,0-8.533,3.823-8.533,8.533c0,4.719,3.823,8.533,8.533,8.533H204.803z"/>
			<path d="M256.003,221.867c88.542,0,256-12.476,256-59.733c0-29.961-68.591-44.919-126.131-52.19
				c-4.599-0.563-8.943,2.722-9.532,7.398c-0.597,4.676,2.722,8.943,7.398,9.54c84.019,10.615,111.198,28.331,111.198,35.251
				c0,14.481-84.335,42.667-238.933,42.667S17.07,176.614,17.07,162.133c0-6.955,27.383-24.755,112.026-35.362
				c4.676-0.58,7.996-4.847,7.407-9.523c-0.589-4.676-4.873-8.03-9.532-7.407C69.055,117.094,0.003,132.062,0.003,162.133
				C0.003,209.391,167.461,221.867,256.003,221.867z"/>
			<path d="M247.47,349.867c-4.71,0-8.533,3.823-8.533,8.533c0,4.719,3.823,8.533,8.533,8.533h17.067
				c4.719,0,8.533-3.814,8.533-8.533c0-4.71-3.814-8.533-8.533-8.533H247.47z"/>
			<path d="M315.736,238.933h-34.133c-4.71,0-8.533,3.823-8.533,8.533c0,4.719,3.823,8.533,8.533,8.533h8.533
				c0,4.719,3.823,8.533,8.533,8.533c4.719,0,8.533-3.814,8.533-8.533h8.533c4.719,0,8.533-3.814,8.533-8.533
				C324.27,242.756,320.455,238.933,315.736,238.933z"/>
			<path d="M391.308,272.009c10.564-3.149,18.295-12.962,18.295-24.542V230.4c0-4.71-3.814-8.533-8.533-8.533
				c-4.71,0-8.533,3.823-8.533,8.533v17.067c0,4.71-3.823,8.533-8.533,8.533c-4.164,0-7.731,3.021-8.414,7.134
				c-0.085,0.486-8.055,47.249-23.151,71.603c-6.332,2.97-15.659,6.596-19.635,6.596c-4.71,0-8.533,3.823-8.533,8.533
				c0,4.719,3.823,8.533,8.533,8.533c5.205,0,12.032-2.108,17.877-4.352c1.826,66.193-41.651,132.326-94.677,140.791
				c-53.018-8.465-96.495-74.598-94.669-140.791c5.837,2.244,12.672,4.352,17.869,4.352c4.719,0,8.533-3.814,8.533-8.533
				c0-4.71-3.814-8.533-8.533-8.533c-3.959,0-13.286-3.627-19.635-6.596c-15.095-24.354-23.066-71.117-23.142-71.603
				c-0.691-4.113-4.25-7.134-8.422-7.134c-4.702,0-8.533-3.823-8.533-8.533V230.4c0-4.71-3.814-8.533-8.533-8.533
				c-4.71,0-8.533,3.823-8.533,8.533v17.067c0,11.58,7.731,21.393,18.304,24.542c2.773,14.131,10.667,49.417,24.107,71.415
				c-7.296,79.309,44.493,159.138,109.986,168.491c0.401,0.06,0.802,0.085,1.203,0.085c0.41,0,0.811-0.026,1.212-0.085
				c65.485-9.352,117.274-89.182,109.986-168.491C380.641,321.425,388.534,286.14,391.308,272.009z"/>
			<path d="M511.568,500.77l-8.533-25.6c-9.993-29.943-33.391-48.503-119.031-48.503c-4.71,0-8.533,3.823-8.533,8.533
				c0,4.719,3.823,8.533,8.533,8.533c83.558,0,96.623,18.202,102.844,36.838l8.533,25.6c1.195,3.575,4.514,5.837,8.09,5.837
				c0.896,0,1.801-0.145,2.705-0.444C510.638,510.071,513.053,505.242,511.568,500.77z"/>
			<path d="M128.003,426.675c-85.641,0-109.039,18.56-119.023,48.495l-8.533,25.6c-1.493,4.471,0.922,9.301,5.393,10.795
				c0.896,0.299,1.809,0.444,2.697,0.444c3.576,0,6.904-2.261,8.098-5.837l8.533-25.6c6.221-18.637,19.277-36.83,102.835-36.83
				c4.719,0,8.533-3.814,8.533-8.533C136.536,430.498,132.722,426.675,128.003,426.675z"/>
		</g>
	</g>
</g>
<g>
</g>
<g>
</g>
<g>
</g>
<g>
</g>
<g>
</g>
<g>
</g>
<g>
</g>
<g>
</g>
<g>
</g>
<g>
</g>
<g>
</g>
<g>
</g>
<g>
</g>
<g>
</g>
<g>
</g>
</svg>
