<?xml version="1.0" encoding="iso-8859-1"?>
<!-- Generator: Adobe Illustrator 19.0.0, SVG Export Plug-In . SVG Version: 6.00 Build 0)  -->
<svg version="1.1" id="Capa_1" xmlns="http://www.w3.org/2000/svg" xmlns:xlink="http://www.w3.org/1999/xlink" x="0px" y="0px"
	 viewBox="0 0 496 496" style="enable-background:new 0 0 496 496;" xml:space="preserve">
<g>
	<g>
		<g>
			<path d="M76,312c0,17.648,14.352,32,32,32s32-14.352,32-32v-32H76V312z M92,296h32v16c0,8.824-7.176,16-16,16
				c-8.824,0-16-7.176-16-16V296z"/>
			<path d="M266.656,220.44l-13.272-8.928c-0.032,0.04-2.6,3.712-8.088,7.888l9.688,12.736
				C262.624,226.32,266.264,221.024,266.656,220.44z"/>
			<path d="M204,248c14.272,0,27.32-2.824,38.784-8.392l-7-14.392C226.52,229.72,215.832,232,204,232
				c-34.832,0-48.808-19.656-49.384-20.496l-13.272,8.928C142.096,221.56,160.216,248,204,248z"/>
			<path d="M452,192h-43.312L344,256.688l-1.376-1.376c-4.648-4.648-11.08-7.312-17.656-7.312c-2.528,0-4.912,0.488-7.216,1.192
				l-18.04-41.232c-6.368-14.552-20.76-23.96-36.64-23.96H249.16c10.368-8.376,18.32-19.568,22.792-32.4
				C287.72,149.632,300,136.296,300,120V96c0-52.936-43.064-96-96-96c-52.936,0-96,43.064-96,96v24
				c0,16.296,12.28,29.632,28.056,31.6c4.472,12.832,12.424,24.024,22.792,32.4h-15.072c-15.24,0-28.952,8.472-35.776,22.112
				l-14.2,28.392c-1.552,0.544-3.064,1.184-4.536,1.92l-32,16C49.088,256.512,44,264.736,44,273.888V312c0,35.288,28.712,64,64,64
				c5.576,0,10.96-0.792,16.128-2.136l-9.864,19.72l4.08,4.08c1.144,1.152,8.536,7.752,29.024,12.712l-6.448,32.232l-20.296,10.152
				C112.832,456.64,108,464.464,108,473.168C108,485.76,118.24,496,130.832,496h36.048c11.408,0,21.304-8.12,23.528-19.296
				l12.144-60.728c0.504,0,0.944,0.024,1.448,0.024c0.496,0,0.944-0.024,1.44-0.024l12.144,60.728
				C219.816,487.88,229.712,496,241.12,496h36.048C289.76,496,300,485.76,300,473.168c0-8.704-4.832-16.528-12.624-20.424
				l-20.296-10.152l-6.336-31.688c24.392-4.952,35.024-11.8,35.696-12.248l5.4-3.6l-19.936-49.84L308,371.312l11.688-11.688
				c14.672-1.712,26.232-13.272,27.944-27.944l0.368-0.368l5.376,5.376c4.648,4.648,11.08,7.312,17.656,7.312
				C384.8,344,396,332.8,396,319.032c0-6.672-2.592-12.944-7.312-17.656L387.312,300L452,235.312V192z M275.696,133.936
				c0.168-1.96,0.304-3.928,0.304-5.936v-21.776c4.76,2.776,8,7.88,8,13.776C284,126.016,280.624,131.208,275.696,133.936z M124,120
				c0-5.896,3.24-11,8-13.776V128c0,2.008,0.136,3.976,0.304,5.936C127.376,131.208,124,126.016,124,120z M133.24,88.752
				c-3.248,0.704-6.256,1.992-9.056,3.6C126.112,49.936,161.12,16,204,16s77.888,33.936,79.816,76.352
				c-2.8-1.608-5.808-2.896-9.056-3.6C271.664,79.072,262.688,72,252,72c-3.024,0-5.856-1.176-8-3.312l-16-16l-16,16
				c-2.144,2.136-4.976,3.312-8,3.312h-48C145.312,72,136.336,79.072,133.24,88.752z M148,128V96c0-4.408,3.584-8,8-8h48
				c7.288,0,14.152-2.84,19.312-8L228,75.312L232.688,80c5.168,5.16,12.024,8,19.312,8c4.416,0,8,3.592,8,8v32
				c0,30.88-25.128,56-56,56S148,158.88,148,128z M122.312,213.264C126.408,205.08,134.624,200,143.776,200H180v-4.2
				c7.52,2.672,15.576,4.2,24,4.2s16.48-1.528,24-4.2v4.2h35.072c9.528,0,18.168,5.648,21.992,14.376l6.384,14.6
				C281.776,237.464,248.008,264,204,264c-12.816,0-25.872-2.336-38.824-6.824c-1.848-1.888-3.984-3.528-6.44-4.752l-32-16
				c-4.368-2.176-9.12-3.536-13.968-4.072L122.312,213.264z M268,296l13.144,31.552l-4.504,4.504l-8.64-21.6V296z M180,304h-8
				v-28.128c10.68,2.68,21.392,4.128,32,4.128c17.824,0,34.008-3.776,48-9.048V304h-24H180z M212,320v16h-16v-16H212z M108,360
				c-26.472,0-48-21.528-48-48v-38.112c0-3.048,1.696-5.792,4.424-7.152l32-16C100,248.944,104,248,108,248s8,0.944,11.576,2.736
				l32,16c2.728,1.36,4.424,4.104,4.424,7.152V312C156,338.472,134.472,360,108,360z M174.728,473.568
				c-0.744,3.728-4.04,6.432-7.848,6.432h-36.048c-3.76,0-6.832-3.064-6.832-6.832c0-2.608,1.448-4.952,3.784-6.112l27.296-13.648
				L157.76,440h23.68L174.728,473.568z M184.64,424h-23.68l2.128-10.632c6.736,0.976,14.528,1.704,23.256,2.16L184.64,424z
				 M223.36,424l-1.696-8.472c8.552-0.424,16.344-1.112,23.28-2.016L247.04,424H223.36z M280.216,467.056
				c2.336,1.16,3.784,3.504,3.784,6.112c0,3.768-3.072,6.832-6.832,6.832H241.12c-3.808,0-7.104-2.704-7.84-6.432L226.56,440h23.68
				l2.68,13.408L280.216,467.056z M204,400c-41.32,0-61.424-6.872-69.616-10.864l13.632-27.264
				c12.632-10.16,21.312-25,23.432-41.872H180v32h48v-32h26.584l27.248,68.12C271.656,392.384,247.416,400,204,400z
				 M276.496,274.808l-5.256-12.624c11.832-6.352,21.008-13.064,26.904-17.896l6.336,14.472c-0.624,0.904-1.12,1.888-1.632,2.872
				L276.496,274.808z M282.672,289.608l18.552-9.272c1.184,3.832,3.176,7.376,6.088,10.288l5.376,5.376l-19.312,19.312
				L282.672,289.608z M308,348.688L295.312,336L324,307.312L336.688,320L308,348.688z M371.032,328c-2.36,0-4.672-0.96-6.344-2.624
				l-46.064-46.064c-1.696-1.696-2.624-3.944-2.624-6.344c0-4.944,4.024-8.968,8.968-8.968c2.36,0,4.672,0.96,6.344,2.624
				l46.064,46.064c1.696,1.696,2.624,3.944,2.624,6.344C380,323.976,375.976,328,371.032,328z M436,228.688l-60,60L355.312,268
				l60-60H436V228.688z"/>
			<rect x="228" y="104" width="16" height="16"/>
			<rect x="164" y="104" width="16" height="16"/>
			<rect x="196" y="152" width="16" height="16"/>
		</g>
	</g>
</g>
<g>
</g>
<g>
</g>
<g>
</g>
<g>
</g>
<g>
</g>
<g>
</g>
<g>
</g>
<g>
</g>
<g>
</g>
<g>
</g>
<g>
</g>
<g>
</g>
<g>
</g>
<g>
</g>
<g>
</g>
</svg>
