<?xml version="1.0" encoding="iso-8859-1"?>
<!-- Generator: Adobe Illustrator 18.0.0, SVG Export Plug-In . SVG Version: 6.00 Build 0)  -->
<!DOCTYPE svg PUBLIC "-//W3C//DTD SVG 1.1//EN" "http://www.w3.org/Graphics/SVG/1.1/DTD/svg11.dtd">
<svg version="1.1" id="Capa_1" xmlns="http://www.w3.org/2000/svg" xmlns:xlink="http://www.w3.org/1999/xlink" x="0px" y="0px"
	 viewBox="0 0 462.169 462.169" style="enable-background:new 0 0 462.169 462.169;" xml:space="preserve">
<g>
	<path d="M316.127,307.657c-11.304,0-21.638-6.643-26.329-16.926l-2.222-4.864l45.566-7.177c1.445-0.228,2.74-1.022,3.599-2.207
		c0.858-1.185,1.209-2.663,0.975-4.107c-6.106-37.646-6.99-75.942-2.626-113.824l1.32-11.466c4.664-40.5-14.138-80.624-47.9-102.22
		c-8.182-5.233-17.025-9.316-26.285-12.137c-13.301-4.056-23.157-14.856-25.739-28.271c-0.496-2.577-2.744-4.444-5.368-4.459
		c-0.012,0-0.021,0-0.032,0c-2.61,0-4.863,1.836-5.388,4.396c-0.005,0.021-0.025,0.124-0.029,0.145
		c-2.566,13.332-12.423,24.132-25.721,28.188c-9.264,2.822-18.107,6.906-26.287,12.138c-33.764,21.596-52.565,61.72-47.9,102.22
		l1.32,11.466c4.363,37.886,3.479,76.182-2.627,113.825c-0.234,1.444,0.116,2.922,0.975,4.107c0.858,1.185,2.153,1.979,3.599,2.207
		l47.676,7.509l-2.065,4.534c-4.69,10.28-15.024,16.923-26.328,16.923h-2.279c-32.132,0-58.273,26.147-58.273,58.286v90.726
		c0,3.038,2.463,5.5,5.5,5.5h275.658c3.037,0,5.5-2.462,5.5-5.5v-90.726C374.414,333.804,348.266,307.657,316.127,307.657z
		 M363.414,365.943v58.9c-3.261,0.541-6.577,0.831-9.912,0.831c-33.328,0-60.442-27.114-60.442-60.442
		c0-18.178,8.018-35.081,22.016-46.613c0.351,0.009,0.699,0.039,1.052,0.039C342.201,318.657,363.414,339.869,363.414,365.943z
		 M230.778,303.203c-13.784,0-26.88-5.149-36.921-14.301l17.414,2.743c1.76,0.278,3.546-0.315,4.79-1.59
		c1.245-1.274,1.795-3.073,1.477-4.826l-1.771-9.758c4.889,1.143,9.91,1.724,15.015,1.724c5.32,0,10.554-0.628,15.649-1.871
		l-1.798,9.905c-0.318,1.753,0.232,3.551,1.477,4.826c1.043,1.068,2.466,1.657,3.935,1.657c0.284,0,0.57-0.022,0.855-0.067
		l16.71-2.632C257.613,298.118,244.654,303.203,230.778,303.203z M248.627,263.223c-5.73,1.969-11.719,2.972-17.846,2.972
		c-5.911,0-11.681-0.933-17.2-2.76l-13.68-75.36c-0.475-2.616-2.753-4.518-5.411-4.518h-16.703c-5.234,0-10.155-2.039-13.857-5.741
		c-3.822-3.822-5.858-8.908-5.734-14.319c0.24-10.552,9.256-19.136,20.097-19.136h106.09c5.234,0,10.156,2.039,13.858,5.74
		c3.821,3.822,5.858,8.907,5.734,14.319c-0.241,10.552-9.256,19.137-20.097,19.137h-16.198c-2.658,0-4.937,1.902-5.411,4.518
		L248.627,263.223z M138.007,157.293l-1.32-11.466c-4.188-36.354,12.651-72.347,42.9-91.694c7.333-4.691,15.262-8.353,23.566-10.882
		c8.887-2.71,16.583-7.769,22.414-14.414v86.501c0,3.038,2.463,5.5,5.5,5.5s5.5-2.462,5.5-5.5V28.802
		c5.835,6.661,13.544,11.734,22.449,14.449c8.301,2.529,16.229,6.19,23.564,10.882c30.248,19.348,47.087,55.34,42.9,91.694
		l-1.32,11.466c-4.269,37.057-3.646,74.5,1.847,111.385l-69.17,10.895l15.433-85.016h11.606c16.769,0,30.718-13.407,31.095-29.886
		c0.191-8.445-2.988-16.381-8.955-22.348c-5.778-5.779-13.463-8.962-21.636-8.962h-106.09c-16.77,0-30.719,13.407-31.095,29.885
		c-0.193,8.444,2.987,16.381,8.954,22.349c5.778,5.78,13.462,8.963,21.636,8.963h12.111l15.433,85.016l-69.171-10.895
		C141.653,231.798,142.276,194.355,138.007,157.293z M146.029,318.657h1.111c13.969,11.532,21.969,28.417,21.969,46.575
		c0,33.328-27.114,60.442-60.442,60.442c-3.334,0-6.65-0.29-9.911-0.831v-58.9C98.755,339.869,119.962,318.657,146.029,318.657z
		 M98.755,435.98c3.272,0.457,6.586,0.693,9.911,0.693c39.394,0,71.442-32.049,71.442-71.442c0-18.313-6.873-35.54-19.144-48.67
		c10.313-3.463,19.008-11.043,23.669-21.243c10.965,10.781,25.302,17.355,40.644,18.631v137.219H98.755V435.98z M236.278,451.169
		V313.953c16.401-1.338,31.432-8.62,42.61-20.631l0.904,1.978c4.4,9.644,12.402,16.958,21.973,20.661
		c-12.625,13.202-19.705,30.678-19.705,49.271c0,39.394,32.049,71.442,71.442,71.442c3.325,0,6.639-0.237,9.912-0.693v15.188
		H236.278z"/>
	<path d="M204.584,155.897c-3.037,0-5.5,2.462-5.5,5.5v12.5c0,3.038,2.463,5.5,5.5,5.5s5.5-2.462,5.5-5.5v-12.5
		C210.084,158.359,207.622,155.897,204.584,155.897z"/>
	<path d="M263.084,161.397c0-3.038-2.463-5.5-5.5-5.5s-5.5,2.462-5.5,5.5v12.5c0,3.038,2.463,5.5,5.5,5.5s5.5-2.462,5.5-5.5V161.397
		z"/>
	<path d="M240.955,214.597c-5.106,5.105-13.414,5.107-18.522,0c-2.146-2.147-5.631-2.147-7.777,0c-2.148,2.148-2.148,5.63,0,7.778
		c4.697,4.698,10.868,7.046,17.039,7.046c6.17,0,12.341-2.349,17.038-7.046c2.148-2.148,2.148-5.63,0-7.778
		C246.585,212.449,243.101,212.449,240.955,214.597z"/>
</g>
<g>
</g>
<g>
</g>
<g>
</g>
<g>
</g>
<g>
</g>
<g>
</g>
<g>
</g>
<g>
</g>
<g>
</g>
<g>
</g>
<g>
</g>
<g>
</g>
<g>
</g>
<g>
</g>
<g>
</g>
</svg>
