<?xml version="1.0" encoding="iso-8859-1"?>
<!-- Generator: Adobe Illustrator 18.0.0, SVG Export Plug-In . SVG Version: 6.00 Build 0)  -->
<!DOCTYPE svg PUBLIC "-//W3C//DTD SVG 1.1//EN" "http://www.w3.org/Graphics/SVG/1.1/DTD/svg11.dtd">
<svg version="1.1" id="Capa_1" xmlns="http://www.w3.org/2000/svg" xmlns:xlink="http://www.w3.org/1999/xlink" x="0px" y="0px"
	 viewBox="0 0 454.834 454.834" style="enable-background:new 0 0 454.834 454.834;" xml:space="preserve">
<g>
	<path d="M340.771,314.567c1.717-4.052,2.083-8.58,0.964-13.012c-1.59-6.293-5.938-11.352-11.931-13.879l-27.198-11.465
		c9.453-14.371,14.831-31.467,14.831-49.467v-14.965c12.454-2.553,21.851-13.597,21.851-26.794c0-5.913-1.893-11.596-5.374-16.271
		c0.358-3.165,0.094-6.439-0.897-9.645l-5.916-19.131c-2.663-8.597-6.402-16.75-11.131-24.338c0.633-0.77,1.066-1.714,1.205-2.764
		L331.281,6.222c0.305-2.302-0.869-4.547-2.934-5.61c-2.064-1.064-4.574-0.716-6.271,0.868l-45.452,42.422L231.171,1.48
		c-2.113-1.972-5.393-1.972-7.506,0l-45.452,42.422L132.761,1.48c-1.699-1.584-4.207-1.931-6.271-0.868
		c-2.064,1.063-3.238,3.309-2.934,5.61l14.106,106.612c0.139,1.051,0.573,1.995,1.206,2.765c-4.731,7.585-8.471,15.738-11.135,24.34
		l-5.915,19.129c-0.991,3.205-1.255,6.478-0.897,9.642c-3.481,4.676-5.373,10.36-5.373,16.274c0,13.198,9.396,24.242,21.85,26.794
		v14.965c0,18.001,5.378,35.097,14.831,49.467l-27.197,11.465c-5.992,2.527-10.341,7.585-11.931,13.879
		c-1.121,4.437-0.752,8.97,0.961,13.014c-13.231,10.955-21.014,27.27-21.014,44.615v90.15c0,3.038,2.463,5.5,5.5,5.5h257.74
		c3.037,0,5.5-2.462,5.5-5.5v-90.15C361.787,341.837,354.003,325.521,340.771,314.567z M325.53,297.812
		c2.783,1.174,4.802,3.52,5.539,6.437c0.742,2.938,0.094,5.959-1.806,8.323c-0.193,0.244-0.428,0.505-0.695,0.773l-57.959,57.958
		l-35.296-34.089l29.11-28.406c12.254-5.524,22.889-13.633,31.356-23.536L325.53,297.812z M227.417,375.604
		c13.233,0,24,10.766,24,24s-10.767,24-24,24s-24-10.766-24-24S214.184,375.604,227.417,375.604z M250.028,372.918
		c-6.104-5.18-13.996-8.314-22.611-8.314s-16.506,3.134-22.611,8.314l-2.298-3.981l24.909-24.057l24.909,24.057L250.028,372.918z
		 M227.417,329.55l-14.271-13.925c4.691,0.749,9.456,1.139,14.271,1.139c4.815,0,9.58-0.391,14.27-1.139L227.417,329.55z
		 M328.287,184.984c0,7.084-4.537,13.112-10.851,15.378v-11.401l0.308-0.103c4.094-1.372,7.581-3.786,10.271-6.847
		C328.194,182.983,328.287,183.978,328.287,184.984z M322.507,162.317c1.894,6.124-1.079,12.721-6.702,15.473
		c-6.201-21.204-21.277-39.208-41.266-48.914l-23.202-11.264h52.788c5.434,7.842,9.632,16.428,12.466,25.577L322.507,162.317z
		 M304.709,179.173c-3.885,0.427-7.651,1.738-11.042,3.903c-5.814,3.713-9.831,9.469-11.311,16.208
		c-0.842,3.833-3.134,7.096-6.455,9.186c-3.312,2.083-7.232,2.739-11.034,1.84c-24.525-5.78-50.372-5.782-74.899,0
		c-3.806,0.896-7.722,0.243-11.033-1.84c-3.321-2.09-5.613-5.352-6.455-9.186c-1.479-6.738-5.496-12.494-11.311-16.207
		c-3.392-2.167-7.16-3.478-11.047-3.904c5.625-17.505,18.308-32.306,34.978-40.401l42.317-20.544l42.317,20.543
		C286.399,146.864,299.082,161.664,304.709,179.173z M174.46,55.446c2.113,1.972,5.393,1.972,7.506,0l45.452-42.422l45.453,42.422
		c2.113,1.972,5.393,1.972,7.506,0l37.986-35.455l-5.655,42.74h-14.226c-3.037,0-5.5,2.462-5.5,5.5s2.463,5.5,5.5,5.5h12.77
		l-4.35,32.88H147.935l-4.351-32.88h12.771c3.037,0,5.5-2.462,5.5-5.5s-2.463-5.5-5.5-5.5h-14.226l-5.656-42.74L174.46,55.446z
		 M132.327,162.317l5.914-19.126c2.836-9.156,7.037-17.742,12.474-25.579h52.781l-23.202,11.264
		c-19.993,9.708-35.072,27.711-41.271,48.911C133.403,175.034,130.434,168.439,132.327,162.317z M126.547,184.984
		c0-1.006,0.093-2,0.272-2.973c2.69,3.061,6.177,5.475,10.271,6.847l0.307,0.103v11.401
		C131.083,198.096,126.547,192.068,126.547,184.984z M148.396,190.059c2.411,0.178,4.756,0.95,6.852,2.289
		c3.334,2.129,5.638,5.43,6.486,9.294c1.479,6.735,5.506,12.466,11.342,16.138c4.121,2.593,8.776,3.927,13.518,3.927
		c1.962,0,3.938-0.229,5.896-0.69c22.875-5.393,46.979-5.393,69.853,0c6.693,1.577,13.59,0.428,19.415-3.237
		c5.836-3.672,9.863-9.403,11.342-16.138c0.849-3.864,3.152-7.166,6.486-9.294c2.095-1.338,4.439-2.111,6.851-2.289v36.685
		c0,33.542-21.258,63.518-52.906,74.592c-8.347,2.938-17.132,4.428-26.113,4.428s-17.768-1.49-26.124-4.431
		c-31.639-11.071-52.896-41.046-52.896-74.589V190.059z M123.765,304.249c0.737-2.917,2.756-5.263,5.539-6.437l29.748-12.541
		c8.468,9.905,19.105,18.015,31.359,23.538l29.109,28.404l-35.296,34.089l-57.961-57.96c-0.265-0.264-0.497-0.523-0.72-0.804
		C123.671,310.208,123.022,307.187,123.765,304.249z M350.787,443.834h-246.74v-84.65c0-13.892,6.162-26.969,16.661-35.841
		l59.561,59.561c1.072,1.073,2.48,1.611,3.889,1.611c1.377,0,2.754-0.514,3.821-1.544l6.375-6.157l2.913,5.047
		c-3.076,5.207-4.849,11.271-4.849,17.744c0,19.299,15.701,35,35,35s35-15.701,35-35c0-6.473-1.773-12.537-4.849-17.744l2.913-5.047
		l6.375,6.157c1.067,1.03,2.444,1.544,3.821,1.544c1.408,0,2.816-0.538,3.889-1.611l59.561-59.56
		c10.498,8.873,16.66,21.949,16.66,35.841V443.834z"/>
	<path d="M200.917,152.104c-3.037,0-5.5,2.462-5.5,5.5v20c0,3.038,2.463,5.5,5.5,5.5s5.5-2.462,5.5-5.5v-20
		C206.417,154.566,203.954,152.104,200.917,152.104z"/>
	<path d="M253.917,152.104c-3.037,0-5.5,2.462-5.5,5.5v20c0,3.038,2.463,5.5,5.5,5.5c3.037,0,5.5-2.462,5.5-5.5v-20
		C259.417,154.566,256.954,152.104,253.917,152.104z"/>
	<path d="M206.67,73.733h15.248v15.249c0,3.038,2.463,5.5,5.5,5.5s5.5-2.462,5.5-5.5V73.733h15.249c3.037,0,5.5-2.462,5.5-5.5
		s-2.463-5.5-5.5-5.5h-15.249V47.485c0-3.038-2.463-5.5-5.5-5.5s-5.5,2.462-5.5,5.5v15.249H206.67c-3.037,0-5.5,2.462-5.5,5.5
		S203.633,73.733,206.67,73.733z"/>
	<path d="M227.417,416.508c9.321,0,16.904-7.583,16.904-16.904s-7.583-16.905-16.904-16.905s-16.905,7.583-16.905,16.905
		S218.096,416.508,227.417,416.508z M227.417,393.699c3.256,0,5.904,2.649,5.904,5.905s-2.648,5.904-5.904,5.904
		s-5.905-2.648-5.905-5.904S224.161,393.699,227.417,393.699z"/>
	<path d="M204.917,242.104h45c3.037,0,5.5-2.462,5.5-5.5s-2.463-5.5-5.5-5.5h-45c-3.037,0-5.5,2.462-5.5,5.5
		S201.88,242.104,204.917,242.104z"/>
</g>
<g>
</g>
<g>
</g>
<g>
</g>
<g>
</g>
<g>
</g>
<g>
</g>
<g>
</g>
<g>
</g>
<g>
</g>
<g>
</g>
<g>
</g>
<g>
</g>
<g>
</g>
<g>
</g>
<g>
</g>
</svg>
