<?xml version="1.0" encoding="iso-8859-1"?>
<!-- Generator: Adobe Illustrator 19.0.0, SVG Export Plug-In . SVG Version: 6.00 Build 0)  -->
<svg version="1.1" id="Layer_1" xmlns="http://www.w3.org/2000/svg" xmlns:xlink="http://www.w3.org/1999/xlink" x="0px" y="0px"
	 viewBox="0 0 512.093 512.093" style="enable-background:new 0 0 512.093 512.093;" xml:space="preserve">
<g>
	<g>
		<g>
			<path d="M351.805,317.523c-0.239,1.109-0.555,2.133-0.99,3.021c-9.31,18.603-2.287,64.478-0.785,73.489
				c0.691,4.164,4.309,7.125,8.405,7.125c0.461,0,0.939-0.034,1.408-0.119c4.651-0.768,7.791-5.171,7.023-9.813
				c-3.123-18.748-6.093-52.446-0.785-63.053c5.504-11.017,3.106-25.421,0.785-39.356c-1.877-11.23-3.814-22.861-0.785-28.911
				c5.572-11.153,3.004-24.013,0.734-35.354c-1.903-9.498-3.695-18.466-0.734-24.38c10.001-19.994,0.853-48,0.461-49.178
				c-1.161-3.49-4.42-5.837-8.098-5.837c-0.239,0-24.491-0.094-48.495-8.098c-4.497-1.493-9.31,0.93-10.803,5.402
				c-1.485,4.471,0.93,9.301,5.402,10.795c18.961,6.315,37.709,8.183,47.317,8.738c1.869,8.329,3.413,21.623-1.05,30.549
				c-5.581,11.153-3.004,24.013-0.734,35.354c1.894,9.498,3.686,18.466,0.734,24.38c-5.129,10.257-3.396,23.45-1.263,36.463
				c-18.534,35.208-66.398,86.818-93.508,86.818s-74.974-51.61-93.508-86.818c2.133-13.013,3.874-26.206-1.254-36.463
				c-2.961-5.914-1.169-14.882,0.734-24.38c2.27-11.341,4.838-24.201-0.734-35.354c-4.429-8.858-2.901-22.187-1.041-30.549
				c9.617-0.555,28.356-2.423,47.309-8.738c4.471-1.493,6.886-6.323,5.393-10.795c-1.493-4.471-6.315-6.895-10.795-5.402
				c-23.893,7.97-48.265,8.098-48.512,8.098c-3.661,0-6.929,2.355-8.09,5.837c-0.384,1.178-9.532,29.184,0.469,49.178
				c2.953,5.914,1.161,14.882-0.734,24.38c-2.27,11.341-4.847,24.201,0.734,35.354c3.021,6.05,1.084,17.681-0.785,28.911
				c-2.321,13.935-4.727,28.339,0.785,39.356c5.299,10.607,2.33,44.305-0.785,63.053c-0.777,4.642,2.364,9.045,7.014,9.813
				c0.478,0.085,0.947,0.119,1.417,0.119c4.096,0,7.706-2.961,8.405-7.125c1.493-9.011,8.516-54.886-0.785-73.489
				c-0.444-0.887-0.751-1.911-0.998-3.021c23.646,34.048,63.855,75.102,95.761,75.102S328.168,351.571,351.805,317.523z"/>
			<path d="M117.787,119.379c0.58,0.119,1.161,0.179,1.732,0.179c3.959,0,7.518-2.782,8.354-6.81
				c0.06-0.282,3.081-14.336,11.127-31.573c17.587,13.338,61.747,43.11,108.51,46.498v8.951c0,4.71,3.823,8.533,8.533,8.533
				s8.533-3.823,8.533-8.533v-8.951c47.761-3.456,92.843-34.458,109.628-47.343c7.518,16.546,9.702,30.362,9.924,31.906
				c0.683,4.651,4.966,7.876,9.66,7.228c4.659-0.666,7.902-4.975,7.236-9.634c-0.179-1.271-4.634-31.403-24.73-59.657
				C357.634,23.917,321.691-5.344,256.411,3.335c-32.29-7.108-60.937-2.842-85.154,12.698c-46.626,29.926-59.571,90.701-60.1,93.278
				C110.201,113.918,113.179,118.424,117.787,119.379z M180.567,30.334c18.927-12.126,41.446-15.838,66.944-11.273v66.364
				c0,4.71,3.823,8.533,8.533,8.533s8.533-3.823,8.533-8.533V19.633c54.997-5.393,85.146,19.891,101.393,45.457
				c-13.824,10.812-62.345,45.935-109.926,45.935c-46.293,0-93.67-33.417-108.843-45.107
				C155.18,52.836,166.001,39.661,180.567,30.334z"/>
			<path d="M224.411,309.792c-3.328,3.337-3.328,8.73,0,12.066c1.135,1.126,11.614,11.034,31.633,11.034
				c20.028,0,30.507-9.907,31.633-11.034c3.294-3.294,3.285-8.568,0.051-11.913c-3.234-3.345-8.619-3.439-12.023-0.247
				c-0.265,0.247-6.699,6.127-19.661,6.127c-12.774,0-19.208-5.709-19.652-6.118C233.056,306.456,227.714,306.49,224.411,309.792z"
				/>
			<path d="M196.311,401.159c0,11.102-29.739,17.041-51.2,17.067c-4.719,0-8.533,3.831-8.525,8.533c0,4.719,3.814,8.533,8.525,8.533
				c6.989,0,68.267-0.956,68.267-34.133c0-4.71-3.823-8.533-8.533-8.533S196.311,396.448,196.311,401.159z"/>
			<path d="M366.978,435.292c4.71,0,8.533-3.823,8.533-8.533s-3.823-8.533-8.533-8.533c-17.852,0-51.2-5.001-51.2-17.067
				c0-4.71-3.823-8.533-8.533-8.533s-8.533,3.823-8.533,8.533C298.711,434.336,359.989,435.292,366.978,435.292z"/>
			<path d="M264.834,162.225c0-4.71-3.814-8.533-8.533-8.533h-0.085c-4.71,0-8.491,3.823-8.491,8.533
				c0,4.71,3.866,8.533,8.576,8.533C261.019,170.759,264.834,166.936,264.834,162.225z"/>
			<path d="M511.148,499.744c-1.451-2.884-35.217-68.454-103.39-72.593c-1.903-8.311-3.524-21.7,0.99-30.711
				c5.572-11.153,3.004-24.013,0.734-35.354c-1.903-9.498-3.695-18.466-0.734-24.38c5.675-11.358,2.884-22.511,0.64-31.488
				c-2.167-8.678-3.362-14.276-0.64-19.703c8.661-17.314,3.174-58.24,1.169-71.083c7.031-18.79,8.115-67.618,8.26-77.679
				c0.051-3.482-2.005-6.639-5.205-7.987s-6.895-0.631-9.361,1.826l-25.6,25.6c-3.328,3.336-3.328,8.73,0,12.066
				c3.336,3.337,8.738,3.337,12.066,0l10.308-10.3c-1.075,21.069-3.311,44.459-6.903,51.652c-5.137,10.266-9.54,12.143-10.24,12.382
				c-4.335,0.41-7.731,4.053-7.731,8.499c0,4.71,3.823,8.533,8.533,8.533c1.306,0,5.734-0.469,11.179-4.48
				c1.621,17.058,1.98,35.891-1.741,43.332c-5.683,11.358-2.893,22.519-0.648,31.488c2.167,8.678,3.362,14.276,0.648,19.712
				c-5.581,11.153-3.004,24.013-0.734,35.354c1.894,9.498,3.686,18.466,0.734,24.38c-7.296,14.592-4.403,33.391-2.15,42.982
				c-16.102,11.247-72.875,48.683-134.588,63.019c-62.882-14.336-119.859-51.78-135.979-63.027c2.253-9.591,5.146-28.39-2.15-42.974
				c-2.961-5.914-1.169-14.882,0.734-24.38c2.27-11.341,4.838-24.201-0.734-35.354c-2.722-5.436-1.527-11.034,0.64-19.712
				c2.244-8.969,5.035-20.13-0.64-31.488c-3.729-7.45-3.362-26.283-1.741-43.332c5.436,4.011,9.873,4.48,11.17,4.48
				c4.71,0,8.533-3.823,8.533-8.533c0-4.446-3.396-8.09-7.731-8.499c-0.7-0.239-5.103-2.116-10.231-12.382
				c-3.601-7.194-5.828-30.583-6.912-51.652l10.308,10.3c3.337,3.337,8.738,3.337,12.066,0c3.337-3.337,3.337-8.73,0-12.066
				l-25.6-25.6c-2.458-2.458-6.144-3.174-9.352-1.826c-3.2,1.348-5.265,4.506-5.214,7.987c0.145,10.061,1.237,58.889,8.26,77.679
				c-2.005,12.843-7.484,53.76,1.178,71.083c2.714,5.427,1.519,11.025-0.649,19.703c-2.244,8.969-5.035,20.13,0.649,31.488
				c2.953,5.922,1.161,14.882-0.734,24.38c-2.27,11.341-4.847,24.201,0.734,35.354c4.471,8.951,2.859,22.374,0.973,30.711
				C36.157,431.298,2.391,496.86,0.949,499.744c-2.108,4.207-0.401,9.327,3.806,11.435c4.207,2.125,9.335,0.41,11.452-3.789
				c0.316-0.631,31.787-61.722,92.041-63.522c13.005,9.361,75.46,52.344,146.68,68.028c0.606,0.128,1.22,0.196,1.835,0.196
				c0.623,0,1.254-0.068,1.869-0.205c69.905-15.684,132.224-58.65,145.22-68.019c60.254,1.801,91.725,62.891,92.041,63.522
				c2.116,4.207,7.236,5.914,11.443,3.789C511.549,509.071,513.248,503.951,511.148,499.744z"/>
			<path d="M298.711,230.492c4.71,0,8.533-3.823,8.533-8.533v-5.615c0.555,0.529,0.922,0.964,0.964,1.024
				c1.519,2.918,4.497,4.591,7.578,4.591c1.323,0,2.671-0.307,3.934-0.964c4.181-2.176,5.803-7.33,3.627-11.511
				c-2.534-4.873-10.581-13.124-24.636-13.124c-14.054,0-22.101,8.252-24.636,13.124c-2.125,4.087-0.546,8.969,3.456,11.23
				c4.011,2.287,9.165,0.811,11.563-3.123c0.085-0.128,0.495-0.623,1.084-1.195v5.564
				C290.178,226.669,294.001,230.492,298.711,230.492z"/>
			<path d="M213.378,196.359c-14.054,0-22.101,8.252-24.636,13.124c-2.125,4.087-0.546,8.969,3.456,11.23
				c4.011,2.287,9.165,0.811,11.563-3.123c0.085-0.128,0.495-0.623,1.084-1.195v5.564c0,4.71,3.823,8.533,8.533,8.533
				c4.71,0,8.533-3.823,8.533-8.533v-5.615c0.555,0.529,0.922,0.964,0.964,1.024c1.519,2.918,4.497,4.591,7.578,4.591
				c1.323,0,2.671-0.307,3.934-0.964c4.181-2.176,5.803-7.33,3.627-11.511C235.479,204.61,227.432,196.359,213.378,196.359z"/>
		</g>
	</g>
</g>
<g>
</g>
<g>
</g>
<g>
</g>
<g>
</g>
<g>
</g>
<g>
</g>
<g>
</g>
<g>
</g>
<g>
</g>
<g>
</g>
<g>
</g>
<g>
</g>
<g>
</g>
<g>
</g>
<g>
</g>
</svg>
