
		<svg xmlns="http://www.w3.org/2000/svg" xmlns:xlink="http://www.w3.org/1999/xlink" version="1.1" width="3179.640718562874" height="1185.62874251497">
			<rect fill="#2c304a" width="3179.640718562874" height="1185.62874251497"/>
			<g transform="scale(8.982035928143713) translate(10, 10)">
				<defs id="SvgjsDefs1734"/><g id="main_text" rel="mainfill" name="main_text" feature="main_text" xmlns:name="mainText_mainfill" groupName="main_text" fill="#4a9ccc" transform="translate(72.59696796214503, -14.418183639243736) scale(4.502525624726714)"><path d="M6.06 7.199999999999999 c3.52 0 5.54 2.32 5.54 6.4 c0 4.06 -2.02 6.4 -5.54 6.4 l-4.86 0 l0 -12.8 l4.86 0 z M9.1 17.259999999999998 c0.68 -0.84 1.02 -2.06 1.02 -3.66 s-0.34 -2.84 -1.02 -3.68 c-0.66 -0.82 -1.7 -1.26 -3.04 -1.26 l-3.38 0 l0 9.86 l3.38 0 c1.34 0 2.38 -0.42 3.04 -1.26 z M14.76 20 l-1.52 0 l3.68 -12.8 l2.48 0 l3.68 12.8 l-1.52 0 l-1.18 -4.08 l-4.76 1.12 z M18.16 8.22 l-2.06 7.18 l3.86 -0.9 z M34.14 20 l-1.68 0 l-6.04 -10.22 l0 10.22 l-1.48 0 l0 -12.8 l1.68 0 l6.04 10.24 l0 -10.22 l1.48 0 l0 12.78 z M41.400000000000006 7.199999999999999 c3.52 0 5.54 2.32 5.54 6.4 c0 4.06 -2.02 6.4 -5.54 6.4 l-4.86 0 l0 -12.8 l4.86 0 z M44.440000000000005 17.259999999999998 c0.68 -0.84 1.02 -2.06 1.02 -3.66 s-0.34 -2.84 -1.02 -3.68 c-0.66 -0.82 -1.7 -1.26 -3.04 -1.26 l-3.38 0 l0 9.86 l3.38 0 c1.34 0 2.38 -0.42 3.04 -1.26 z M57.900000000000006 7.199999999999999 c0.18 1.26 0 2.58 -0.5 3.82 c-0.6 1.54 -1.72 3.1 -3.38 4.76 l0 4.22 l-1.48 0 l0 -4.22 c-1.68 -1.66 -2.78 -3.22 -3.4 -4.76 c-0.48 -1.2 -0.64 -2.48 -0.5 -3.82 l1.5 0 c-0.4 2.32 0.6 4.62 3.14 7.22 c2.52 -2.6 3.54 -4.9 3.14 -7.22 l1.48 0 z"/></g><g id="slogan_text" rel="mainfill" name="slogan_text" feature="slogan_text" xmlns:name="sloganText_mainfill" groupName="slogan_text" fill="#4a9ccc" transform="translate(75.78737256241129, 79.7766532953308) scale(1.3327475230953516)"><path d="M6.7383 22.519575 q5.126953125 0 5.126953125 -5.8984375 q0 -5.13671875 -5.126953125 -5.13671875 l-3.2715 0 l0 11.035 l3.2715 0 z M1.6602 23.984375 l0 -13.965 l5.0781 0 q6.93359375 0 6.93359375 6.6015625 q0 7.36328125 -6.93359375 7.36328125 l-5.0781 0 z M16.1132375 23.984375 l0 -10.254 l1.2207 0 l0.32227 1.3086 q1.572265625 -1.30859375 3.45703125 -1.30859375 q3.837890625 0 3.837890625 3.818359375 l0 6.4355 l-1.8066 0 l0 -6.4648 q0 -2.28515625 -2.275390625 -2.28515625 q-1.552734375 0 -2.94921875 1.298828125 l0 7.4512 l-1.8066 0 z M33.154315625 22.519575 q5.126953125 0 5.126953125 -5.8984375 q0 -5.13671875 -5.126953125 -5.13671875 l-3.2715 0 l0 11.035 l3.2715 0 z M28.076215625 23.984375 l0 -13.965 l5.0781 0 q6.93359375 0 6.93359375 6.6015625 q0 7.36328125 -6.93359375 7.36328125 l-5.0781 0 z M42.578153125 10.019375 l8.4375 0 l0 1.4648 l-6.8945 0 l-0.23438 4.3164 q1.142578125 -0.21484375 2.40234375 -0.21484375 q5.2734375 0 5.2734375 4.00390625 q0 4.4921875 -5.46875 4.4921875 q-1.85546875 0 -3.80859375 -0.5859375 l0 -1.5625 q1.953125 0.68359375 3.90625 0.68359375 q3.564453125 0 3.564453125 -3.02734375 q0 -2.5390625 -3.466796875 -2.5390625 q-2.197265625 0 -4.00390625 0.390625 z M58.2324625 13.730375 q4.375 0 4.375 4.326171875 q0 0.615234375 -0.087890625 1.318359375 l-7.1973 0 q0 3.14453125 3.671875 3.14453125 q1.748046875 0 3.10546875 -0.390625 l0 1.4648 q-1.357421875 0.390625 -3.30078125 0.390625 q-5.283203125 0 -5.283203125 -5.244140625 q0 -5.009765625 4.716796875 -5.009765625 z M55.3222625 17.871075 l5.5469 0 q-0.05859375 -2.6953125 -2.63671875 -2.6953125 q-2.734375 0 -2.91015625 2.6953125 z  M80.66403125 23.437495 q-1.689453125 0.64453125 -3.642578125 0.64453125 q-7.587890625 0 -7.587890625 -7.275390625 q0 -6.884765625 7.32421875 -6.884765625 q2.099609375 0 3.90625 0.5859375 l0 1.5625 q-1.806640625 -0.68359375 -3.7109375 -0.68359375 q-5.712890625 0 -5.712890625 5.419921875 q0 5.810546875 5.625 5.810546875 q0.8984375 0 1.9921875 -0.234375 l0 -4.7461 l1.8066 0 l0 5.8008 z M92.285421875 13.730375 l0 10.254 l-1.2402 0 l-0.3125 -1.3086 q-1.865234375 1.30859375 -3.75 1.30859375 q-3.53515625 0 -3.53515625 -3.818359375 l0 -6.4355 l1.8066 0 l0 6.4648 q0 2.28515625 2.265625 2.28515625 q1.552734375 0 2.958984375 -1.298828125 l0 -7.4512 l1.8066 0 z M97.2168 13.730375 l0 10.254 l-1.8066 0 l0 -10.254 l1.8066 0 z M97.2168 10.019375 l0 1.709 l-1.8066 0 l0 -1.709 l1.8066 0 z M107.226553125 15.820275 q-1.09375 -0.52734375 -2.5 -0.52734375 q-3.095703125 0 -3.095703125 3.291015625 q0 3.896484375 3.095703125 3.896484375 q1.40625 0 2.5 -0.380859375 l0 -6.2793 z M109.032953125 23.369145 q-1.865234375 0.615234375 -4.599609375 0.615234375 q-4.580078125 0 -4.580078125 -5.33203125 q0 -4.921875 4.86328125 -4.921875 q1.328125 0 2.509765625 0.48828125 l0 -4.1992 l1.8066 0 l0 13.35 z M116.191446875 13.730375 q4.375 0 4.375 4.326171875 q0 0.615234375 -0.087890625 1.318359375 l-7.1973 0 q0 3.14453125 3.671875 3.14453125 q1.748046875 0 3.10546875 -0.390625 l0 1.4648 q-1.357421875 0.390625 -3.30078125 0.390625 q-5.283203125 0 -5.283203125 -5.244140625 q0 -5.009765625 4.716796875 -5.009765625 z M113.281246875 17.871075 l5.5469 0 q-0.05859375 -2.6953125 -2.63671875 -2.6953125 q-2.734375 0 -2.91015625 2.6953125 z"/></g><g id="SvgjsG1737" rel="mainfill" name="symbol" feature="symbol" xmlns:name="symbol_mainfill" fill="#4a9ccc" transform="translate(6, 6) scale(0.42278713781302923)"><g><path d="M25.391,39.735l3.136-1.734l-1.048-1.896l-3.137,1.733l-1.553-2.808l3.137-1.734l-1.047-1.895l-3.137,1.734l-1.553-2.809   l3.137-1.734l-1.048-1.897l-10.211,5.644l1.048,1.897l3.136-1.734l1.552,2.809l-3.135,1.734l1.047,1.896l3.137-1.733l1.552,2.809   l-3.136,1.732l1.048,1.896l3.136-1.733l9.34,16.896c0.18-2.596,0.458-5.206,0.824-7.811L25.391,39.735z"/><path d="M4.068,42.036l2.26,2.277l-2.543,2.523l1.524,1.539l2.544-2.524l2.26,2.278l-2.545,2.522l1.525,1.539l2.545-2.523   l18.95,19.112c-0.068-2.097-0.059-4.228,0.016-6.375L14.834,46.5l2.544-2.523l-1.525-1.538l-2.545,2.522l-2.26-2.277l2.545-2.524   l-1.525-1.538l-2.545,2.523l-2.259-2.277l2.545-2.524l-1.525-1.538L0,43.021l1.525,1.538L4.068,42.036z"/><path d="M96.479,76.15l-2.523-1.055c-0.148-0.062-1.437-0.614-3.119-1.711c-2.33-1.52-5.415-4.089-7.275-7.861   c-0.011-0.023-0.022-0.047-0.032-0.07c-0.14-0.007-0.277-0.021-0.419-0.021H44.473c-0.141,0-0.278,0.014-0.417,0.021   c-0.112,0.231-0.229,0.456-0.351,0.677c-0.605,1.107-1.313,2.104-2.069,2.995c-0.701,0.826-1.441,1.561-2.179,2.208   c-0.403,0.353-0.805,0.683-1.199,0.984c-0.524,0.402-1.034,0.757-1.512,1.069c-0.349,0.228-0.678,0.429-0.986,0.61   c-1.177,0.691-2.014,1.051-2.131,1.1l-2.523,1.055l-0.24-2.726c-0.084-0.954-0.146-1.92-0.196-2.891   c-2.24,1.196-4.589,2.688-6.959,4.592c-5.266,4.247-10.447,10.501-14.169,19.181c-3.734,8.681-6.04,19.709-6.038,33.638   c0,3.029,0.107,6.2,0.335,9.52c0.289,4.222,3.805,7.453,7.975,7.453c0.183,0,0.368-0.006,0.553-0.019   c4.409-0.303,7.737-4.122,7.434-8.529c-0.204-2.971-0.297-5.775-0.297-8.425c0-12.185,2.007-20.967,4.735-27.314   c3.571-8.204,8.271-12.557,12.508-15.154v54.204c-0.252,1.566-0.686,4.321-1.243,8.086l2.604-1.835l20.264-14.282l32.465-22.88   V83.81c1.221,0.97,2.518,2.406,3.837,4.658c1.731,3.006,3.41,7.648,4.29,14.573l14.375-10.131   c-0.313-1.272-0.646-2.511-1.017-3.682c-3.068-9.818-8.436-16.241-14.009-19.698c-0.441-0.277-0.88-0.53-1.317-0.771   c-0.051,1.575-0.142,3.132-0.276,4.666L96.479,76.15z"/><path d="M44.576,177.323c-5.231-0.289-9.289-1.234-12.62-2.946c-2.089,17.41-4.323,39.667-5.62,63.528   c-0.374,6.894,4.912,12.785,11.806,13.159c0.231,0.013,0.461,0.018,0.689,0.018c6.592,0.001,12.108-5.159,12.47-11.822   c1.271-23.463,3.495-45.469,5.559-62.569c-3.296,0.449-6.521,0.695-9.63,0.695C46.324,177.387,45.438,177.364,44.576,177.323z"/><path d="M76.17,239.259c0.361,6.662,5.877,11.824,12.471,11.824c0.228,0,0.458-0.006,0.688-0.019   c6.893-0.374,12.177-6.265,11.806-13.159c-1.582-29.077-4.555-55.774-6.96-74.216c-7.812,4.349-15.936,7.76-23.92,10.096   C72.414,191.26,74.826,214.441,76.17,239.259z"/><path d="M90.836,118.818l-12.69,8.943l-11.763,8.29l-4.611,3.25l-14.162,9.98l-13.683,9.644c-0.109,0.803-0.219,1.622-0.331,2.465   c1.255,0.428,2.431,0.968,3.521,1.651c1.152,0.759,3.928,1.684,8.077,1.875c0.688,0.034,1.392,0.053,2.118,0.053   c3.366,0,7.209-0.412,11.184-1.154c0.745-5.579,1.42-10.263,1.949-13.805c0.038-0.25,0.074-0.49,0.11-0.729h6.362   c0.467,3.098,1.056,7.147,1.716,11.994c8.07-2.535,16.17-6.256,23.714-10.903c-0.657-4.54-1.186-7.947-1.511-9.989V118.818z"/><path d="M59.635,133.207l-20.177,14.22l-4.354,3.069L16.325,163.73c-5.357,1.398-9.334,3.307-9.51,3.35   c-2.11,0.977-3.027,3.481-2.048,5.593c0.107,0.233,0.236,0.454,0.38,0.658c1.149,1.631,3.335,2.261,5.21,1.391l0.002-0.001   c0,0,0.189-0.088,0.623-0.273c1.517-0.651,5.625-2.276,9.957-3.144c4.356-0.944,8.764-0.77,10.603,0.545   c0.218,0.136,0.45,0.254,0.674,0.381c3.415,1.93,7.604,2.829,12.456,3.097c3.753,0.18,7.947-0.051,12.439-0.704   c4.078-0.593,8.41-1.554,12.892-2.876c7.579-2.236,15.584-5.545,23.566-10.023c-1.101-1.942-1.559-4.251-1.159-6.597   c0.024-0.14,0.038-0.28,0.068-0.421c0.096-0.448,0.193-0.915,0.289-1.393c0.065-0.318,0.129-0.641,0.194-0.97   c-0.102,0.062-0.203,0.124-0.305,0.186c-8.005,4.846-16.149,8.395-23.752,10.755c-2.893,0.898-5.71,1.633-8.407,2.194   c-0.77,0.161-1.53,0.306-2.28,0.44c-4.937,0.882-9.414,1.189-13.115,0.995c-4.263-0.196-7.476-1.144-9.05-2.178   c-0.882-0.553-1.795-0.98-2.723-1.324c-2.281-0.845-4.661-1.129-6.961-1.136c-0.231,0.002-0.461,0.008-0.692,0.016l8.62-6.075   l9.862-6.95l17.252-12.159l7.572-5.337l4.273-3.012l17.58-12.389l8.689-6.124l15.107-10.647l22.307-15.721   c-0.085,0.223-0.186,0.436-0.268,0.661c-1.076,3.049-1.714,6.432-0.938,9.944c0.445,1.832,0.256,5.177-0.992,9.256   c-2.427,8.209-8.768,19.14-18.455,29.569c-0.142,1.002-0.316,2.219-0.515,3.579c-0.429,2.933-0.977,6.547-1.578,10.22   c9.02-7.969,16.138-16.677,21.205-24.961c3.426-5.61,5.92-11.024,7.412-15.983c1.47-4.967,2.027-9.469,1.14-13.535   c-0.302-1.264-0.112-3.126,0.657-5.262c1.121-3.191,3.438-6.756,5.477-9.392c1.019-1.323,1.962-2.427,2.642-3.19   c0.339-0.381,0.613-0.676,0.797-0.871c0.18-0.195,0.254-0.269,0.254-0.269c1.631-1.659,1.606-4.325-0.05-5.954   c-1.658-1.631-4.323-1.607-5.954,0.051c-0.104,0.109-3.225,3.273-6.339,7.816l-27.611,19.46l-14.612,10.298l-8.375,5.903   L59.635,133.207z"/><path d="M113.598,139.063c0.168-1.165,0.325-2.31,0.47-3.438c0.144-1.11,0.276-2.203,0.398-3.278   c0.084-0.741,0.17-1.483,0.244-2.208c0.001-0.011,0.003-0.023,0.004-0.034h0.002c0,0,0-0.001,0-0.001   c0.601-5.895,0.88-11.246,0.88-16.12c-0.001-4.43-0.243-8.448-0.674-12.14l-15.338,10.81c0.005,0.442,0.015,0.875,0.015,1.33   c0,4.263-0.247,9.075-0.8,14.49h0.001c0,0,0,0.001,0,0.001c-0.001,0.005-0.001,0.01-0.002,0.015   c-0.597,5.827-1.556,12.357-2.944,19.638c-0.172,0.9-0.351,1.814-0.537,2.738c-0.188,0.94-0.388,1.9-0.59,2.865   c-0.098,0.467-0.189,0.922-0.291,1.395c-0.427,1.995-0.064,3.97,0.869,5.615c0.33,0.583,0.726,1.128,1.191,1.612   c1.067,1.11,2.466,1.925,4.085,2.272c0.564,0.121,1.129,0.18,1.684,0.18c3.692,0,7.012-2.569,7.818-6.324   c0.469-2.188,0.896-4.309,1.3-6.392c0.2-1.031,0.391-2.049,0.576-3.055C112.591,145.566,113.138,142.243,113.598,139.063z"/><path d="M58.691,59.643c8.469,1.971,16.93-1.127,22.214-7.312c-5.229-33.258-13.582-37.083-17.113-37.083   c-3.531,0-11.884,3.825-17.113,37.083C49.691,55.869,53.819,58.509,58.691,59.643z"/><path d="M32.621,69.551c0.019,0.45,0.042,0.9,0.068,1.348c0.046,0.788,0.1,1.572,0.168,2.352c0,0,0.571-0.241,1.442-0.727   c0.781-0.436,1.805-1.08,2.892-1.928c0.026-0.021,0.053-0.042,0.079-0.063c0.254-0.2,0.507-0.409,0.765-0.631   c0.875-0.757,1.755-1.639,2.553-2.669c0.149-0.193,0.286-0.403,0.429-0.605c0.132-0.188,0.27-0.366,0.396-0.562   c1.05-1.638,1.855-3.57,2.133-5.814c0.26-2.095,0.722-5.771,1.453-10.164c1.879-11.293,5.564-27.358,12.32-33.893   c1.905-1.843,4.049-2.944,6.472-2.944c2.423,0,4.567,1.101,6.472,2.944c6.759,6.538,10.445,22.617,12.323,33.911   c0.729,4.384,1.19,8.053,1.449,10.145c0.249,2.008,0.932,3.753,1.823,5.274c0.105,0.179,0.201,0.368,0.312,0.541   c1.222,1.904,2.772,3.398,4.221,4.528c2.3,1.796,4.334,2.656,4.334,2.656c0.159-1.805,0.253-3.636,0.295-5.481   C95.725,36.221,79.76,0,63.791,0C50.126,0,36.463,26.526,33.247,53.949c-0.318,2.715-0.535,5.439-0.639,8.147   c-0.029,0.758-0.048,1.515-0.059,2.27C32.524,66.107,32.547,67.837,32.621,69.551z"/></g></g>
			</g>
		</svg>
	