
		<svg xmlns="http://www.w3.org/2000/svg" xmlns:xlink="http://www.w3.org/1999/xlink" version="1.1" width="3222.76595853164" height="1820.5049647254375">
			
			<g transform="scale(11.138297926582002) translate(10, 10)">
				<defs id="SvgjsDefs8431"/><g id="SvgjsG8432" featureKey="qbYkyi" fill="#fff" transform="matrix(1,0,0,1,0,0)"/><g id="SvgjsG8433" featureKey="PY3I9z" fill="#fff" transform="matrix(0.42278713781302923,0,0,0.42278713781302923,6,19)"><g><path d="M25.391,39.735l3.136-1.734l-1.048-1.896l-3.137,1.733l-1.553-2.808l3.137-1.734l-1.047-1.895l-3.137,1.734l-1.553-2.809   l3.137-1.734l-1.048-1.897l-10.211,5.644l1.048,1.897l3.136-1.734l1.552,2.809l-3.135,1.734l1.047,1.896l3.137-1.733l1.552,2.809   l-3.136,1.732l1.048,1.896l3.136-1.733l9.34,16.896c0.18-2.596,0.458-5.206,0.824-7.811L25.391,39.735z"/><path d="M4.068,42.036l2.26,2.277l-2.543,2.523l1.524,1.539l2.544-2.524l2.26,2.278l-2.545,2.522l1.525,1.539l2.545-2.523   l18.95,19.112c-0.068-2.097-0.059-4.228,0.016-6.375L14.834,46.5l2.544-2.523l-1.525-1.538l-2.545,2.522l-2.26-2.277l2.545-2.524   l-1.525-1.538l-2.545,2.523l-2.259-2.277l2.545-2.524l-1.525-1.538L0,43.021l1.525,1.538L4.068,42.036z"/><path d="M96.479,76.15l-2.523-1.055c-0.148-0.062-1.437-0.614-3.119-1.711c-2.33-1.52-5.415-4.089-7.275-7.861   c-0.011-0.023-0.022-0.047-0.032-0.07c-0.14-0.007-0.277-0.021-0.419-0.021H44.473c-0.141,0-0.278,0.014-0.417,0.021   c-0.112,0.231-0.229,0.456-0.351,0.677c-0.605,1.107-1.313,2.104-2.069,2.995c-0.701,0.826-1.441,1.561-2.179,2.208   c-0.403,0.353-0.805,0.683-1.199,0.984c-0.524,0.402-1.034,0.757-1.512,1.069c-0.349,0.228-0.678,0.429-0.986,0.61   c-1.177,0.691-2.014,1.051-2.131,1.1l-2.523,1.055l-0.24-2.726c-0.084-0.954-0.146-1.92-0.196-2.891   c-2.24,1.196-4.589,2.688-6.959,4.592c-5.266,4.247-10.447,10.501-14.169,19.181c-3.734,8.681-6.04,19.709-6.038,33.638   c0,3.029,0.107,6.2,0.335,9.52c0.289,4.222,3.805,7.453,7.975,7.453c0.183,0,0.368-0.006,0.553-0.019   c4.409-0.303,7.737-4.122,7.434-8.529c-0.204-2.971-0.297-5.775-0.297-8.425c0-12.185,2.007-20.967,4.735-27.314   c3.571-8.204,8.271-12.557,12.508-15.154v54.204c-0.252,1.566-0.686,4.321-1.243,8.086l2.604-1.835l20.264-14.282l32.465-22.88   V83.81c1.221,0.97,2.518,2.406,3.837,4.658c1.731,3.006,3.41,7.648,4.29,14.573l14.375-10.131   c-0.313-1.272-0.646-2.511-1.017-3.682c-3.068-9.818-8.436-16.241-14.009-19.698c-0.441-0.277-0.88-0.53-1.317-0.771   c-0.051,1.575-0.142,3.132-0.276,4.666L96.479,76.15z"/><path d="M44.576,177.323c-5.231-0.289-9.289-1.234-12.62-2.946c-2.089,17.41-4.323,39.667-5.62,63.528   c-0.374,6.894,4.912,12.785,11.806,13.159c0.231,0.013,0.461,0.018,0.689,0.018c6.592,0.001,12.108-5.159,12.47-11.822   c1.271-23.463,3.495-45.469,5.559-62.569c-3.296,0.449-6.521,0.695-9.63,0.695C46.324,177.387,45.438,177.364,44.576,177.323z"/><path d="M76.17,239.259c0.361,6.662,5.877,11.824,12.471,11.824c0.228,0,0.458-0.006,0.688-0.019   c6.893-0.374,12.177-6.265,11.806-13.159c-1.582-29.077-4.555-55.774-6.96-74.216c-7.812,4.349-15.936,7.76-23.92,10.096   C72.414,191.26,74.826,214.441,76.17,239.259z"/><path d="M90.836,118.818l-12.69,8.943l-11.763,8.29l-4.611,3.25l-14.162,9.98l-13.683,9.644c-0.109,0.803-0.219,1.622-0.331,2.465   c1.255,0.428,2.431,0.968,3.521,1.651c1.152,0.759,3.928,1.684,8.077,1.875c0.688,0.034,1.392,0.053,2.118,0.053   c3.366,0,7.209-0.412,11.184-1.154c0.745-5.579,1.42-10.263,1.949-13.805c0.038-0.25,0.074-0.49,0.11-0.729h6.362   c0.467,3.098,1.056,7.147,1.716,11.994c8.07-2.535,16.17-6.256,23.714-10.903c-0.657-4.54-1.186-7.947-1.511-9.989V118.818z"/><path d="M59.635,133.207l-20.177,14.22l-4.354,3.069L16.325,163.73c-5.357,1.398-9.334,3.307-9.51,3.35   c-2.11,0.977-3.027,3.481-2.048,5.593c0.107,0.233,0.236,0.454,0.38,0.658c1.149,1.631,3.335,2.261,5.21,1.391l0.002-0.001   c0,0,0.189-0.088,0.623-0.273c1.517-0.651,5.625-2.276,9.957-3.144c4.356-0.944,8.764-0.77,10.603,0.545   c0.218,0.136,0.45,0.254,0.674,0.381c3.415,1.93,7.604,2.829,12.456,3.097c3.753,0.18,7.947-0.051,12.439-0.704   c4.078-0.593,8.41-1.554,12.892-2.876c7.579-2.236,15.584-5.545,23.566-10.023c-1.101-1.942-1.559-4.251-1.159-6.597   c0.024-0.14,0.038-0.28,0.068-0.421c0.096-0.448,0.193-0.915,0.289-1.393c0.065-0.318,0.129-0.641,0.194-0.97   c-0.102,0.062-0.203,0.124-0.305,0.186c-8.005,4.846-16.149,8.395-23.752,10.755c-2.893,0.898-5.71,1.633-8.407,2.194   c-0.77,0.161-1.53,0.306-2.28,0.44c-4.937,0.882-9.414,1.189-13.115,0.995c-4.263-0.196-7.476-1.144-9.05-2.178   c-0.882-0.553-1.795-0.98-2.723-1.324c-2.281-0.845-4.661-1.129-6.961-1.136c-0.231,0.002-0.461,0.008-0.692,0.016l8.62-6.075   l9.862-6.95l17.252-12.159l7.572-5.337l4.273-3.012l17.58-12.389l8.689-6.124l15.107-10.647l22.307-15.721   c-0.085,0.223-0.186,0.436-0.268,0.661c-1.076,3.049-1.714,6.432-0.938,9.944c0.445,1.832,0.256,5.177-0.992,9.256   c-2.427,8.209-8.768,19.14-18.455,29.569c-0.142,1.002-0.316,2.219-0.515,3.579c-0.429,2.933-0.977,6.547-1.578,10.22   c9.02-7.969,16.138-16.677,21.205-24.961c3.426-5.61,5.92-11.024,7.412-15.983c1.47-4.967,2.027-9.469,1.14-13.535   c-0.302-1.264-0.112-3.126,0.657-5.262c1.121-3.191,3.438-6.756,5.477-9.392c1.019-1.323,1.962-2.427,2.642-3.19   c0.339-0.381,0.613-0.676,0.797-0.871c0.18-0.195,0.254-0.269,0.254-0.269c1.631-1.659,1.606-4.325-0.05-5.954   c-1.658-1.631-4.323-1.607-5.954,0.051c-0.104,0.109-3.225,3.273-6.339,7.816l-27.611,19.46l-14.612,10.298l-8.375,5.903   L59.635,133.207z"/><path d="M113.598,139.063c0.168-1.165,0.325-2.31,0.47-3.438c0.144-1.11,0.276-2.203,0.398-3.278   c0.084-0.741,0.17-1.483,0.244-2.208c0.001-0.011,0.003-0.023,0.004-0.034h0.002c0,0,0-0.001,0-0.001   c0.601-5.895,0.88-11.246,0.88-16.12c-0.001-4.43-0.243-8.448-0.674-12.14l-15.338,10.81c0.005,0.442,0.015,0.875,0.015,1.33   c0,4.263-0.247,9.075-0.8,14.49h0.001c0,0,0,0.001,0,0.001c-0.001,0.005-0.001,0.01-0.002,0.015   c-0.597,5.827-1.556,12.357-2.944,19.638c-0.172,0.9-0.351,1.814-0.537,2.738c-0.188,0.94-0.388,1.9-0.59,2.865   c-0.098,0.467-0.189,0.922-0.291,1.395c-0.427,1.995-0.064,3.97,0.869,5.615c0.33,0.583,0.726,1.128,1.191,1.612   c1.067,1.11,2.466,1.925,4.085,2.272c0.564,0.121,1.129,0.18,1.684,0.18c3.692,0,7.012-2.569,7.818-6.324   c0.469-2.188,0.896-4.309,1.3-6.392c0.2-1.031,0.391-2.049,0.576-3.055C112.591,145.566,113.138,142.243,113.598,139.063z"/><path d="M58.691,59.643c8.469,1.971,16.93-1.127,22.214-7.312c-5.229-33.258-13.582-37.083-17.113-37.083   c-3.531,0-11.884,3.825-17.113,37.083C49.691,55.869,53.819,58.509,58.691,59.643z"/><path d="M32.621,69.551c0.019,0.45,0.042,0.9,0.068,1.348c0.046,0.788,0.1,1.572,0.168,2.352c0,0,0.571-0.241,1.442-0.727   c0.781-0.436,1.805-1.08,2.892-1.928c0.026-0.021,0.053-0.042,0.079-0.063c0.254-0.2,0.507-0.409,0.765-0.631   c0.875-0.757,1.755-1.639,2.553-2.669c0.149-0.193,0.286-0.403,0.429-0.605c0.132-0.188,0.27-0.366,0.396-0.562   c1.05-1.638,1.855-3.57,2.133-5.814c0.26-2.095,0.722-5.771,1.453-10.164c1.879-11.293,5.564-27.358,12.32-33.893   c1.905-1.843,4.049-2.944,6.472-2.944c2.423,0,4.567,1.101,6.472,2.944c6.759,6.538,10.445,22.617,12.323,33.911   c0.729,4.384,1.19,8.053,1.449,10.145c0.249,2.008,0.932,3.753,1.823,5.274c0.105,0.179,0.201,0.368,0.312,0.541   c1.222,1.904,2.772,3.398,4.221,4.528c2.3,1.796,4.334,2.656,4.334,2.656c0.159-1.805,0.253-3.636,0.295-5.481   C95.725,36.221,79.76,0,63.791,0C50.126,0,36.463,26.526,33.247,53.949c-0.318,2.715-0.535,5.439-0.639,8.147   c-0.029,0.758-0.048,1.515-0.059,2.27C32.524,66.107,32.547,67.837,32.621,69.551z"/></g></g><g id="SvgjsG8434" featureKey="CS4eRP" fill="#fff" transform="matrix(4.502525624726714,0,0,4.502525624726714,79.82353791218242,-16.5648908804243)"><path d="M20.38 5.9 q-0.72 0.24 -1.44 0.87 t-1.42 1.55 l0.18 0.06 q1.3 0.4 1.98 1.38 t0.83 2.28 t-0.17 2.8 t-1.02 2.94 t-1.7 2.69 t-2.22 2.06 t-2.6 1.05 t-2.82 -0.34 q-0.44 -0.18 -0.76 -0.44 t-0.56 -0.6 q-0.46 0.5 -1.13 1.15 t-1.42 1.21 t-1.5 0.91 t-1.35 0.28 t-0.99 -0.69 t-0.43 -2.02 l0 -0.14 l-0.08 0 q-0.94 -0.16 -1.44 -0.62 t-0.65 -1.09 t0 -1.35 t0.47 -1.4 t0.77 -1.25 t0.91 -0.88 t0.88 -0.3 t0.7 0.49 q-0.72 0.1 -1.39 0.54 t-1.18 1.07 t-0.78 1.36 t-0.21 1.39 t0.53 1.16 t1.45 0.66 l0.02 0 q0.02 -0.92 0.39 -1.98 t0.95 -2.06 t1.31 -1.86 t1.46 -1.37 t1.4 -0.59 t1.15 0.48 q0.2 0.24 0.25 0.62 t-0.03 0.86 q-0.1 0.46 -0.3 0.98 t-0.52 1.06 q-0.42 0.76 -1.03 1.48 t-1.36 1.29 t-1.62 0.93 t-1.83 0.38 l0 0.1 q0.04 1.4 0.41 1.97 t0.95 0.55 t1.27 -0.49 t1.37 -1.13 t1.26 -1.37 t0.92 -1.23 q-0.18 -0.66 -0.07 -1.4 t0.48 -1.4 t0.99 -1.19 t1.46 -0.79 q0.62 -1.1 1.27 -2.21 t1.32 -2.16 t1.37 -2.01 t1.44 -1.74 q-1.22 -0.18 -2.6 -0.06 t-2.72 0.49 t-2.52 0.99 t-1.98 1.44 q-0.3 0.28 -0.62 0.43 t-0.51 0.14 t-0.16 -0.2 t0.45 -0.59 q0.9 -0.84 2.23 -1.48 t2.83 -1.03 t3.02 -0.49 t2.82 0.12 q0.86 -0.88 1.76 -1.46 t1.88 -0.8 z M8.82 22.02 q0.32 0.4 0.82 0.65 t1.14 0.28 t1.43 -0.2 t1.71 -0.81 q1.22 -0.76 2.31 -1.94 t1.9 -2.53 t1.29 -2.77 t0.48 -2.64 t-0.53 -2.14 t-1.73 -1.28 l-0.3 -0.08 q-0.6 0.78 -1.19 1.72 t-1.18 1.95 t-1.19 2.08 t-1.2 2.11 q0.28 0.06 0.56 0.15 t0.49 0.24 t0.32 0.34 t0.05 0.45 q-0.42 -0.28 -0.88 -0.42 t-0.88 -0.18 q-0.84 1.44 -1.69 2.74 t-1.73 2.28 z M2.06 22.68 q0.6 -0.02 1.24 -0.29 t1.26 -0.71 t1.2 -1.02 t1.06 -1.2 q1.02 -1.32 1.4 -2.23 t0.28 -1.41 t-0.58 -0.6 t-1.16 0.21 t-1.49 1.04 t-1.55 1.85 q-0.72 1.1 -1.17 2.27 t-0.49 2.09 z M10.72 17.2 q-0.8 0.24 -1.34 0.68 t-0.82 0.99 t-0.33 1.14 t0.11 1.13 q0.58 -0.9 1.18 -1.89 t1.2 -2.05 z M23.46 20 q-0.4 -0.16 -0.46 -0.59 t0.02 -0.81 q0.04 -0.18 0.09 -0.37 t0.11 -0.39 q-0.1 0.1 -0.22 0.2 l-0.24 0.2 q-0.62 0.52 -1.2 0.97 t-1 0.75 l-0.06 0.04 q-0.4 -0.16 -0.47 -0.58 t0.01 -0.82 q0.14 -0.7 0.53 -1.51 t0.97 -1.5 t1.32 -1.13 t1.56 -0.4 q0.52 0.04 0.7 0.24 q0.18 0.18 0.14 0.46 l0.18 -0.16 q0.38 -0.26 0.7 -0.33 t0.55 0.02 t0.32 0.33 t0.01 0.6 q0 -0.68 -0.32 -0.66 t-0.78 0.45 t-0.97 1.15 t-0.91 1.45 t-0.6 1.34 t-0.02 0.83 q0.76 -0.52 1.4 -1.06 t1.32 -1.12 l-0.1 0.34 q-1.2 1.14 -2.58 2.06 z M22.880000000000003 15.36 q-0.46 0.42 -0.87 0.95 t-0.73 1.07 q-0.16 0.26 -0.33 0.57 t-0.3 0.63 t-0.19 0.64 t-0.02 0.58 q0.46 -0.32 1.01 -0.75 t1.13 -0.91 l0.8 -0.68 q0.3 -0.7 0.77 -1.41 t1.03 -1.23 q-0.16 -0.3 -0.44 -0.34 t-0.61 0.08 t-0.66 0.34 t-0.59 0.46 z M30.78 18.18 q-0.14 0.12 -0.44 0.4 t-0.65 0.57 t-0.66 0.52 t-0.45 0.27 q-0.42 -0.5 -0.42 -1.05 t0.25 -1.1 t0.65 -1.07 t0.78 -0.99 t0.64 -0.85 t0.24 -0.64 q0 -0.04 -0.02 -0.06 q-0.44 0.32 -0.98 0.77 t-1.08 0.91 q-0.52 0.46 -1 0.93 t-0.86 0.87 q-0.4 0.52 -0.62 1.07 t-0.06 1.21 q-0.46 -0.56 -0.45 -1.11 t0.28 -1.1 t0.7 -1.06 t0.81 -0.99 t0.61 -0.9 t0.09 -0.78 q0.08 -0.02 0.16 0.02 t0.12 0.08 q0.12 0.12 0.12 0.28 q0.06 0.54 -0.13 1 t-0.53 0.9 q0.16 -0.12 0.29 -0.25 t0.29 -0.27 q0.58 -0.52 1.13 -0.97 t0.95 -0.75 q0.1 -0.06 0.2 -0.03 t0.18 0.09 q0.1 0.14 0.1 0.28 q0.06 0.52 -0.12 0.97 t-0.48 0.87 t-0.66 0.82 t-0.66 0.83 t-0.47 0.89 t-0.09 0.98 q0.44 -0.32 0.99 -0.75 t1.07 -0.91 l0.9 -0.82 q-0.04 0.1 -0.08 0.21 t-0.08 0.21 q-0.1 0.08 -0.28 0.25 t-0.28 0.25 z M36.18000000000001 18.18 q-0.26 0.24 -0.55 0.49 t-0.57 0.48 t-0.54 0.43 t-0.44 0.34 l-0.04 0.02 q-0.46 -0.14 -0.56 -0.66 t0.1 -1.28 l-0.22 0.2 q-0.06 0.06 -0.4 0.34 t-0.74 0.6 q-0.46 0.36 -1.02 0.82 q-0.4 -0.16 -0.49 -0.56 t-0.05 -0.8 q0.08 -0.68 0.41 -1.48 t0.85 -1.48 t1.2 -1.11 t1.5 -0.39 q0.4 0.02 0.64 0.18 q0.62 -1.06 1.4 -2.12 t1.59 -1.96 t1.62 -1.57 t1.53 -0.97 l0.24 -0.12 q0.08 -0.02 0.2 -0.02 q0.1 0 0.12 0.02 q0.06 0.06 0.08 0.12 q0.02 0.08 -0.04 0.28 q-0.06 0.18 -0.24 0.42 q-0.44 0.62 -0.91 1.19 t-0.97 1.13 q-0.52 0.56 -1.03 1.11 t-1.05 1.09 l-2.16 2.14 q-0.12 0.22 -0.52 0.82 t-0.78 1.33 t-0.56 1.45 t0.12 1.14 l0.04 -0.04 q0.44 -0.32 0.97 -0.75 t1.07 -0.93 l0.26 -0.22 z M33.220000000000006 15.42 q-0.42 0.4 -0.79 0.92 t-0.65 1.06 q-0.14 0.24 -0.28 0.55 t-0.24 0.62 t-0.14 0.62 t0.02 0.57 q0.44 -0.32 0.97 -0.75 t1.07 -0.93 l0.5 -0.42 q0.2 -0.68 0.56 -1.45 t0.84 -1.61 q-0.2 -0.08 -0.45 -0.03 t-0.5 0.18 t-0.49 0.31 t-0.42 0.36 z M41.60000000000001 7.960000000000001 q-1.56 1.26 -2.96 2.92 t-2.48 3.34 l1.9 -1.94 q0.96 -1 1.87 -2.02 t1.75 -2.1 l0.1 -0.16 q0.02 -0.04 0.02 -0.1 l-0.02 -0.02 l-0.04 0 q-0.04 0 -0.06 0.02 q-0.02 0 -0.08 0.06 z M38.74000000000001 19.96 q-0.08 0.14 -0.14 0.28 t-0.14 0.3 q0.92 0.18 1.67 0.52 t1.16 0.82 t0.39 1.08 t-0.64 1.3 q0 -0.58 -0.23 -1.08 t-0.61 -0.9 t-0.9 -0.71 t-1.12 -0.53 q-0.34 0.6 -0.74 1.2 t-0.87 1.11 t-1.03 0.91 t-1.18 0.62 q-1.26 0.48 -2.04 0.32 t-1.08 -0.67 t-0.13 -1.24 t0.79 -1.37 q0.06 -0.08 0.14 -0.14 q0 -0.04 0.04 -0.04 q0.08 -0.08 0.12 -0.1 l0.04 -0.04 q0.3 -0.24 0.66 -0.44 t0.8 -0.34 q0.9 -0.32 1.92 -0.41 t2 0.01 l0.9 -1.62 q0.22 -0.4 0.49 -0.82 t0.55 -0.84 l-1.14 1.06 q-0.58 0.52 -1.13 0.97 t-0.95 0.75 l-0.06 0.04 q-0.42 -0.56 -0.37 -1.16 t0.34 -1.18 t0.72 -1.14 t0.79 -1.03 t0.55 -0.84 t-0.01 -0.59 q0.5 0.28 0.54 0.64 t-0.21 0.8 t-0.68 0.95 t-0.82 1.05 t-0.67 1.11 t-0.22 1.15 q0.44 -0.32 0.96 -0.74 t1.04 -0.88 q0.6 -0.54 1.08 -1.04 t0.89 -1 t0.78 -0.99 t0.75 -0.99 q-0.38 0.7 -0.69 1.28 t-0.58 1.1 t-0.53 1.04 l-0.54 1.08 z M37.400000000000006 20.84 q-1.06 -0.22 -2.15 -0.14 t-2.03 0.5 q-0.72 0.4 -1.08 0.93 t-0.41 1.06 t0.17 0.96 t0.65 0.61 t1.04 0.04 t1.35 -0.76 q0.82 -0.7 1.39 -1.51 t1.07 -1.69 z"/></g><g id="SvgjsG8435" featureKey="lhjtqp" fill="#fff" transform="matrix(1.3327475230953516,0,0,1.3327475230953516,78.53309873914914,103.01903943009297)"><path d="M14.46 16.84 q-0.38 2.36 -1.78 4.1 t-3.4 2.6 t-4.34 0.86 q-4.34 0 -4.34 -2.22 q0 -2.4 4.24 -10.78 q0.2 -0.4 0.3 -0.56 q-1.58 0.12 -3.22 0.7 t-2.14 1.44 q-0.02 0.06 -0.1 0.06 t-0.08 -0.11 t0.02 -0.15 q0.76 -2.08 2.78 -2.54 q0.92 -0.2 2.46 -0.2 l4.1 0 q2.84 0 4.22 1.54 t1.38 3.92 q0 0.58 -0.1 1.34 z M12.36 17 q0.22 -0.92 0.22 -1.76 q0 -1.94 -1.14 -3.22 q-0.64 -0.7 -1.75 -1.03 t-2.07 -0.33 q-0.96 1.26 -2.29 4.15 t-2.15 5.45 q-0.42 1.26 -0.42 2.03 t0.4 1.01 t1.42 0.24 q2.78 0 4.96 -1.87 t2.82 -4.67 z M21.94 17.22 l-0.88 -0.14 q-1.82 0 -3.1 1.39 t-1.28 2.79 q0 1.1 0.72 1.84 t2.02 0.74 q2.14 0 3.42 -1.14 t1.28 -2.38 t-1.1 -1.24 q-0.34 0 -0.6 0.42 t-0.28 0.74 q-0.32 -0.38 -0.32 -0.87 t0.55 -0.99 t1.43 -0.78 l3.02 -0.92 q2.02 -0.6 2.28 -1.22 q0.06 0.12 0.06 0.38 q0 0.88 -0.6 1.36 t-1.4 0.62 q-2.86 0.5 -3.8 0.98 q0.44 -0.12 0.68 -0.12 q0.7 0 1.09 0.44 t0.39 1.06 q0 1.36 -1.15 2.43 t-2.6 1.55 t-2.47 0.48 t-1.77 -0.14 t-1.47 -0.46 t-1.16 -0.93 t-0.44 -1.45 q0 -2.04 1.68 -3.48 t3.84 -1.54 q-0.72 -0.36 -1.13 -0.96 t-0.41 -1.28 q0 -1.22 0.88 -2.15 t2.07 -1.34 t2.35 -0.41 t1.93 0.57 t0.77 1.36 t-0.52 1.3 t-1.14 0.51 q-0.26 0 -0.38 -0.1 q0.9 -0.5 0.9 -1.44 q0 -1.18 -1.58 -1.18 t-2.68 1.02 t-1.1 2.16 q0 0.84 0.52 1.28 t1.16 0.48 l0.4 0 q0.54 0 0.54 0.22 q0 0.16 -0.21 0.35 t-0.41 0.19 z M44.440000000000005 16.84 q-0.38 2.36 -1.78 4.1 t-3.4 2.6 t-4.34 0.86 q-4.34 0 -4.34 -2.22 q0 -2.4 4.24 -10.78 q0.2 -0.4 0.3 -0.56 q-1.58 0.12 -3.22 0.7 t-2.14 1.44 q-0.02 0.06 -0.1 0.06 t-0.08 -0.11 t0.02 -0.15 q0.76 -2.08 2.78 -2.54 q0.92 -0.2 2.46 -0.2 l4.1 0 q2.84 0 4.22 1.54 t1.38 3.92 q0 0.58 -0.1 1.34 z M42.34 17 q0.22 -0.92 0.22 -1.76 q0 -1.94 -1.14 -3.22 q-0.64 -0.7 -1.75 -1.03 t-2.07 -0.33 q-0.96 1.26 -2.29 4.15 t-2.15 5.45 q-0.42 1.26 -0.42 2.03 t0.4 1.01 t1.42 0.24 q2.78 0 4.96 -1.87 t2.82 -4.67 z M46.620000000000005 15.7 q0 -0.42 2.56 -5.86 l3.8 0 q0.54 0 1.32 -0.04 l0.8 -0.06 q0.54 0 0.75 0.12 t0.21 0.61 t-0.44 1.49 l-0.56 1.44 l-0.4 0 l0.1 -0.34 q0.24 -0.62 -0.02 -1.14 q-0.14 -0.34 -0.88 -0.6 q-0.46 -0.18 -2.48 -0.18 l-0.1 0 l-1.6 0 q-1.28 2.74 -1.78 3.94 q1.26 -0.4 2.34 -0.4 q2.24 0 3.62 1.16 t1.38 2.88 q0 1.38 -0.61 2.47 t-1.61 1.71 q-2.04 1.26 -4.42 1.26 q-1.74 0 -2.94 -0.81 t-1.2 -2.41 q0 -0.94 0.55 -1.7 t1.41 -0.76 q0.5 0 0.9 0.28 q-0.9 0.98 -0.9 2.29 t0.74 1.91 t1.9 0.6 q1.52 0 2.63 -1.28 t1.11 -3.01 t-1.08 -2.74 t-2.66 -1.01 q-0.42 0 -1.2 0.2 t-1.01 0.2 t-0.23 -0.22 z M64.56 18.8 q0.12 0 0.12 0.39 t-0.32 0.93 t-0.63 1.02 t-0.83 1.12 t-1.02 1.02 q-1.26 0.92 -2.53 0.92 t-2.05 -0.65 t-0.78 -1.99 q0 -2.04 1.5 -3.78 t3.5 -1.74 q0.9 0 1.44 0.47 t0.54 1.13 q0 1.12 -1.06 1.8 t-2.5 0.68 q-0.84 0 -1.24 -0.22 q-0.38 1.02 -0.38 1.8 q0 1.68 1.42 1.68 q0.84 0 1.73 -0.65 t1.52 -1.46 t1.43 -2.33 q0.08 -0.14 0.14 -0.14 z M62.440000000000005 17.22 q0 -0.58 -0.56 -0.58 q-0.78 0 -1.74 0.96 t-0.96 1.56 q0 0.4 0.76 0.4 t1.59 -0.74 t0.91 -1.6 z  M84.84 17.740000000000002 q-0.14 0.72 -0.48 1.06 t-0.92 0.44 q-2.04 5.52 -7.98 5.52 q-2.62 0 -4.03 -1.23 t-1.41 -3.45 q0 -1.68 0.78 -3.49 t2.07 -3.31 t3.17 -2.47 t3.68 -0.97 t2.78 0.63 t0.98 1.66 t-0.98 1.86 t-2.18 0.83 q-0.44 0 -0.72 -0.19 t-0.28 -0.49 t0.24 -0.64 q0.22 0.08 0.5 0.08 q0.78 0 1.44 -0.54 t0.66 -1.3 q0 -1.16 -1.51 -1.16 t-3.01 0.91 t-2.62 2.32 t-1.83 3.21 t-0.71 3.52 t0.88 2.54 t2.34 0.82 q2.1 0 3.96 -1.29 t2.18 -3.31 q-3.58 0 -4.3 0.1 q0.1 -0.18 0.25 -0.46 t0.54 -0.74 t0.65 -0.46 l5.86 0 z M92.12 15.94 l0.96 0.02 q0.3 0 0.38 -0.02 q-0.56 0.38 -1.61 2.65 t-1.05 3.27 q0 0.6 0.4 0.6 q0.26 0 0.71 -0.34 t0.77 -0.75 t0.69 -1.01 t0.64 -1.04 t0.31 -0.44 q0.12 0 0.12 0.38 t-0.22 0.72 q-2.48 4.14 -4.14 4.14 q-1.12 0 -1.12 -1.66 q0 -0.52 0.08 -1 q-1.88 2.66 -3.58 2.66 q-0.5 0 -0.81 -0.42 t-0.31 -1.24 t0.58 -2.71 t1.42 -3.11 q0.2 -0.3 0.43 -0.37 t0.87 -0.07 l0.96 0 q-0.5 0.68 -1.08 1.84 q-1.32 2.74 -1.32 4.02 q0 0.76 0.55 0.76 t1.31 -1.06 t1.63 -2.75 t1.01 -1.91 q0.74 -1.16 1.42 -1.16 z M99.22 13.36 l-0.08 0 q-0.4 0 -0.77 0.34 t-0.53 0.7 q-0.52 -0.2 -0.52 -0.72 t0.48 -1.05 t0.92 -0.53 t0.66 0.2 t0.22 0.51 t-0.38 0.55 z M96.5 16 l1 0.02 l0.2 0 q-0.32 0.24 -0.85 1.3 t-0.79 1.6 t-0.59 1.46 t-0.33 1.5 t0.38 0.58 q0.26 0 0.73 -0.35 t0.77 -0.74 t0.67 -0.99 t0.64 -1.04 t0.31 -0.44 q0.12 0 0.12 0.37 t-0.2 0.71 q-0.74 1.24 -1.35 2.07 t-1.39 1.45 t-1.42 0.62 q-1.12 0 -1.12 -1.56 q0 -2.42 1.66 -5.36 q0.7 -1.2 1.56 -1.2 z M109.14 10.92 q-0.66 0.48 -1.73 2.69 t-1.89 4.66 t-0.82 3.55 q0 0.64 0.34 0.64 t0.85 -0.44 t0.73 -0.74 t0.59 -0.91 t0.64 -1.06 t0.31 -0.45 q0.14 0 0.14 0.38 q-0.02 0.7 -1.66 2.92 q-0.54 0.72 -1.3 1.34 t-1.38 0.62 q-1.06 0 -1.06 -1.58 q0 -1.16 0.58 -2.98 q-0.92 1.82 -2.1 3.16 t-2.36 1.34 q-1.34 0 -1.34 -1.84 q0 -1.4 0.61 -2.84 t1.75 -2.45 t2.47 -1.01 t1.83 0.88 q0.56 -1.1 1.15 -2.54 t0.78 -1.87 t0.28 -0.63 t0.23 -0.38 q0.22 -0.28 0.53 -0.35 t1 -0.08 t0.83 -0.03 z M104.24000000000001 17.04 q-0.24 -0.36 -0.8 -0.36 q-0.9 0 -1.81 0.91 t-1.46 2.1 t-0.55 2.09 q0 0.62 0.48 0.62 q1.62 0 4.14 -5.36 z M115.36 18.8 q0.12 0 0.12 0.39 t-0.32 0.93 t-0.63 1.02 t-0.83 1.12 t-1.02 1.02 q-1.26 0.92 -2.53 0.92 t-2.05 -0.65 t-0.78 -1.99 q0 -2.04 1.5 -3.78 t3.5 -1.74 q0.9 0 1.44 0.47 t0.54 1.13 q0 1.12 -1.06 1.8 t-2.5 0.68 q-0.84 0 -1.24 -0.22 q-0.38 1.02 -0.38 1.8 q0 1.68 1.42 1.68 q0.84 0 1.73 -0.65 t1.52 -1.46 t1.43 -2.33 q0.08 -0.14 0.14 -0.14 z M113.24 17.22 q0 -0.58 -0.56 -0.58 q-0.78 0 -1.74 0.96 t-0.96 1.56 q0 0.4 0.76 0.4 t1.59 -0.74 t0.91 -1.6 z"/></g>
			</g>
		</svg>
	